%TF.GenerationSoftware,KiCad,Pcbnew,7.0.7*%
%TF.CreationDate,2024-10-25T12:06:38-05:00*%
%TF.ProjectId,TrackingTurrentBoard,54726163-6b69-46e6-9754-757272656e74,rev?*%
%TF.SameCoordinates,Original*%
%TF.FileFunction,Copper,L2,Inr*%
%TF.FilePolarity,Positive*%
%FSLAX46Y46*%
G04 Gerber Fmt 4.6, Leading zero omitted, Abs format (unit mm)*
G04 Created by KiCad (PCBNEW 7.0.7) date 2024-10-25 12:06:38*
%MOMM*%
%LPD*%
G01*
G04 APERTURE LIST*
%TA.AperFunction,ComponentPad*%
%ADD10R,1.700000X1.700000*%
%TD*%
%TA.AperFunction,ComponentPad*%
%ADD11O,1.700000X1.700000*%
%TD*%
%TA.AperFunction,ComponentPad*%
%ADD12R,2.100000X2.100000*%
%TD*%
%TA.AperFunction,ComponentPad*%
%ADD13C,2.100000*%
%TD*%
%TA.AperFunction,ComponentPad*%
%ADD14C,0.900000*%
%TD*%
%TA.AperFunction,ComponentPad*%
%ADD15C,8.600000*%
%TD*%
%TA.AperFunction,ComponentPad*%
%ADD16O,1.000000X2.200000*%
%TD*%
%TA.AperFunction,ComponentPad*%
%ADD17O,1.000000X1.800000*%
%TD*%
%TA.AperFunction,ViaPad*%
%ADD18C,0.800000*%
%TD*%
%TA.AperFunction,ViaPad*%
%ADD19C,1.016000*%
%TD*%
G04 APERTURE END LIST*
D10*
%TO.N,VBUS*%
%TO.C,J107*%
X162971400Y-81127600D03*
D11*
%TO.N,GND*%
X160431400Y-81127600D03*
%TD*%
D12*
%TO.N,VBUS*%
%TO.C,J108*%
X183725000Y-77440000D03*
D13*
%TO.N,GND*%
X183725000Y-74900000D03*
%TD*%
D12*
%TO.N,/Motors/OUTA1*%
%TO.C,J101*%
X133335000Y-118225000D03*
D13*
%TO.N,/Motors/OUTA2*%
X135875000Y-118225000D03*
%TO.N,/Motors/OUTB1*%
X138415000Y-118225000D03*
%TO.N,/Motors/OUTB2*%
X140955000Y-118225000D03*
%TD*%
D10*
%TO.N,/CHANNEL_B*%
%TO.C,J102*%
X122428000Y-87884000D03*
D11*
%TO.N,+5V*%
X122428000Y-90424000D03*
%TO.N,/CHANNEL_A*%
X122428000Y-92964000D03*
%TO.N,/INDEX*%
X122428000Y-95504000D03*
%TO.N,GND*%
X122428000Y-98044000D03*
%TD*%
D10*
%TO.N,+5V*%
%TO.C,J105*%
X162051800Y-97013200D03*
D11*
%TO.N,GND*%
X162051800Y-99553200D03*
%TD*%
D14*
%TO.N,GND*%
%TO.C,H104*%
X113465140Y-117116860D03*
X114409721Y-114836441D03*
X114409721Y-119397279D03*
X116690140Y-113891860D03*
D15*
X116690140Y-117116860D03*
D14*
X116690140Y-120341860D03*
X118970559Y-114836441D03*
X118970559Y-119397279D03*
X119915140Y-117116860D03*
%TD*%
%TO.N,GND*%
%TO.C,H101*%
X178534860Y-61191140D03*
X179479441Y-58910721D03*
X179479441Y-63471559D03*
X181759860Y-57966140D03*
D15*
X181759860Y-61191140D03*
D14*
X181759860Y-64416140D03*
X184040279Y-58910721D03*
X184040279Y-63471559D03*
X184984860Y-61191140D03*
%TD*%
D10*
%TO.N,/SERVO_PWM*%
%TO.C,J104*%
X120396000Y-103124000D03*
D11*
%TO.N,+5V*%
X120396000Y-105664000D03*
%TO.N,GND*%
X120396000Y-108204000D03*
%TD*%
D10*
%TO.N,Net-(J401-Pin_1)*%
%TO.C,J401*%
X125050000Y-105625000D03*
D11*
%TO.N,GND*%
X127590000Y-105625000D03*
%TD*%
D10*
%TO.N,+3.3V*%
%TO.C,J106*%
X165811200Y-63073200D03*
D11*
%TO.N,GND*%
X165811200Y-60533200D03*
%TD*%
D16*
%TO.N,GND*%
%TO.C,J110*%
X162305000Y-120625000D03*
X170945000Y-120625000D03*
D17*
X162305000Y-116625000D03*
X170945000Y-116625000D03*
%TD*%
D10*
%TO.N,/SDA*%
%TO.C,J103*%
X140225000Y-64525000D03*
D11*
%TO.N,/SCL*%
X140225000Y-67065000D03*
%TD*%
D14*
%TO.N,GND*%
%TO.C,H103*%
X178534860Y-117116860D03*
X179479441Y-114836441D03*
X179479441Y-119397279D03*
X181759860Y-113891860D03*
D15*
X181759860Y-117116860D03*
D14*
X181759860Y-120341860D03*
X184040279Y-114836441D03*
X184040279Y-119397279D03*
X184984860Y-117116860D03*
%TD*%
%TO.N,GND*%
%TO.C,H102*%
X113465140Y-61191140D03*
X114409721Y-58910721D03*
X114409721Y-63471559D03*
X116690140Y-57966140D03*
D15*
X116690140Y-61191140D03*
D14*
X116690140Y-64416140D03*
X118970559Y-58910721D03*
X118970559Y-63471559D03*
X119915140Y-61191140D03*
%TD*%
D18*
%TO.N,GND*%
X147193000Y-96647000D03*
X126873000Y-75971400D03*
X152146000Y-117348000D03*
X124333000Y-85344000D03*
X176276000Y-108077000D03*
X112575000Y-95225000D03*
X134575000Y-113125000D03*
X167767000Y-57531000D03*
X126111000Y-97917000D03*
X163322000Y-93091000D03*
X163775000Y-94775000D03*
X114173000Y-104521000D03*
X162750000Y-112050000D03*
X137125000Y-108800000D03*
X158115000Y-92964000D03*
X164338000Y-65379600D03*
X131826000Y-82550000D03*
X162275000Y-94700000D03*
X163626800Y-67767200D03*
X134366000Y-89281000D03*
X142367000Y-79629000D03*
X165252400Y-67767200D03*
X136779000Y-81153000D03*
X131775000Y-100825000D03*
X157937200Y-110896400D03*
X113792000Y-70231000D03*
X142240000Y-72898000D03*
X158115000Y-107442000D03*
X164439600Y-66802000D03*
X139065000Y-58547000D03*
X166217600Y-108000800D03*
X155575000Y-57404000D03*
X148971000Y-83947000D03*
X117475000Y-88800000D03*
X143383000Y-92964000D03*
X181737000Y-103251000D03*
X139725000Y-108800000D03*
X166268400Y-109880400D03*
X154940000Y-109093000D03*
%TO.N,+3.3V*%
X143510000Y-94996000D03*
X127254000Y-58547000D03*
X126873000Y-73660000D03*
X138811000Y-73406000D03*
X127000000Y-77851000D03*
X148971000Y-62103000D03*
X152146000Y-62103000D03*
X155321000Y-62103000D03*
X128905000Y-82423000D03*
X158877000Y-62103000D03*
X131699000Y-85598000D03*
X146975000Y-102500000D03*
D19*
%TO.N,+5V*%
X175006000Y-100584000D03*
D18*
%TO.N,VBUS*%
X142621000Y-105664000D03*
%TO.N,Net-(U201-SW)*%
X175056800Y-80480200D03*
X154990800Y-94704200D03*
X161086800Y-90640200D03*
%TO.N,Net-(U202-SW)*%
X166573200Y-69672200D03*
X172771200Y-65608200D03*
X152705200Y-79832200D03*
%TO.N,/EN\u005CFAULT*%
X141732000Y-89662000D03*
X139954000Y-84969701D03*
%TO.N,/STBY\u005CRST*%
X144648701Y-87452200D03*
X144648701Y-92079299D03*
%TO.N,/Motors/OUTA1*%
X134837000Y-104571500D03*
%TO.N,/Motors/OUTA2*%
X135853000Y-104588390D03*
%TO.N,/Motors/OUTB1*%
X138393000Y-104588390D03*
%TO.N,/Motors/OUTB2*%
X139409000Y-104571500D03*
%TO.N,/SERVO_PWM*%
X128397000Y-86106000D03*
%TO.N,/USB+*%
X166089765Y-118383980D03*
X167851880Y-117728732D03*
%TO.N,/USB-*%
X165313832Y-117688068D03*
X166875000Y-117700000D03*
%TO.N,/FTDI_RX*%
X137981200Y-87562200D03*
X139700000Y-88138000D03*
%TO.N,/FTDI_RTS*%
X139124201Y-86419201D03*
X140716000Y-87122000D03*
%TO.N,/FTDI_CTS*%
X143002000Y-85699600D03*
X143002000Y-89577500D03*
%TO.N,/STEP_PWM*%
X129671299Y-85856299D03*
X128651000Y-95250000D03*
%TO.N,/GPS_INT*%
X129479100Y-77216000D03*
X132080000Y-64389000D03*
%TO.N,/GPS_RST*%
X127635000Y-64262000D03*
X128778000Y-76327000D03*
%TD*%
%TA.AperFunction,Conductor*%
%TO.N,GND*%
G36*
X187775539Y-55138185D02*
G01*
X187821294Y-55190989D01*
X187832500Y-55242500D01*
X187832500Y-123065500D01*
X187812815Y-123132539D01*
X187760011Y-123178294D01*
X187708500Y-123189500D01*
X110741500Y-123189500D01*
X110674461Y-123169815D01*
X110628706Y-123117011D01*
X110617500Y-123065500D01*
X110617500Y-119322870D01*
X131784500Y-119322870D01*
X131784501Y-119322876D01*
X131790908Y-119382483D01*
X131841202Y-119517328D01*
X131841206Y-119517335D01*
X131927452Y-119632544D01*
X131927455Y-119632547D01*
X132042664Y-119718793D01*
X132042671Y-119718797D01*
X132177517Y-119769091D01*
X132177516Y-119769091D01*
X132184444Y-119769835D01*
X132237127Y-119775500D01*
X134432872Y-119775499D01*
X134492483Y-119769091D01*
X134627331Y-119718796D01*
X134742546Y-119632546D01*
X134820087Y-119528964D01*
X134876019Y-119487095D01*
X134945711Y-119482111D01*
X134984142Y-119497550D01*
X135168910Y-119610777D01*
X135394381Y-119704169D01*
X135394378Y-119704169D01*
X135394384Y-119704170D01*
X135394388Y-119704172D01*
X135631698Y-119761146D01*
X135875000Y-119780294D01*
X136118302Y-119761146D01*
X136355612Y-119704172D01*
X136581089Y-119610777D01*
X136789179Y-119483259D01*
X136974759Y-119324759D01*
X137042774Y-119245124D01*
X137050710Y-119235832D01*
X137109216Y-119197638D01*
X137179084Y-119197139D01*
X137238131Y-119234493D01*
X137239290Y-119235832D01*
X137313632Y-119322876D01*
X137315241Y-119324759D01*
X137382827Y-119382483D01*
X137500823Y-119483261D01*
X137500826Y-119483262D01*
X137708910Y-119610777D01*
X137934381Y-119704169D01*
X137934378Y-119704169D01*
X137934384Y-119704170D01*
X137934388Y-119704172D01*
X138171698Y-119761146D01*
X138415000Y-119780294D01*
X138658302Y-119761146D01*
X138895612Y-119704172D01*
X139121089Y-119610777D01*
X139329179Y-119483259D01*
X139514759Y-119324759D01*
X139582774Y-119245124D01*
X139590710Y-119235832D01*
X139649216Y-119197638D01*
X139719084Y-119197139D01*
X139778131Y-119234493D01*
X139779290Y-119235832D01*
X139853632Y-119322876D01*
X139855241Y-119324759D01*
X139922827Y-119382483D01*
X140040823Y-119483261D01*
X140040826Y-119483262D01*
X140248910Y-119610777D01*
X140474381Y-119704169D01*
X140474378Y-119704169D01*
X140474384Y-119704170D01*
X140474388Y-119704172D01*
X140711698Y-119761146D01*
X140955000Y-119780294D01*
X141198302Y-119761146D01*
X141435612Y-119704172D01*
X141661089Y-119610777D01*
X141869179Y-119483259D01*
X142054759Y-119324759D01*
X142213259Y-119139179D01*
X142340777Y-118931089D01*
X142434172Y-118705612D01*
X142491146Y-118468302D01*
X142510294Y-118225000D01*
X142491146Y-117981698D01*
X142434172Y-117744388D01*
X142410844Y-117688068D01*
X164408372Y-117688068D01*
X164428158Y-117876324D01*
X164428159Y-117876327D01*
X164486650Y-118056345D01*
X164486653Y-118056352D01*
X164581299Y-118220284D01*
X164707961Y-118360956D01*
X164861097Y-118472216D01*
X164861102Y-118472219D01*
X165034024Y-118549210D01*
X165034025Y-118549210D01*
X165034029Y-118549212D01*
X165138166Y-118571346D01*
X165138642Y-118571448D01*
X165200124Y-118604640D01*
X165230793Y-118654419D01*
X165262584Y-118752260D01*
X165262586Y-118752264D01*
X165357232Y-118916196D01*
X165370642Y-118931089D01*
X165483894Y-119056868D01*
X165637030Y-119168128D01*
X165637035Y-119168131D01*
X165809957Y-119245122D01*
X165809962Y-119245124D01*
X165995119Y-119284480D01*
X165995120Y-119284480D01*
X166184409Y-119284480D01*
X166184411Y-119284480D01*
X166369568Y-119245124D01*
X166542495Y-119168131D01*
X166695636Y-119056868D01*
X166822298Y-118916196D01*
X166916944Y-118752264D01*
X166943880Y-118669360D01*
X166983316Y-118611686D01*
X167036025Y-118586390D01*
X167154803Y-118561144D01*
X167154807Y-118561142D01*
X167154808Y-118561142D01*
X167282237Y-118504406D01*
X167351487Y-118495121D01*
X167394672Y-118510297D01*
X167399147Y-118512881D01*
X167399150Y-118512883D01*
X167399152Y-118512884D01*
X167399154Y-118512885D01*
X167572072Y-118589874D01*
X167572077Y-118589876D01*
X167757234Y-118629232D01*
X167757235Y-118629232D01*
X167946524Y-118629232D01*
X167946526Y-118629232D01*
X168131683Y-118589876D01*
X168304610Y-118512883D01*
X168457751Y-118401620D01*
X168584413Y-118260948D01*
X168679059Y-118097016D01*
X168737554Y-117916988D01*
X168757340Y-117728732D01*
X168737554Y-117540476D01*
X168679059Y-117360448D01*
X168584413Y-117196516D01*
X168457751Y-117055844D01*
X168457750Y-117055843D01*
X168304614Y-116944583D01*
X168304609Y-116944580D01*
X168131687Y-116867589D01*
X168131682Y-116867587D01*
X167985881Y-116836597D01*
X167946526Y-116828232D01*
X167757234Y-116828232D01*
X167724777Y-116835130D01*
X167572077Y-116867587D01*
X167444641Y-116924326D01*
X167375391Y-116933610D01*
X167332210Y-116918436D01*
X167327725Y-116915846D01*
X167154807Y-116838857D01*
X167154802Y-116838855D01*
X167009001Y-116807865D01*
X166969646Y-116799500D01*
X166780354Y-116799500D01*
X166747897Y-116806398D01*
X166595197Y-116838855D01*
X166595192Y-116838857D01*
X166422270Y-116915848D01*
X166422265Y-116915851D01*
X166269129Y-117027111D01*
X166269128Y-117027112D01*
X166191936Y-117112842D01*
X166132449Y-117149490D01*
X166062592Y-117148159D01*
X166007638Y-117112841D01*
X165919703Y-117015180D01*
X165919702Y-117015179D01*
X165766566Y-116903919D01*
X165766561Y-116903916D01*
X165593639Y-116826925D01*
X165593634Y-116826923D01*
X165447833Y-116795933D01*
X165408478Y-116787568D01*
X165219186Y-116787568D01*
X165186729Y-116794466D01*
X165034029Y-116826923D01*
X165034024Y-116826925D01*
X164861102Y-116903916D01*
X164861097Y-116903919D01*
X164707961Y-117015179D01*
X164581298Y-117155853D01*
X164486653Y-117319783D01*
X164486650Y-117319790D01*
X164473440Y-117360448D01*
X164428158Y-117499812D01*
X164408372Y-117688068D01*
X142410844Y-117688068D01*
X142340777Y-117518910D01*
X142213262Y-117310826D01*
X142213261Y-117310823D01*
X142163755Y-117252859D01*
X142054759Y-117125241D01*
X141925893Y-117015179D01*
X141869176Y-116966738D01*
X141869173Y-116966737D01*
X141661089Y-116839222D01*
X141435618Y-116745830D01*
X141435621Y-116745830D01*
X141329992Y-116720470D01*
X141198302Y-116688854D01*
X141198300Y-116688853D01*
X141198297Y-116688853D01*
X140955000Y-116669706D01*
X140711702Y-116688853D01*
X140711697Y-116688854D01*
X140711698Y-116688854D01*
X140535301Y-116731204D01*
X140474380Y-116745830D01*
X140248910Y-116839222D01*
X140040826Y-116966737D01*
X140040823Y-116966738D01*
X139855241Y-117125241D01*
X139779290Y-117214168D01*
X139720783Y-117252361D01*
X139650915Y-117252859D01*
X139591869Y-117215505D01*
X139590710Y-117214168D01*
X139540903Y-117155852D01*
X139514759Y-117125241D01*
X139385893Y-117015179D01*
X139329176Y-116966738D01*
X139329173Y-116966737D01*
X139121089Y-116839222D01*
X138895618Y-116745830D01*
X138895621Y-116745830D01*
X138789992Y-116720470D01*
X138658302Y-116688854D01*
X138658300Y-116688853D01*
X138658297Y-116688853D01*
X138415000Y-116669706D01*
X138171702Y-116688853D01*
X138171697Y-116688854D01*
X138171698Y-116688854D01*
X137995301Y-116731204D01*
X137934380Y-116745830D01*
X137708910Y-116839222D01*
X137500826Y-116966737D01*
X137500823Y-116966738D01*
X137315241Y-117125241D01*
X137239290Y-117214168D01*
X137180783Y-117252361D01*
X137110915Y-117252859D01*
X137051869Y-117215505D01*
X137050710Y-117214168D01*
X137000903Y-117155852D01*
X136974759Y-117125241D01*
X136845893Y-117015179D01*
X136789176Y-116966738D01*
X136789173Y-116966737D01*
X136581089Y-116839222D01*
X136355618Y-116745830D01*
X136355621Y-116745830D01*
X136249992Y-116720470D01*
X136118302Y-116688854D01*
X136118300Y-116688853D01*
X136118297Y-116688853D01*
X135875000Y-116669706D01*
X135631702Y-116688853D01*
X135631697Y-116688854D01*
X135631698Y-116688854D01*
X135455301Y-116731204D01*
X135394380Y-116745830D01*
X135168910Y-116839222D01*
X134984142Y-116952449D01*
X134916696Y-116970694D01*
X134850094Y-116949578D01*
X134820086Y-116921033D01*
X134742547Y-116817455D01*
X134742544Y-116817452D01*
X134627335Y-116731206D01*
X134627328Y-116731202D01*
X134492482Y-116680908D01*
X134492483Y-116680908D01*
X134432883Y-116674501D01*
X134432881Y-116674500D01*
X134432873Y-116674500D01*
X134432864Y-116674500D01*
X132237129Y-116674500D01*
X132237123Y-116674501D01*
X132177516Y-116680908D01*
X132042671Y-116731202D01*
X132042664Y-116731206D01*
X131927455Y-116817452D01*
X131927452Y-116817455D01*
X131841206Y-116932664D01*
X131841202Y-116932671D01*
X131790908Y-117067517D01*
X131784501Y-117127116D01*
X131784500Y-117127135D01*
X131784500Y-119322870D01*
X110617500Y-119322870D01*
X110617500Y-105664000D01*
X119040341Y-105664000D01*
X119060936Y-105899403D01*
X119060938Y-105899413D01*
X119122094Y-106127655D01*
X119122096Y-106127659D01*
X119122097Y-106127663D01*
X119154063Y-106196214D01*
X119221965Y-106341830D01*
X119221967Y-106341834D01*
X119296412Y-106448151D01*
X119357505Y-106535401D01*
X119524599Y-106702495D01*
X119545793Y-106717335D01*
X119718165Y-106838032D01*
X119718167Y-106838033D01*
X119718170Y-106838035D01*
X119932337Y-106937903D01*
X120160592Y-106999063D01*
X120348918Y-107015539D01*
X120395999Y-107019659D01*
X120396000Y-107019659D01*
X120396001Y-107019659D01*
X120435234Y-107016226D01*
X120631408Y-106999063D01*
X120859663Y-106937903D01*
X121073830Y-106838035D01*
X121267401Y-106702495D01*
X121434495Y-106535401D01*
X121443269Y-106522870D01*
X123699500Y-106522870D01*
X123699501Y-106522876D01*
X123705908Y-106582483D01*
X123756202Y-106717328D01*
X123756206Y-106717335D01*
X123842452Y-106832544D01*
X123842455Y-106832547D01*
X123957664Y-106918793D01*
X123957671Y-106918797D01*
X124092517Y-106969091D01*
X124092516Y-106969091D01*
X124099444Y-106969835D01*
X124152127Y-106975500D01*
X125947872Y-106975499D01*
X126007483Y-106969091D01*
X126142331Y-106918796D01*
X126257546Y-106832546D01*
X126343796Y-106717331D01*
X126394091Y-106582483D01*
X126400500Y-106522873D01*
X126400500Y-105664000D01*
X141715540Y-105664000D01*
X141735326Y-105852256D01*
X141735327Y-105852259D01*
X141793818Y-106032277D01*
X141793821Y-106032284D01*
X141888467Y-106196216D01*
X142015128Y-106336887D01*
X142015129Y-106336888D01*
X142168265Y-106448148D01*
X142168270Y-106448151D01*
X142341192Y-106525142D01*
X142341197Y-106525144D01*
X142526354Y-106564500D01*
X142526355Y-106564500D01*
X142715644Y-106564500D01*
X142715646Y-106564500D01*
X142900803Y-106525144D01*
X143073730Y-106448151D01*
X143226871Y-106336888D01*
X143353533Y-106196216D01*
X143448179Y-106032284D01*
X143506674Y-105852256D01*
X143526460Y-105664000D01*
X143506674Y-105475744D01*
X143448179Y-105295716D01*
X143353533Y-105131784D01*
X143226871Y-104991112D01*
X143226870Y-104991111D01*
X143073734Y-104879851D01*
X143073729Y-104879848D01*
X142900807Y-104802857D01*
X142900802Y-104802855D01*
X142755000Y-104771865D01*
X142715646Y-104763500D01*
X142526354Y-104763500D01*
X142493897Y-104770398D01*
X142341197Y-104802855D01*
X142341192Y-104802857D01*
X142168270Y-104879848D01*
X142168265Y-104879851D01*
X142015129Y-104991111D01*
X141888466Y-105131785D01*
X141793821Y-105295715D01*
X141793818Y-105295722D01*
X141735327Y-105475740D01*
X141735326Y-105475744D01*
X141715540Y-105664000D01*
X126400500Y-105664000D01*
X126400499Y-104727128D01*
X126394091Y-104667517D01*
X126358279Y-104571500D01*
X133931540Y-104571500D01*
X133951326Y-104759756D01*
X133951327Y-104759759D01*
X134009818Y-104939777D01*
X134009821Y-104939784D01*
X134104467Y-105103716D01*
X134231129Y-105244387D01*
X134231129Y-105244388D01*
X134384265Y-105355648D01*
X134384270Y-105355651D01*
X134557192Y-105432642D01*
X134557197Y-105432644D01*
X134742354Y-105472000D01*
X134742355Y-105472000D01*
X134931644Y-105472000D01*
X134931646Y-105472000D01*
X135116803Y-105432644D01*
X135278453Y-105360671D01*
X135347702Y-105351387D01*
X135393978Y-105370428D01*
X135394637Y-105369289D01*
X135400270Y-105372541D01*
X135573192Y-105449532D01*
X135573197Y-105449534D01*
X135758354Y-105488890D01*
X135758355Y-105488890D01*
X135947644Y-105488890D01*
X135947646Y-105488890D01*
X136132803Y-105449534D01*
X136305730Y-105372541D01*
X136458871Y-105261278D01*
X136585533Y-105120606D01*
X136680179Y-104956674D01*
X136738674Y-104776646D01*
X136758460Y-104588390D01*
X137487540Y-104588390D01*
X137507326Y-104776646D01*
X137507327Y-104776649D01*
X137565818Y-104956667D01*
X137565821Y-104956674D01*
X137660467Y-105120606D01*
X137732264Y-105200344D01*
X137787129Y-105261278D01*
X137940265Y-105372538D01*
X137940270Y-105372541D01*
X138113192Y-105449532D01*
X138113197Y-105449534D01*
X138298354Y-105488890D01*
X138298355Y-105488890D01*
X138487644Y-105488890D01*
X138487646Y-105488890D01*
X138672803Y-105449534D01*
X138845730Y-105372541D01*
X138845731Y-105372539D01*
X138851359Y-105369292D01*
X138852220Y-105370783D01*
X138910021Y-105350154D01*
X138967546Y-105360671D01*
X139129197Y-105432644D01*
X139314354Y-105472000D01*
X139314355Y-105472000D01*
X139503644Y-105472000D01*
X139503646Y-105472000D01*
X139688803Y-105432644D01*
X139861730Y-105355651D01*
X140014871Y-105244388D01*
X140141533Y-105103716D01*
X140236179Y-104939784D01*
X140294674Y-104759756D01*
X140314460Y-104571500D01*
X140294674Y-104383244D01*
X140236179Y-104203216D01*
X140141533Y-104039284D01*
X140014871Y-103898612D01*
X140014870Y-103898611D01*
X139861734Y-103787351D01*
X139861729Y-103787348D01*
X139688807Y-103710357D01*
X139688802Y-103710355D01*
X139543001Y-103679365D01*
X139503646Y-103671000D01*
X139314354Y-103671000D01*
X139281897Y-103677898D01*
X139129197Y-103710355D01*
X139129192Y-103710357D01*
X138956267Y-103787350D01*
X138950642Y-103790598D01*
X138949784Y-103789112D01*
X138891942Y-103809737D01*
X138834452Y-103799217D01*
X138672807Y-103727247D01*
X138672802Y-103727245D01*
X138527001Y-103696255D01*
X138487646Y-103687890D01*
X138298354Y-103687890D01*
X138265897Y-103694788D01*
X138113197Y-103727245D01*
X138113192Y-103727247D01*
X137940270Y-103804238D01*
X137940265Y-103804241D01*
X137787129Y-103915501D01*
X137660466Y-104056175D01*
X137565821Y-104220105D01*
X137565818Y-104220112D01*
X137529611Y-104331547D01*
X137507326Y-104400134D01*
X137487540Y-104588390D01*
X136758460Y-104588390D01*
X136738674Y-104400134D01*
X136680179Y-104220106D01*
X136585533Y-104056174D01*
X136458871Y-103915502D01*
X136435624Y-103898612D01*
X136305734Y-103804241D01*
X136305729Y-103804238D01*
X136132807Y-103727247D01*
X136132802Y-103727245D01*
X135987001Y-103696255D01*
X135947646Y-103687890D01*
X135758354Y-103687890D01*
X135725897Y-103694788D01*
X135573197Y-103727245D01*
X135573192Y-103727247D01*
X135411548Y-103799217D01*
X135342298Y-103808502D01*
X135296019Y-103789464D01*
X135295363Y-103790601D01*
X135289729Y-103787348D01*
X135116807Y-103710357D01*
X135116802Y-103710355D01*
X134971001Y-103679365D01*
X134931646Y-103671000D01*
X134742354Y-103671000D01*
X134709897Y-103677898D01*
X134557197Y-103710355D01*
X134557192Y-103710357D01*
X134384270Y-103787348D01*
X134384265Y-103787351D01*
X134231129Y-103898611D01*
X134104466Y-104039285D01*
X134009821Y-104203215D01*
X134009818Y-104203222D01*
X133968123Y-104331547D01*
X133951326Y-104383244D01*
X133931540Y-104571500D01*
X126358279Y-104571500D01*
X126343796Y-104532669D01*
X126343795Y-104532668D01*
X126343793Y-104532664D01*
X126257547Y-104417455D01*
X126257544Y-104417452D01*
X126142335Y-104331206D01*
X126142328Y-104331202D01*
X126007482Y-104280908D01*
X126007483Y-104280908D01*
X125947883Y-104274501D01*
X125947881Y-104274500D01*
X125947873Y-104274500D01*
X125947864Y-104274500D01*
X124152129Y-104274500D01*
X124152123Y-104274501D01*
X124092516Y-104280908D01*
X123957671Y-104331202D01*
X123957664Y-104331206D01*
X123842455Y-104417452D01*
X123842452Y-104417455D01*
X123756206Y-104532664D01*
X123756202Y-104532671D01*
X123705908Y-104667517D01*
X123699501Y-104727116D01*
X123699501Y-104727123D01*
X123699500Y-104727135D01*
X123699500Y-106522870D01*
X121443269Y-106522870D01*
X121570035Y-106341830D01*
X121669903Y-106127663D01*
X121731063Y-105899408D01*
X121751659Y-105664000D01*
X121731063Y-105428592D01*
X121669903Y-105200337D01*
X121570035Y-104986171D01*
X121549376Y-104956667D01*
X121434496Y-104792600D01*
X121401652Y-104759756D01*
X121312567Y-104670671D01*
X121279084Y-104609351D01*
X121284068Y-104539659D01*
X121325939Y-104483725D01*
X121356915Y-104466810D01*
X121488331Y-104417796D01*
X121603546Y-104331546D01*
X121689796Y-104216331D01*
X121740091Y-104081483D01*
X121746500Y-104021873D01*
X121746499Y-102500000D01*
X146069540Y-102500000D01*
X146089326Y-102688256D01*
X146089327Y-102688259D01*
X146147818Y-102868277D01*
X146147821Y-102868284D01*
X146242467Y-103032216D01*
X146369129Y-103172887D01*
X146369129Y-103172888D01*
X146522265Y-103284148D01*
X146522270Y-103284151D01*
X146695192Y-103361142D01*
X146695197Y-103361144D01*
X146880354Y-103400500D01*
X146880355Y-103400500D01*
X147069644Y-103400500D01*
X147069646Y-103400500D01*
X147254803Y-103361144D01*
X147427730Y-103284151D01*
X147580871Y-103172888D01*
X147707533Y-103032216D01*
X147802179Y-102868284D01*
X147860674Y-102688256D01*
X147880460Y-102500000D01*
X147860674Y-102311744D01*
X147802179Y-102131716D01*
X147707533Y-101967784D01*
X147580871Y-101827112D01*
X147580870Y-101827111D01*
X147427734Y-101715851D01*
X147427729Y-101715848D01*
X147254807Y-101638857D01*
X147254802Y-101638855D01*
X147109001Y-101607865D01*
X147069646Y-101599500D01*
X146880354Y-101599500D01*
X146847897Y-101606398D01*
X146695197Y-101638855D01*
X146695192Y-101638857D01*
X146522270Y-101715848D01*
X146522265Y-101715851D01*
X146369129Y-101827111D01*
X146242466Y-101967785D01*
X146147821Y-102131715D01*
X146147818Y-102131722D01*
X146117144Y-102226128D01*
X146089326Y-102311744D01*
X146069540Y-102500000D01*
X121746499Y-102500000D01*
X121746499Y-102226128D01*
X121740091Y-102166517D01*
X121727113Y-102131722D01*
X121689797Y-102031671D01*
X121689793Y-102031664D01*
X121603547Y-101916455D01*
X121603544Y-101916452D01*
X121488335Y-101830206D01*
X121488328Y-101830202D01*
X121353482Y-101779908D01*
X121353483Y-101779908D01*
X121293883Y-101773501D01*
X121293881Y-101773500D01*
X121293873Y-101773500D01*
X121293864Y-101773500D01*
X119498129Y-101773500D01*
X119498123Y-101773501D01*
X119438516Y-101779908D01*
X119303671Y-101830202D01*
X119303664Y-101830206D01*
X119188455Y-101916452D01*
X119188452Y-101916455D01*
X119102206Y-102031664D01*
X119102202Y-102031671D01*
X119051908Y-102166517D01*
X119045501Y-102226116D01*
X119045501Y-102226123D01*
X119045500Y-102226135D01*
X119045500Y-104021870D01*
X119045501Y-104021876D01*
X119051908Y-104081483D01*
X119102202Y-104216328D01*
X119102206Y-104216335D01*
X119188452Y-104331544D01*
X119188455Y-104331547D01*
X119303664Y-104417793D01*
X119303671Y-104417797D01*
X119435081Y-104466810D01*
X119491015Y-104508681D01*
X119515432Y-104574145D01*
X119500580Y-104642418D01*
X119479430Y-104670673D01*
X119357503Y-104792600D01*
X119221965Y-104986169D01*
X119221964Y-104986171D01*
X119122098Y-105200335D01*
X119122094Y-105200344D01*
X119060938Y-105428586D01*
X119060936Y-105428596D01*
X119040341Y-105663999D01*
X119040341Y-105664000D01*
X110617500Y-105664000D01*
X110617500Y-100583999D01*
X173992620Y-100583999D01*
X174012091Y-100781699D01*
X174069760Y-100971808D01*
X174163401Y-101146998D01*
X174163405Y-101147005D01*
X174289431Y-101300568D01*
X174442994Y-101426594D01*
X174443001Y-101426598D01*
X174618191Y-101520239D01*
X174618193Y-101520239D01*
X174618196Y-101520241D01*
X174808299Y-101577908D01*
X174808298Y-101577908D01*
X174826024Y-101579653D01*
X175006000Y-101597380D01*
X175203701Y-101577908D01*
X175393804Y-101520241D01*
X175569004Y-101426595D01*
X175722568Y-101300568D01*
X175848595Y-101147004D01*
X175942241Y-100971804D01*
X175999908Y-100781701D01*
X176019380Y-100584000D01*
X175999908Y-100386299D01*
X175942241Y-100196196D01*
X175942239Y-100196193D01*
X175942239Y-100196191D01*
X175848598Y-100021001D01*
X175848594Y-100020994D01*
X175722568Y-99867431D01*
X175569005Y-99741405D01*
X175568998Y-99741401D01*
X175393808Y-99647760D01*
X175298752Y-99618925D01*
X175203701Y-99590092D01*
X175203699Y-99590091D01*
X175203701Y-99590091D01*
X175023725Y-99572365D01*
X175006000Y-99570620D01*
X175005999Y-99570620D01*
X174808300Y-99590091D01*
X174618191Y-99647760D01*
X174443001Y-99741401D01*
X174442994Y-99741405D01*
X174289431Y-99867431D01*
X174163405Y-100020994D01*
X174163401Y-100021001D01*
X174069760Y-100196191D01*
X174012091Y-100386300D01*
X173992620Y-100583999D01*
X110617500Y-100583999D01*
X110617500Y-97911070D01*
X160701300Y-97911070D01*
X160701301Y-97911076D01*
X160707708Y-97970683D01*
X160758002Y-98105528D01*
X160758006Y-98105535D01*
X160844252Y-98220744D01*
X160844255Y-98220747D01*
X160959464Y-98306993D01*
X160959471Y-98306997D01*
X161094317Y-98357291D01*
X161094316Y-98357291D01*
X161101244Y-98358035D01*
X161153927Y-98363700D01*
X162949672Y-98363699D01*
X163009283Y-98357291D01*
X163144131Y-98306996D01*
X163259346Y-98220746D01*
X163345596Y-98105531D01*
X163395891Y-97970683D01*
X163402300Y-97911073D01*
X163402299Y-96115328D01*
X163395891Y-96055717D01*
X163387847Y-96034151D01*
X163345597Y-95920871D01*
X163345593Y-95920864D01*
X163259347Y-95805655D01*
X163259344Y-95805652D01*
X163144135Y-95719406D01*
X163144128Y-95719402D01*
X163009282Y-95669108D01*
X163009283Y-95669108D01*
X162949683Y-95662701D01*
X162949681Y-95662700D01*
X162949673Y-95662700D01*
X162949664Y-95662700D01*
X161153929Y-95662700D01*
X161153923Y-95662701D01*
X161094316Y-95669108D01*
X160959471Y-95719402D01*
X160959464Y-95719406D01*
X160844255Y-95805652D01*
X160844252Y-95805655D01*
X160758006Y-95920864D01*
X160758002Y-95920871D01*
X160707708Y-96055717D01*
X160701301Y-96115316D01*
X160701301Y-96115323D01*
X160701300Y-96115335D01*
X160701300Y-97911070D01*
X110617500Y-97911070D01*
X110617500Y-95504000D01*
X121072341Y-95504000D01*
X121092936Y-95739403D01*
X121092938Y-95739413D01*
X121154094Y-95967655D01*
X121154096Y-95967659D01*
X121154097Y-95967663D01*
X121222949Y-96115316D01*
X121253965Y-96181830D01*
X121253967Y-96181834D01*
X121362281Y-96336521D01*
X121389505Y-96375401D01*
X121556599Y-96542495D01*
X121653384Y-96610264D01*
X121750165Y-96678032D01*
X121750167Y-96678033D01*
X121750170Y-96678035D01*
X121964337Y-96777903D01*
X122192592Y-96839063D01*
X122380918Y-96855539D01*
X122427999Y-96859659D01*
X122428000Y-96859659D01*
X122428001Y-96859659D01*
X122467234Y-96856226D01*
X122663408Y-96839063D01*
X122891663Y-96777903D01*
X123105830Y-96678035D01*
X123299401Y-96542495D01*
X123466495Y-96375401D01*
X123602035Y-96181830D01*
X123701903Y-95967663D01*
X123763063Y-95739408D01*
X123783659Y-95504000D01*
X123763063Y-95268592D01*
X123758081Y-95250000D01*
X127745540Y-95250000D01*
X127765326Y-95438256D01*
X127765327Y-95438259D01*
X127823818Y-95618277D01*
X127823821Y-95618284D01*
X127918467Y-95782216D01*
X127939571Y-95805654D01*
X128045129Y-95922888D01*
X128198265Y-96034148D01*
X128198270Y-96034151D01*
X128371192Y-96111142D01*
X128371197Y-96111144D01*
X128556354Y-96150500D01*
X128556355Y-96150500D01*
X128745644Y-96150500D01*
X128745646Y-96150500D01*
X128930803Y-96111144D01*
X129103730Y-96034151D01*
X129256871Y-95922888D01*
X129383533Y-95782216D01*
X129478179Y-95618284D01*
X129536674Y-95438256D01*
X129556460Y-95250000D01*
X129536674Y-95061744D01*
X129515312Y-94996000D01*
X142604540Y-94996000D01*
X142624326Y-95184256D01*
X142624327Y-95184259D01*
X142682818Y-95364277D01*
X142682821Y-95364284D01*
X142777467Y-95528216D01*
X142846334Y-95604700D01*
X142904129Y-95668888D01*
X143057265Y-95780148D01*
X143057270Y-95780151D01*
X143230192Y-95857142D01*
X143230197Y-95857144D01*
X143415354Y-95896500D01*
X143415355Y-95896500D01*
X143604644Y-95896500D01*
X143604646Y-95896500D01*
X143789803Y-95857144D01*
X143962730Y-95780151D01*
X144115871Y-95668888D01*
X144242533Y-95528216D01*
X144337179Y-95364284D01*
X144395674Y-95184256D01*
X144415460Y-94996000D01*
X144395674Y-94807744D01*
X144362030Y-94704200D01*
X154085340Y-94704200D01*
X154105126Y-94892456D01*
X154105127Y-94892459D01*
X154163618Y-95072477D01*
X154163621Y-95072484D01*
X154258267Y-95236416D01*
X154373394Y-95364277D01*
X154384929Y-95377088D01*
X154538065Y-95488348D01*
X154538070Y-95488351D01*
X154710992Y-95565342D01*
X154710997Y-95565344D01*
X154896154Y-95604700D01*
X154896155Y-95604700D01*
X155085444Y-95604700D01*
X155085446Y-95604700D01*
X155270603Y-95565344D01*
X155443530Y-95488351D01*
X155596671Y-95377088D01*
X155723333Y-95236416D01*
X155817979Y-95072484D01*
X155876474Y-94892456D01*
X155896260Y-94704200D01*
X155876474Y-94515944D01*
X155817979Y-94335916D01*
X155723333Y-94171984D01*
X155596671Y-94031312D01*
X155557005Y-94002493D01*
X155443534Y-93920051D01*
X155443529Y-93920048D01*
X155270607Y-93843057D01*
X155270602Y-93843055D01*
X155124800Y-93812065D01*
X155085446Y-93803700D01*
X154896154Y-93803700D01*
X154863697Y-93810598D01*
X154710997Y-93843055D01*
X154710992Y-93843057D01*
X154538070Y-93920048D01*
X154538065Y-93920051D01*
X154384929Y-94031311D01*
X154258266Y-94171985D01*
X154163621Y-94335915D01*
X154163618Y-94335922D01*
X154121402Y-94465851D01*
X154105126Y-94515944D01*
X154085340Y-94704200D01*
X144362030Y-94704200D01*
X144337179Y-94627716D01*
X144242533Y-94463784D01*
X144115871Y-94323112D01*
X144110012Y-94318855D01*
X143962734Y-94211851D01*
X143962729Y-94211848D01*
X143789807Y-94134857D01*
X143789802Y-94134855D01*
X143644000Y-94103865D01*
X143604646Y-94095500D01*
X143415354Y-94095500D01*
X143382897Y-94102398D01*
X143230197Y-94134855D01*
X143230192Y-94134857D01*
X143057270Y-94211848D01*
X143057265Y-94211851D01*
X142904129Y-94323111D01*
X142777466Y-94463785D01*
X142682821Y-94627715D01*
X142682818Y-94627722D01*
X142624327Y-94807740D01*
X142624326Y-94807744D01*
X142604540Y-94996000D01*
X129515312Y-94996000D01*
X129478179Y-94881716D01*
X129383533Y-94717784D01*
X129256871Y-94577112D01*
X129256870Y-94577111D01*
X129103734Y-94465851D01*
X129103729Y-94465848D01*
X128930807Y-94388857D01*
X128930802Y-94388855D01*
X128785001Y-94357865D01*
X128745646Y-94349500D01*
X128556354Y-94349500D01*
X128523897Y-94356398D01*
X128371197Y-94388855D01*
X128371192Y-94388857D01*
X128198270Y-94465848D01*
X128198265Y-94465851D01*
X128045129Y-94577111D01*
X127918466Y-94717785D01*
X127823821Y-94881715D01*
X127823818Y-94881722D01*
X127772279Y-95040344D01*
X127765326Y-95061744D01*
X127745540Y-95250000D01*
X123758081Y-95250000D01*
X123701903Y-95040337D01*
X123602035Y-94826171D01*
X123589133Y-94807744D01*
X123466494Y-94632597D01*
X123299402Y-94465506D01*
X123299396Y-94465501D01*
X123113842Y-94335575D01*
X123070217Y-94280998D01*
X123063023Y-94211500D01*
X123094546Y-94149145D01*
X123113842Y-94132425D01*
X123258246Y-94031312D01*
X123299401Y-94002495D01*
X123466495Y-93835401D01*
X123602035Y-93641830D01*
X123701903Y-93427663D01*
X123763063Y-93199408D01*
X123783659Y-92964000D01*
X123763063Y-92728592D01*
X123701903Y-92500337D01*
X123602035Y-92286171D01*
X123466495Y-92092599D01*
X123466494Y-92092597D01*
X123453196Y-92079299D01*
X143743241Y-92079299D01*
X143763027Y-92267555D01*
X143763028Y-92267558D01*
X143821519Y-92447576D01*
X143821522Y-92447583D01*
X143916168Y-92611515D01*
X144021580Y-92728586D01*
X144042830Y-92752187D01*
X144195966Y-92863447D01*
X144195971Y-92863450D01*
X144368893Y-92940441D01*
X144368898Y-92940443D01*
X144554055Y-92979799D01*
X144554056Y-92979799D01*
X144743345Y-92979799D01*
X144743347Y-92979799D01*
X144928504Y-92940443D01*
X145101431Y-92863450D01*
X145254572Y-92752187D01*
X145381234Y-92611515D01*
X145475880Y-92447583D01*
X145534375Y-92267555D01*
X145554161Y-92079299D01*
X145534375Y-91891043D01*
X145475880Y-91711015D01*
X145381234Y-91547083D01*
X145254572Y-91406411D01*
X145254571Y-91406410D01*
X145101435Y-91295150D01*
X145101430Y-91295147D01*
X144928508Y-91218156D01*
X144928503Y-91218154D01*
X144782701Y-91187164D01*
X144743347Y-91178799D01*
X144554055Y-91178799D01*
X144521598Y-91185697D01*
X144368898Y-91218154D01*
X144368893Y-91218156D01*
X144195971Y-91295147D01*
X144195966Y-91295150D01*
X144042830Y-91406410D01*
X143916167Y-91547084D01*
X143821522Y-91711014D01*
X143821519Y-91711021D01*
X143763028Y-91891039D01*
X143763027Y-91891043D01*
X143743241Y-92079299D01*
X123453196Y-92079299D01*
X123299402Y-91925506D01*
X123299401Y-91925505D01*
X123113842Y-91795575D01*
X123113841Y-91795574D01*
X123070216Y-91740997D01*
X123063024Y-91671498D01*
X123094546Y-91609144D01*
X123113836Y-91592428D01*
X123299401Y-91462495D01*
X123466495Y-91295401D01*
X123602035Y-91101830D01*
X123701903Y-90887663D01*
X123763063Y-90659408D01*
X123764744Y-90640200D01*
X160181340Y-90640200D01*
X160201126Y-90828456D01*
X160201127Y-90828459D01*
X160259618Y-91008477D01*
X160259621Y-91008484D01*
X160354267Y-91172416D01*
X160480929Y-91313088D01*
X160634065Y-91424348D01*
X160634070Y-91424351D01*
X160806992Y-91501342D01*
X160806997Y-91501344D01*
X160992154Y-91540700D01*
X160992155Y-91540700D01*
X161181444Y-91540700D01*
X161181446Y-91540700D01*
X161366603Y-91501344D01*
X161539530Y-91424351D01*
X161692671Y-91313088D01*
X161819333Y-91172416D01*
X161913979Y-91008484D01*
X161972474Y-90828456D01*
X161992260Y-90640200D01*
X161972474Y-90451944D01*
X161913979Y-90271916D01*
X161819333Y-90107984D01*
X161692671Y-89967312D01*
X161692670Y-89967311D01*
X161539534Y-89856051D01*
X161539529Y-89856048D01*
X161366607Y-89779057D01*
X161366602Y-89779055D01*
X161211890Y-89746171D01*
X161181446Y-89739700D01*
X160992154Y-89739700D01*
X160961710Y-89746171D01*
X160806997Y-89779055D01*
X160806992Y-89779057D01*
X160634070Y-89856048D01*
X160634065Y-89856051D01*
X160480929Y-89967311D01*
X160354266Y-90107985D01*
X160259621Y-90271915D01*
X160259618Y-90271922D01*
X160205448Y-90438642D01*
X160201126Y-90451944D01*
X160181340Y-90640200D01*
X123764744Y-90640200D01*
X123783659Y-90424000D01*
X123763063Y-90188592D01*
X123701903Y-89960337D01*
X123602035Y-89746171D01*
X123543098Y-89662000D01*
X140826540Y-89662000D01*
X140846326Y-89850256D01*
X140846327Y-89850259D01*
X140904818Y-90030277D01*
X140904821Y-90030284D01*
X140999467Y-90194216D01*
X141103972Y-90310280D01*
X141126129Y-90334888D01*
X141279265Y-90446148D01*
X141279270Y-90446151D01*
X141452192Y-90523142D01*
X141452197Y-90523144D01*
X141637354Y-90562500D01*
X141637355Y-90562500D01*
X141826644Y-90562500D01*
X141826646Y-90562500D01*
X142011803Y-90523144D01*
X142184730Y-90446151D01*
X142337871Y-90334888D01*
X142337879Y-90334878D01*
X142341198Y-90331892D01*
X142404188Y-90301658D01*
X142473523Y-90310280D01*
X142497060Y-90323719D01*
X142549265Y-90361648D01*
X142549270Y-90361651D01*
X142722192Y-90438642D01*
X142722197Y-90438644D01*
X142907354Y-90478000D01*
X142907355Y-90478000D01*
X143096644Y-90478000D01*
X143096646Y-90478000D01*
X143281803Y-90438644D01*
X143454730Y-90361651D01*
X143607871Y-90250388D01*
X143734533Y-90109716D01*
X143829179Y-89945784D01*
X143887674Y-89765756D01*
X143907460Y-89577500D01*
X143887674Y-89389244D01*
X143829179Y-89209216D01*
X143734533Y-89045284D01*
X143607871Y-88904612D01*
X143607867Y-88904609D01*
X143454734Y-88793351D01*
X143454729Y-88793348D01*
X143281807Y-88716357D01*
X143281802Y-88716355D01*
X143136001Y-88685365D01*
X143096646Y-88677000D01*
X142907354Y-88677000D01*
X142874897Y-88683898D01*
X142722197Y-88716355D01*
X142722192Y-88716357D01*
X142549270Y-88793348D01*
X142549265Y-88793351D01*
X142396131Y-88904609D01*
X142392790Y-88907618D01*
X142329796Y-88937843D01*
X142260462Y-88929213D01*
X142236939Y-88915781D01*
X142184730Y-88877849D01*
X142184728Y-88877848D01*
X142184729Y-88877848D01*
X142011807Y-88800857D01*
X142011802Y-88800855D01*
X141866001Y-88769865D01*
X141826646Y-88761500D01*
X141637354Y-88761500D01*
X141604897Y-88768398D01*
X141452197Y-88800855D01*
X141452192Y-88800857D01*
X141279270Y-88877848D01*
X141279265Y-88877851D01*
X141126129Y-88989111D01*
X140999466Y-89129785D01*
X140904821Y-89293715D01*
X140904818Y-89293722D01*
X140860320Y-89430674D01*
X140846326Y-89473744D01*
X140826540Y-89662000D01*
X123543098Y-89662000D01*
X123466495Y-89552599D01*
X123344567Y-89430671D01*
X123311084Y-89369351D01*
X123316068Y-89299659D01*
X123357939Y-89243725D01*
X123388915Y-89226810D01*
X123520331Y-89177796D01*
X123635546Y-89091546D01*
X123721796Y-88976331D01*
X123772091Y-88841483D01*
X123778500Y-88781873D01*
X123778499Y-87562200D01*
X137075740Y-87562200D01*
X137095526Y-87750456D01*
X137095527Y-87750459D01*
X137154018Y-87930477D01*
X137154021Y-87930484D01*
X137248667Y-88094416D01*
X137333769Y-88188931D01*
X137375329Y-88235088D01*
X137528465Y-88346348D01*
X137528470Y-88346351D01*
X137701392Y-88423342D01*
X137701397Y-88423344D01*
X137886554Y-88462700D01*
X137886555Y-88462700D01*
X138075844Y-88462700D01*
X138075846Y-88462700D01*
X138261003Y-88423344D01*
X138433930Y-88346351D01*
X138587071Y-88235088D01*
X138595631Y-88225580D01*
X138655115Y-88188931D01*
X138724972Y-88190259D01*
X138783021Y-88229144D01*
X138810833Y-88293240D01*
X138811100Y-88295562D01*
X138814326Y-88326256D01*
X138814327Y-88326259D01*
X138872818Y-88506277D01*
X138872821Y-88506284D01*
X138967467Y-88670216D01*
X139068013Y-88781883D01*
X139094129Y-88810888D01*
X139247265Y-88922148D01*
X139247270Y-88922151D01*
X139420192Y-88999142D01*
X139420197Y-88999144D01*
X139605354Y-89038500D01*
X139605355Y-89038500D01*
X139794644Y-89038500D01*
X139794646Y-89038500D01*
X139979803Y-88999144D01*
X140152730Y-88922151D01*
X140305871Y-88810888D01*
X140432533Y-88670216D01*
X140527179Y-88506284D01*
X140585674Y-88326256D01*
X140605460Y-88138000D01*
X140605459Y-88137999D01*
X140605929Y-88133538D01*
X140632514Y-88068924D01*
X140689811Y-88028939D01*
X140729250Y-88022500D01*
X140810644Y-88022500D01*
X140810646Y-88022500D01*
X140995803Y-87983144D01*
X141168730Y-87906151D01*
X141321871Y-87794888D01*
X141448533Y-87654216D01*
X141543179Y-87490284D01*
X141555553Y-87452200D01*
X143743241Y-87452200D01*
X143763027Y-87640456D01*
X143763028Y-87640459D01*
X143821519Y-87820477D01*
X143821522Y-87820484D01*
X143916168Y-87984416D01*
X143956257Y-88028939D01*
X144042830Y-88125088D01*
X144195966Y-88236348D01*
X144195971Y-88236351D01*
X144368893Y-88313342D01*
X144368898Y-88313344D01*
X144554055Y-88352700D01*
X144554056Y-88352700D01*
X144743345Y-88352700D01*
X144743347Y-88352700D01*
X144928504Y-88313344D01*
X145101431Y-88236351D01*
X145254572Y-88125088D01*
X145381234Y-87984416D01*
X145475880Y-87820484D01*
X145534375Y-87640456D01*
X145554161Y-87452200D01*
X145534375Y-87263944D01*
X145475880Y-87083916D01*
X145381234Y-86919984D01*
X145254572Y-86779312D01*
X145254571Y-86779311D01*
X145101435Y-86668051D01*
X145101430Y-86668048D01*
X144928508Y-86591057D01*
X144928503Y-86591055D01*
X144782702Y-86560065D01*
X144743347Y-86551700D01*
X144554055Y-86551700D01*
X144521598Y-86558598D01*
X144368898Y-86591055D01*
X144368893Y-86591057D01*
X144195971Y-86668048D01*
X144195966Y-86668051D01*
X144042830Y-86779311D01*
X143916167Y-86919985D01*
X143821522Y-87083915D01*
X143821519Y-87083922D01*
X143771619Y-87237500D01*
X143763027Y-87263944D01*
X143743241Y-87452200D01*
X141555553Y-87452200D01*
X141601674Y-87310256D01*
X141621460Y-87122000D01*
X141601674Y-86933744D01*
X141543179Y-86753716D01*
X141448533Y-86589784D01*
X141321871Y-86449112D01*
X141280702Y-86419201D01*
X141168734Y-86337851D01*
X141168729Y-86337848D01*
X140995807Y-86260857D01*
X140995802Y-86260855D01*
X140825150Y-86224583D01*
X140810646Y-86221500D01*
X140621354Y-86221500D01*
X140606850Y-86224583D01*
X140436197Y-86260855D01*
X140436192Y-86260857D01*
X140263270Y-86337848D01*
X140263266Y-86337850D01*
X140212045Y-86375065D01*
X140146239Y-86398544D01*
X140078185Y-86382718D01*
X140029491Y-86332612D01*
X140015841Y-86287710D01*
X140009875Y-86230945D01*
X139951380Y-86050917D01*
X139951377Y-86050911D01*
X139948739Y-86044987D01*
X139951222Y-86043881D01*
X139937575Y-85987656D01*
X139960418Y-85921626D01*
X140015333Y-85878428D01*
X140042329Y-85871741D01*
X140042289Y-85871552D01*
X140047965Y-85870345D01*
X140048480Y-85870218D01*
X140048639Y-85870201D01*
X140048646Y-85870201D01*
X140233803Y-85830845D01*
X140406730Y-85753852D01*
X140481402Y-85699600D01*
X142096540Y-85699600D01*
X142116326Y-85887856D01*
X142116327Y-85887859D01*
X142174818Y-86067877D01*
X142174821Y-86067884D01*
X142269467Y-86231816D01*
X142364939Y-86337848D01*
X142396129Y-86372488D01*
X142549265Y-86483748D01*
X142549270Y-86483751D01*
X142722192Y-86560742D01*
X142722197Y-86560744D01*
X142907354Y-86600100D01*
X142907355Y-86600100D01*
X143096644Y-86600100D01*
X143096646Y-86600100D01*
X143281803Y-86560744D01*
X143454730Y-86483751D01*
X143607871Y-86372488D01*
X143734533Y-86231816D01*
X143829179Y-86067884D01*
X143887674Y-85887856D01*
X143907460Y-85699600D01*
X143887674Y-85511344D01*
X143829179Y-85331316D01*
X143734533Y-85167384D01*
X143607871Y-85026712D01*
X143564438Y-84995156D01*
X143454734Y-84915451D01*
X143454729Y-84915448D01*
X143281807Y-84838457D01*
X143281802Y-84838455D01*
X143136000Y-84807465D01*
X143096646Y-84799100D01*
X142907354Y-84799100D01*
X142874897Y-84805998D01*
X142722197Y-84838455D01*
X142722192Y-84838457D01*
X142549270Y-84915448D01*
X142549265Y-84915451D01*
X142396129Y-85026711D01*
X142269466Y-85167385D01*
X142174821Y-85331315D01*
X142174818Y-85331322D01*
X142119389Y-85501917D01*
X142116326Y-85511344D01*
X142096540Y-85699600D01*
X140481402Y-85699600D01*
X140559871Y-85642589D01*
X140686533Y-85501917D01*
X140781179Y-85337985D01*
X140839674Y-85157957D01*
X140859460Y-84969701D01*
X140839674Y-84781445D01*
X140781179Y-84601417D01*
X140686533Y-84437485D01*
X140559871Y-84296813D01*
X140559870Y-84296812D01*
X140406734Y-84185552D01*
X140406729Y-84185549D01*
X140233807Y-84108558D01*
X140233802Y-84108556D01*
X140088000Y-84077566D01*
X140048646Y-84069201D01*
X139859354Y-84069201D01*
X139826897Y-84076099D01*
X139674197Y-84108556D01*
X139674192Y-84108558D01*
X139501270Y-84185549D01*
X139501265Y-84185552D01*
X139348129Y-84296812D01*
X139221466Y-84437486D01*
X139126821Y-84601416D01*
X139126818Y-84601423D01*
X139068327Y-84781441D01*
X139068326Y-84781445D01*
X139048540Y-84969701D01*
X139068326Y-85157957D01*
X139068327Y-85157960D01*
X139126818Y-85337978D01*
X139129462Y-85343915D01*
X139126984Y-85345018D01*
X139140624Y-85401284D01*
X139117760Y-85467307D01*
X139062831Y-85510488D01*
X139035872Y-85517162D01*
X139035912Y-85517350D01*
X139030285Y-85518545D01*
X139029740Y-85518681D01*
X139029561Y-85518699D01*
X138844398Y-85558056D01*
X138844393Y-85558058D01*
X138671471Y-85635049D01*
X138671466Y-85635052D01*
X138518330Y-85746312D01*
X138391667Y-85886986D01*
X138297022Y-86050916D01*
X138297019Y-86050923D01*
X138241596Y-86221500D01*
X138238527Y-86230945D01*
X138221966Y-86388513D01*
X138218741Y-86419201D01*
X138230236Y-86528573D01*
X138217666Y-86597303D01*
X138169934Y-86648326D01*
X138102193Y-86665444D01*
X138081142Y-86662825D01*
X138075846Y-86661700D01*
X137886554Y-86661700D01*
X137868940Y-86665444D01*
X137701397Y-86701055D01*
X137701392Y-86701057D01*
X137528470Y-86778048D01*
X137528465Y-86778051D01*
X137375329Y-86889311D01*
X137248666Y-87029985D01*
X137154021Y-87193915D01*
X137154018Y-87193922D01*
X137102055Y-87353849D01*
X137095526Y-87373944D01*
X137075740Y-87562200D01*
X123778499Y-87562200D01*
X123778499Y-86986128D01*
X123772091Y-86926517D01*
X123769654Y-86919984D01*
X123721797Y-86791671D01*
X123721793Y-86791664D01*
X123635547Y-86676455D01*
X123635544Y-86676452D01*
X123520335Y-86590206D01*
X123520328Y-86590202D01*
X123385482Y-86539908D01*
X123385483Y-86539908D01*
X123325883Y-86533501D01*
X123325881Y-86533500D01*
X123325873Y-86533500D01*
X123325864Y-86533500D01*
X121530129Y-86533500D01*
X121530123Y-86533501D01*
X121470516Y-86539908D01*
X121335671Y-86590202D01*
X121335664Y-86590206D01*
X121220455Y-86676452D01*
X121220452Y-86676455D01*
X121134206Y-86791664D01*
X121134202Y-86791671D01*
X121083908Y-86926517D01*
X121079541Y-86967142D01*
X121077501Y-86986123D01*
X121077500Y-86986135D01*
X121077500Y-88781870D01*
X121077501Y-88781876D01*
X121083908Y-88841483D01*
X121134202Y-88976328D01*
X121134206Y-88976335D01*
X121220452Y-89091544D01*
X121220455Y-89091547D01*
X121335664Y-89177793D01*
X121335671Y-89177797D01*
X121467081Y-89226810D01*
X121523015Y-89268681D01*
X121547432Y-89334145D01*
X121532580Y-89402418D01*
X121511430Y-89430673D01*
X121389503Y-89552600D01*
X121253965Y-89746169D01*
X121253964Y-89746171D01*
X121154098Y-89960335D01*
X121154094Y-89960344D01*
X121092938Y-90188586D01*
X121092936Y-90188596D01*
X121072341Y-90423999D01*
X121072341Y-90424000D01*
X121092936Y-90659403D01*
X121092938Y-90659413D01*
X121154094Y-90887655D01*
X121154096Y-90887659D01*
X121154097Y-90887663D01*
X121210434Y-91008477D01*
X121253965Y-91101830D01*
X121253967Y-91101834D01*
X121389501Y-91295395D01*
X121389506Y-91295402D01*
X121556597Y-91462493D01*
X121556603Y-91462498D01*
X121742158Y-91592425D01*
X121785783Y-91647002D01*
X121792977Y-91716500D01*
X121761454Y-91778855D01*
X121742158Y-91795575D01*
X121556597Y-91925505D01*
X121389505Y-92092597D01*
X121253965Y-92286169D01*
X121253964Y-92286171D01*
X121154098Y-92500335D01*
X121154094Y-92500344D01*
X121092938Y-92728586D01*
X121092936Y-92728596D01*
X121072341Y-92963999D01*
X121072341Y-92964000D01*
X121092936Y-93199403D01*
X121092938Y-93199413D01*
X121154094Y-93427655D01*
X121154096Y-93427659D01*
X121154097Y-93427663D01*
X121253965Y-93641829D01*
X121253965Y-93641830D01*
X121253967Y-93641834D01*
X121389501Y-93835395D01*
X121389506Y-93835402D01*
X121556597Y-94002493D01*
X121556603Y-94002498D01*
X121742158Y-94132425D01*
X121785783Y-94187002D01*
X121792977Y-94256500D01*
X121761454Y-94318855D01*
X121742158Y-94335575D01*
X121556597Y-94465505D01*
X121389505Y-94632597D01*
X121253965Y-94826169D01*
X121253964Y-94826171D01*
X121154098Y-95040335D01*
X121154094Y-95040344D01*
X121092938Y-95268586D01*
X121092936Y-95268596D01*
X121072341Y-95503999D01*
X121072341Y-95504000D01*
X110617500Y-95504000D01*
X110617500Y-86106000D01*
X127491540Y-86106000D01*
X127511326Y-86294256D01*
X127511327Y-86294259D01*
X127569818Y-86474277D01*
X127569821Y-86474284D01*
X127664467Y-86638216D01*
X127771240Y-86756799D01*
X127791129Y-86778888D01*
X127944265Y-86890148D01*
X127944270Y-86890151D01*
X128117192Y-86967142D01*
X128117197Y-86967144D01*
X128302354Y-87006500D01*
X128302355Y-87006500D01*
X128491644Y-87006500D01*
X128491646Y-87006500D01*
X128676803Y-86967144D01*
X128849730Y-86890151D01*
X129002871Y-86778888D01*
X129093293Y-86678463D01*
X129152780Y-86641815D01*
X129222637Y-86643146D01*
X129235879Y-86648157D01*
X129391491Y-86717441D01*
X129391496Y-86717443D01*
X129576653Y-86756799D01*
X129576654Y-86756799D01*
X129765943Y-86756799D01*
X129765945Y-86756799D01*
X129951102Y-86717443D01*
X130124029Y-86640450D01*
X130277170Y-86529187D01*
X130403832Y-86388515D01*
X130498478Y-86224583D01*
X130556973Y-86044555D01*
X130576759Y-85856299D01*
X130576084Y-85849878D01*
X130588650Y-85781150D01*
X130635543Y-85731018D01*
X130612472Y-85723278D01*
X130734751Y-85723278D01*
X130770362Y-85735224D01*
X130814076Y-85789729D01*
X130817335Y-85798596D01*
X130871818Y-85966277D01*
X130871821Y-85966284D01*
X130966467Y-86130216D01*
X131084095Y-86260855D01*
X131093129Y-86270888D01*
X131246265Y-86382148D01*
X131246270Y-86382151D01*
X131419192Y-86459142D01*
X131419197Y-86459144D01*
X131604354Y-86498500D01*
X131604355Y-86498500D01*
X131793644Y-86498500D01*
X131793646Y-86498500D01*
X131978803Y-86459144D01*
X132151730Y-86382151D01*
X132304871Y-86270888D01*
X132431533Y-86130216D01*
X132526179Y-85966284D01*
X132584674Y-85786256D01*
X132604460Y-85598000D01*
X132584674Y-85409744D01*
X132526179Y-85229716D01*
X132431533Y-85065784D01*
X132304871Y-84925112D01*
X132291570Y-84915448D01*
X132151734Y-84813851D01*
X132151729Y-84813848D01*
X131978807Y-84736857D01*
X131978802Y-84736855D01*
X131833001Y-84705865D01*
X131793646Y-84697500D01*
X131604354Y-84697500D01*
X131571897Y-84704398D01*
X131419197Y-84736855D01*
X131419192Y-84736857D01*
X131246270Y-84813848D01*
X131246265Y-84813851D01*
X131093129Y-84925111D01*
X130966466Y-85065785D01*
X130871821Y-85229715D01*
X130871818Y-85229722D01*
X130826863Y-85368081D01*
X130813326Y-85409744D01*
X130801385Y-85523362D01*
X130793540Y-85598002D01*
X130794215Y-85604426D01*
X130781644Y-85673155D01*
X130734751Y-85723278D01*
X130612472Y-85723278D01*
X130599929Y-85719070D01*
X130556219Y-85664561D01*
X130552963Y-85655702D01*
X130546253Y-85635052D01*
X130526346Y-85573784D01*
X130498480Y-85488020D01*
X130498477Y-85488014D01*
X130486522Y-85467307D01*
X130403832Y-85324083D01*
X130277170Y-85183411D01*
X130277169Y-85183410D01*
X130124033Y-85072150D01*
X130124028Y-85072147D01*
X129951106Y-84995156D01*
X129951101Y-84995154D01*
X129805300Y-84964164D01*
X129765945Y-84955799D01*
X129576653Y-84955799D01*
X129544196Y-84962697D01*
X129391496Y-84995154D01*
X129391491Y-84995156D01*
X129218569Y-85072147D01*
X129218564Y-85072150D01*
X129065428Y-85183410D01*
X129065427Y-85183411D01*
X128975004Y-85283835D01*
X128915517Y-85320483D01*
X128845660Y-85319152D01*
X128832419Y-85314141D01*
X128676807Y-85244857D01*
X128676802Y-85244855D01*
X128531000Y-85213865D01*
X128491646Y-85205500D01*
X128302354Y-85205500D01*
X128269897Y-85212398D01*
X128117197Y-85244855D01*
X128117192Y-85244857D01*
X127944270Y-85321848D01*
X127944265Y-85321851D01*
X127791129Y-85433111D01*
X127664466Y-85573785D01*
X127569821Y-85737715D01*
X127569818Y-85737722D01*
X127521320Y-85886985D01*
X127511326Y-85917744D01*
X127491540Y-86106000D01*
X110617500Y-86106000D01*
X110617500Y-82423000D01*
X127999540Y-82423000D01*
X128019326Y-82611256D01*
X128019327Y-82611259D01*
X128077818Y-82791277D01*
X128077821Y-82791284D01*
X128172467Y-82955216D01*
X128299128Y-83095888D01*
X128299129Y-83095888D01*
X128452265Y-83207148D01*
X128452270Y-83207151D01*
X128625192Y-83284142D01*
X128625197Y-83284144D01*
X128810354Y-83323500D01*
X128810355Y-83323500D01*
X128999644Y-83323500D01*
X128999646Y-83323500D01*
X129184803Y-83284144D01*
X129357730Y-83207151D01*
X129510871Y-83095888D01*
X129637533Y-82955216D01*
X129732179Y-82791284D01*
X129790674Y-82611256D01*
X129810460Y-82423000D01*
X129790674Y-82234744D01*
X129732179Y-82054716D01*
X129715294Y-82025470D01*
X161620900Y-82025470D01*
X161620901Y-82025476D01*
X161627308Y-82085083D01*
X161677602Y-82219928D01*
X161677606Y-82219935D01*
X161763852Y-82335144D01*
X161763855Y-82335147D01*
X161879064Y-82421393D01*
X161879071Y-82421397D01*
X162013917Y-82471691D01*
X162013916Y-82471691D01*
X162020844Y-82472435D01*
X162073527Y-82478100D01*
X163869272Y-82478099D01*
X163928883Y-82471691D01*
X164063731Y-82421396D01*
X164178946Y-82335146D01*
X164265196Y-82219931D01*
X164315491Y-82085083D01*
X164321900Y-82025473D01*
X164321899Y-80480200D01*
X174151340Y-80480200D01*
X174171126Y-80668456D01*
X174171127Y-80668459D01*
X174229618Y-80848477D01*
X174229621Y-80848484D01*
X174324267Y-81012416D01*
X174450928Y-81153088D01*
X174450929Y-81153088D01*
X174604065Y-81264348D01*
X174604070Y-81264351D01*
X174776992Y-81341342D01*
X174776997Y-81341344D01*
X174962154Y-81380700D01*
X174962155Y-81380700D01*
X175151444Y-81380700D01*
X175151446Y-81380700D01*
X175336603Y-81341344D01*
X175509530Y-81264351D01*
X175662671Y-81153088D01*
X175789333Y-81012416D01*
X175883979Y-80848484D01*
X175942474Y-80668456D01*
X175962260Y-80480200D01*
X175942474Y-80291944D01*
X175883979Y-80111916D01*
X175789333Y-79947984D01*
X175662671Y-79807312D01*
X175629909Y-79783509D01*
X175509534Y-79696051D01*
X175509529Y-79696048D01*
X175336607Y-79619057D01*
X175336602Y-79619055D01*
X175190801Y-79588065D01*
X175151446Y-79579700D01*
X174962154Y-79579700D01*
X174929697Y-79586598D01*
X174776997Y-79619055D01*
X174776992Y-79619057D01*
X174604070Y-79696048D01*
X174604065Y-79696051D01*
X174450929Y-79807311D01*
X174324266Y-79947985D01*
X174229621Y-80111915D01*
X174229618Y-80111922D01*
X174171127Y-80291940D01*
X174171126Y-80291944D01*
X174151340Y-80480200D01*
X164321899Y-80480200D01*
X164321899Y-80229728D01*
X164315491Y-80170117D01*
X164293783Y-80111916D01*
X164265197Y-80035271D01*
X164265193Y-80035264D01*
X164178947Y-79920055D01*
X164178944Y-79920052D01*
X164063735Y-79833806D01*
X164063728Y-79833802D01*
X163928882Y-79783508D01*
X163928883Y-79783508D01*
X163869283Y-79777101D01*
X163869281Y-79777100D01*
X163869273Y-79777100D01*
X163869264Y-79777100D01*
X162073529Y-79777100D01*
X162073523Y-79777101D01*
X162013916Y-79783508D01*
X161879071Y-79833802D01*
X161879064Y-79833806D01*
X161763855Y-79920052D01*
X161763852Y-79920055D01*
X161677606Y-80035264D01*
X161677602Y-80035271D01*
X161627308Y-80170117D01*
X161620901Y-80229716D01*
X161620901Y-80229723D01*
X161620900Y-80229735D01*
X161620900Y-82025470D01*
X129715294Y-82025470D01*
X129637533Y-81890784D01*
X129510871Y-81750112D01*
X129510870Y-81750111D01*
X129357734Y-81638851D01*
X129357729Y-81638848D01*
X129184807Y-81561857D01*
X129184802Y-81561855D01*
X129039001Y-81530865D01*
X128999646Y-81522500D01*
X128810354Y-81522500D01*
X128777897Y-81529398D01*
X128625197Y-81561855D01*
X128625192Y-81561857D01*
X128452270Y-81638848D01*
X128452265Y-81638851D01*
X128299129Y-81750111D01*
X128172466Y-81890785D01*
X128077821Y-82054715D01*
X128077818Y-82054722D01*
X128019327Y-82234740D01*
X128019326Y-82234744D01*
X127999540Y-82423000D01*
X110617500Y-82423000D01*
X110617500Y-79832200D01*
X151799740Y-79832200D01*
X151819526Y-80020456D01*
X151819527Y-80020459D01*
X151878018Y-80200477D01*
X151878021Y-80200484D01*
X151972667Y-80364416D01*
X152076920Y-80480200D01*
X152099329Y-80505088D01*
X152252465Y-80616348D01*
X152252470Y-80616351D01*
X152425392Y-80693342D01*
X152425397Y-80693344D01*
X152610554Y-80732700D01*
X152610555Y-80732700D01*
X152799844Y-80732700D01*
X152799846Y-80732700D01*
X152985003Y-80693344D01*
X153157930Y-80616351D01*
X153311071Y-80505088D01*
X153437733Y-80364416D01*
X153532379Y-80200484D01*
X153590874Y-80020456D01*
X153610660Y-79832200D01*
X153590874Y-79643944D01*
X153532379Y-79463916D01*
X153437733Y-79299984D01*
X153311071Y-79159312D01*
X153311070Y-79159311D01*
X153157934Y-79048051D01*
X153157929Y-79048048D01*
X152985007Y-78971057D01*
X152985002Y-78971055D01*
X152839201Y-78940065D01*
X152799846Y-78931700D01*
X152610554Y-78931700D01*
X152578097Y-78938598D01*
X152425397Y-78971055D01*
X152425392Y-78971057D01*
X152252470Y-79048048D01*
X152252465Y-79048051D01*
X152099329Y-79159311D01*
X151972666Y-79299985D01*
X151878021Y-79463915D01*
X151878018Y-79463922D01*
X151827612Y-79619057D01*
X151819526Y-79643944D01*
X151799740Y-79832200D01*
X110617500Y-79832200D01*
X110617500Y-77851000D01*
X126094540Y-77851000D01*
X126114326Y-78039256D01*
X126114327Y-78039259D01*
X126172818Y-78219277D01*
X126172821Y-78219284D01*
X126267467Y-78383216D01*
X126394129Y-78523887D01*
X126394129Y-78523888D01*
X126547265Y-78635148D01*
X126547270Y-78635151D01*
X126720192Y-78712142D01*
X126720197Y-78712144D01*
X126905354Y-78751500D01*
X126905355Y-78751500D01*
X127094644Y-78751500D01*
X127094646Y-78751500D01*
X127279803Y-78712144D01*
X127452730Y-78635151D01*
X127586626Y-78537870D01*
X182174500Y-78537870D01*
X182174501Y-78537876D01*
X182180908Y-78597483D01*
X182231202Y-78732328D01*
X182231206Y-78732335D01*
X182317452Y-78847544D01*
X182317455Y-78847547D01*
X182432664Y-78933793D01*
X182432671Y-78933797D01*
X182567517Y-78984091D01*
X182567516Y-78984091D01*
X182574444Y-78984835D01*
X182627127Y-78990500D01*
X184822872Y-78990499D01*
X184882483Y-78984091D01*
X185017331Y-78933796D01*
X185132546Y-78847546D01*
X185218796Y-78732331D01*
X185269091Y-78597483D01*
X185275500Y-78537873D01*
X185275499Y-76342128D01*
X185269091Y-76282517D01*
X185218796Y-76147669D01*
X185218795Y-76147668D01*
X185218793Y-76147664D01*
X185132547Y-76032455D01*
X185132544Y-76032452D01*
X185017335Y-75946206D01*
X185017328Y-75946202D01*
X184882482Y-75895908D01*
X184882483Y-75895908D01*
X184822883Y-75889501D01*
X184822881Y-75889500D01*
X184822873Y-75889500D01*
X184822864Y-75889500D01*
X182627129Y-75889500D01*
X182627123Y-75889501D01*
X182567516Y-75895908D01*
X182432671Y-75946202D01*
X182432664Y-75946206D01*
X182317455Y-76032452D01*
X182317452Y-76032455D01*
X182231206Y-76147664D01*
X182231202Y-76147671D01*
X182180908Y-76282517D01*
X182176126Y-76327000D01*
X182174501Y-76342123D01*
X182174500Y-76342135D01*
X182174500Y-78537870D01*
X127586626Y-78537870D01*
X127605871Y-78523888D01*
X127732533Y-78383216D01*
X127827179Y-78219284D01*
X127885674Y-78039256D01*
X127905460Y-77851000D01*
X127885674Y-77662744D01*
X127827179Y-77482716D01*
X127732533Y-77318784D01*
X127605871Y-77178112D01*
X127605870Y-77178111D01*
X127452734Y-77066851D01*
X127452729Y-77066848D01*
X127279807Y-76989857D01*
X127279802Y-76989855D01*
X127134000Y-76958865D01*
X127094646Y-76950500D01*
X126905354Y-76950500D01*
X126872897Y-76957398D01*
X126720197Y-76989855D01*
X126720192Y-76989857D01*
X126547270Y-77066848D01*
X126547265Y-77066851D01*
X126394129Y-77178111D01*
X126267466Y-77318785D01*
X126172821Y-77482715D01*
X126172818Y-77482722D01*
X126139819Y-77584284D01*
X126114326Y-77662744D01*
X126094540Y-77851000D01*
X110617500Y-77851000D01*
X110617500Y-76327000D01*
X127872540Y-76327000D01*
X127892326Y-76515256D01*
X127892327Y-76515259D01*
X127950818Y-76695277D01*
X127950821Y-76695284D01*
X128045467Y-76859216D01*
X128127660Y-76950500D01*
X128172129Y-76999888D01*
X128325265Y-77111148D01*
X128325270Y-77111151D01*
X128504134Y-77190788D01*
X128503464Y-77192290D01*
X128554355Y-77227079D01*
X128581562Y-77291434D01*
X128581693Y-77292623D01*
X128593426Y-77404256D01*
X128593427Y-77404259D01*
X128651918Y-77584277D01*
X128651921Y-77584284D01*
X128746567Y-77748216D01*
X128873228Y-77888888D01*
X128873229Y-77888888D01*
X129026365Y-78000148D01*
X129026370Y-78000151D01*
X129199292Y-78077142D01*
X129199297Y-78077144D01*
X129384454Y-78116500D01*
X129384455Y-78116500D01*
X129573744Y-78116500D01*
X129573746Y-78116500D01*
X129758903Y-78077144D01*
X129931830Y-78000151D01*
X130084971Y-77888888D01*
X130211633Y-77748216D01*
X130306279Y-77584284D01*
X130364774Y-77404256D01*
X130384560Y-77216000D01*
X130364774Y-77027744D01*
X130306279Y-76847716D01*
X130211633Y-76683784D01*
X130084971Y-76543112D01*
X130084970Y-76543111D01*
X129931834Y-76431851D01*
X129931829Y-76431848D01*
X129752966Y-76352212D01*
X129753633Y-76350712D01*
X129702733Y-76315908D01*
X129675535Y-76251549D01*
X129675419Y-76250499D01*
X129663674Y-76138744D01*
X129605179Y-75958716D01*
X129510533Y-75794784D01*
X129383871Y-75654112D01*
X129383870Y-75654111D01*
X129230734Y-75542851D01*
X129230729Y-75542848D01*
X129057807Y-75465857D01*
X129057802Y-75465855D01*
X128912001Y-75434865D01*
X128872646Y-75426500D01*
X128683354Y-75426500D01*
X128650897Y-75433398D01*
X128498197Y-75465855D01*
X128498192Y-75465857D01*
X128325270Y-75542848D01*
X128325265Y-75542851D01*
X128172129Y-75654111D01*
X128045466Y-75794785D01*
X127950821Y-75958715D01*
X127950818Y-75958722D01*
X127892327Y-76138740D01*
X127892326Y-76138744D01*
X127872540Y-76327000D01*
X110617500Y-76327000D01*
X110617500Y-73660000D01*
X125967540Y-73660000D01*
X125987326Y-73848256D01*
X125987327Y-73848259D01*
X126045818Y-74028277D01*
X126045821Y-74028284D01*
X126140467Y-74192216D01*
X126207931Y-74267142D01*
X126267129Y-74332888D01*
X126420265Y-74444148D01*
X126420270Y-74444151D01*
X126593192Y-74521142D01*
X126593197Y-74521144D01*
X126778354Y-74560500D01*
X126778355Y-74560500D01*
X126967644Y-74560500D01*
X126967646Y-74560500D01*
X127152803Y-74521144D01*
X127325730Y-74444151D01*
X127478871Y-74332888D01*
X127605533Y-74192216D01*
X127700179Y-74028284D01*
X127758674Y-73848256D01*
X127778460Y-73660000D01*
X127758674Y-73471744D01*
X127737312Y-73406000D01*
X137905540Y-73406000D01*
X137925326Y-73594256D01*
X137925327Y-73594259D01*
X137983818Y-73774277D01*
X137983821Y-73774284D01*
X138078467Y-73938216D01*
X138159559Y-74028277D01*
X138205129Y-74078888D01*
X138358265Y-74190148D01*
X138358270Y-74190151D01*
X138531192Y-74267142D01*
X138531197Y-74267144D01*
X138716354Y-74306500D01*
X138716355Y-74306500D01*
X138905644Y-74306500D01*
X138905646Y-74306500D01*
X139090803Y-74267144D01*
X139263730Y-74190151D01*
X139416871Y-74078888D01*
X139543533Y-73938216D01*
X139638179Y-73774284D01*
X139696674Y-73594256D01*
X139716460Y-73406000D01*
X139696674Y-73217744D01*
X139638179Y-73037716D01*
X139543533Y-72873784D01*
X139416871Y-72733112D01*
X139416870Y-72733111D01*
X139263734Y-72621851D01*
X139263729Y-72621848D01*
X139090807Y-72544857D01*
X139090802Y-72544855D01*
X138945001Y-72513865D01*
X138905646Y-72505500D01*
X138716354Y-72505500D01*
X138683897Y-72512398D01*
X138531197Y-72544855D01*
X138531192Y-72544857D01*
X138358270Y-72621848D01*
X138358265Y-72621851D01*
X138205129Y-72733111D01*
X138078466Y-72873785D01*
X137983821Y-73037715D01*
X137983818Y-73037722D01*
X137925327Y-73217740D01*
X137925326Y-73217744D01*
X137905540Y-73406000D01*
X127737312Y-73406000D01*
X127700179Y-73291716D01*
X127605533Y-73127784D01*
X127478871Y-72987112D01*
X127478870Y-72987111D01*
X127325734Y-72875851D01*
X127325729Y-72875848D01*
X127152807Y-72798857D01*
X127152802Y-72798855D01*
X127007001Y-72767865D01*
X126967646Y-72759500D01*
X126778354Y-72759500D01*
X126745897Y-72766398D01*
X126593197Y-72798855D01*
X126593192Y-72798857D01*
X126420270Y-72875848D01*
X126420265Y-72875851D01*
X126267129Y-72987111D01*
X126140466Y-73127785D01*
X126045821Y-73291715D01*
X126045818Y-73291722D01*
X125987327Y-73471740D01*
X125987326Y-73471744D01*
X125967540Y-73660000D01*
X110617500Y-73660000D01*
X110617500Y-69672200D01*
X165667740Y-69672200D01*
X165687526Y-69860456D01*
X165687527Y-69860459D01*
X165746018Y-70040477D01*
X165746021Y-70040484D01*
X165840667Y-70204416D01*
X165967328Y-70345088D01*
X165967329Y-70345088D01*
X166120465Y-70456348D01*
X166120470Y-70456351D01*
X166293392Y-70533342D01*
X166293397Y-70533344D01*
X166478554Y-70572700D01*
X166478555Y-70572700D01*
X166667844Y-70572700D01*
X166667846Y-70572700D01*
X166853003Y-70533344D01*
X167025930Y-70456351D01*
X167179071Y-70345088D01*
X167305733Y-70204416D01*
X167400379Y-70040484D01*
X167458874Y-69860456D01*
X167478660Y-69672200D01*
X167458874Y-69483944D01*
X167400379Y-69303916D01*
X167305733Y-69139984D01*
X167179071Y-68999312D01*
X167179070Y-68999311D01*
X167025934Y-68888051D01*
X167025929Y-68888048D01*
X166853007Y-68811057D01*
X166853002Y-68811055D01*
X166707200Y-68780065D01*
X166667846Y-68771700D01*
X166478554Y-68771700D01*
X166446097Y-68778598D01*
X166293397Y-68811055D01*
X166293392Y-68811057D01*
X166120470Y-68888048D01*
X166120465Y-68888051D01*
X165967329Y-68999311D01*
X165840666Y-69139985D01*
X165746021Y-69303915D01*
X165746018Y-69303922D01*
X165687527Y-69483940D01*
X165687526Y-69483944D01*
X165667740Y-69672200D01*
X110617500Y-69672200D01*
X110617500Y-67065000D01*
X138869341Y-67065000D01*
X138889936Y-67300403D01*
X138889938Y-67300413D01*
X138951094Y-67528655D01*
X138951096Y-67528659D01*
X138951097Y-67528663D01*
X139050965Y-67742829D01*
X139050965Y-67742830D01*
X139050967Y-67742834D01*
X139159281Y-67897521D01*
X139186505Y-67936401D01*
X139353599Y-68103495D01*
X139450384Y-68171264D01*
X139547165Y-68239032D01*
X139547167Y-68239033D01*
X139547170Y-68239035D01*
X139761337Y-68338903D01*
X139989592Y-68400063D01*
X140177918Y-68416539D01*
X140224999Y-68420659D01*
X140225000Y-68420659D01*
X140225001Y-68420659D01*
X140264234Y-68417226D01*
X140460408Y-68400063D01*
X140688663Y-68338903D01*
X140902830Y-68239035D01*
X141096401Y-68103495D01*
X141263495Y-67936401D01*
X141399035Y-67742830D01*
X141498903Y-67528663D01*
X141560063Y-67300408D01*
X141580659Y-67065000D01*
X141560063Y-66829592D01*
X141498903Y-66601337D01*
X141399035Y-66387171D01*
X141324755Y-66281088D01*
X141263496Y-66193600D01*
X141210310Y-66140414D01*
X141141567Y-66071671D01*
X141108084Y-66010351D01*
X141113068Y-65940659D01*
X141154939Y-65884725D01*
X141185915Y-65867810D01*
X141317331Y-65818796D01*
X141432546Y-65732546D01*
X141518796Y-65617331D01*
X141522202Y-65608200D01*
X171865740Y-65608200D01*
X171885526Y-65796456D01*
X171885527Y-65796459D01*
X171944018Y-65976477D01*
X171944021Y-65976484D01*
X172038667Y-66140416D01*
X172165328Y-66281088D01*
X172165329Y-66281088D01*
X172318465Y-66392348D01*
X172318470Y-66392351D01*
X172491392Y-66469342D01*
X172491397Y-66469344D01*
X172676554Y-66508700D01*
X172676555Y-66508700D01*
X172865844Y-66508700D01*
X172865846Y-66508700D01*
X173051003Y-66469344D01*
X173223930Y-66392351D01*
X173377071Y-66281088D01*
X173503733Y-66140416D01*
X173598379Y-65976484D01*
X173656874Y-65796456D01*
X173676660Y-65608200D01*
X173656874Y-65419944D01*
X173598379Y-65239916D01*
X173503733Y-65075984D01*
X173377071Y-64935312D01*
X173377070Y-64935311D01*
X173223934Y-64824051D01*
X173223929Y-64824048D01*
X173051007Y-64747057D01*
X173051002Y-64747055D01*
X172905201Y-64716065D01*
X172865846Y-64707700D01*
X172676554Y-64707700D01*
X172644097Y-64714598D01*
X172491397Y-64747055D01*
X172491392Y-64747057D01*
X172318470Y-64824048D01*
X172318465Y-64824051D01*
X172165329Y-64935311D01*
X172038666Y-65075985D01*
X171944021Y-65239915D01*
X171944018Y-65239922D01*
X171885527Y-65419940D01*
X171885526Y-65419944D01*
X171865740Y-65608200D01*
X141522202Y-65608200D01*
X141569091Y-65482483D01*
X141575500Y-65422873D01*
X141575499Y-63971070D01*
X164460700Y-63971070D01*
X164460701Y-63971076D01*
X164467108Y-64030683D01*
X164517402Y-64165528D01*
X164517406Y-64165535D01*
X164603652Y-64280744D01*
X164603655Y-64280747D01*
X164718864Y-64366993D01*
X164718871Y-64366997D01*
X164853717Y-64417291D01*
X164853716Y-64417291D01*
X164860644Y-64418035D01*
X164913327Y-64423700D01*
X166709072Y-64423699D01*
X166768683Y-64417291D01*
X166903531Y-64366996D01*
X167018746Y-64280746D01*
X167104996Y-64165531D01*
X167155291Y-64030683D01*
X167161700Y-63971073D01*
X167161699Y-62175328D01*
X167155291Y-62115717D01*
X167150547Y-62102999D01*
X167104997Y-61980871D01*
X167104993Y-61980864D01*
X167018747Y-61865655D01*
X167018744Y-61865652D01*
X166903535Y-61779406D01*
X166903528Y-61779402D01*
X166768682Y-61729108D01*
X166768683Y-61729108D01*
X166709083Y-61722701D01*
X166709081Y-61722700D01*
X166709073Y-61722700D01*
X166709064Y-61722700D01*
X164913329Y-61722700D01*
X164913323Y-61722701D01*
X164853716Y-61729108D01*
X164718871Y-61779402D01*
X164718864Y-61779406D01*
X164603655Y-61865652D01*
X164603652Y-61865655D01*
X164517406Y-61980864D01*
X164517402Y-61980871D01*
X164467108Y-62115717D01*
X164460701Y-62175316D01*
X164460701Y-62175323D01*
X164460700Y-62175335D01*
X164460700Y-63971070D01*
X141575499Y-63971070D01*
X141575499Y-63627128D01*
X141569091Y-63567517D01*
X141554298Y-63527856D01*
X141518797Y-63432671D01*
X141518793Y-63432664D01*
X141432547Y-63317455D01*
X141432544Y-63317452D01*
X141317335Y-63231206D01*
X141317328Y-63231202D01*
X141182482Y-63180908D01*
X141182483Y-63180908D01*
X141122883Y-63174501D01*
X141122881Y-63174500D01*
X141122873Y-63174500D01*
X141122864Y-63174500D01*
X139327129Y-63174500D01*
X139327123Y-63174501D01*
X139267516Y-63180908D01*
X139132671Y-63231202D01*
X139132664Y-63231206D01*
X139017455Y-63317452D01*
X139017452Y-63317455D01*
X138931206Y-63432664D01*
X138931202Y-63432671D01*
X138880908Y-63567517D01*
X138876895Y-63604848D01*
X138874501Y-63627123D01*
X138874500Y-63627135D01*
X138874500Y-65422870D01*
X138874501Y-65422876D01*
X138880908Y-65482483D01*
X138931202Y-65617328D01*
X138931206Y-65617335D01*
X139017452Y-65732544D01*
X139017455Y-65732547D01*
X139132664Y-65818793D01*
X139132671Y-65818797D01*
X139264081Y-65867810D01*
X139320015Y-65909681D01*
X139344432Y-65975145D01*
X139329580Y-66043418D01*
X139308430Y-66071673D01*
X139186503Y-66193600D01*
X139050965Y-66387169D01*
X139050964Y-66387171D01*
X138951098Y-66601335D01*
X138951094Y-66601344D01*
X138889938Y-66829586D01*
X138889936Y-66829596D01*
X138869341Y-67064999D01*
X138869341Y-67065000D01*
X110617500Y-67065000D01*
X110617500Y-64262000D01*
X126729540Y-64262000D01*
X126749326Y-64450256D01*
X126749327Y-64450259D01*
X126807818Y-64630277D01*
X126807821Y-64630284D01*
X126902467Y-64794216D01*
X126929329Y-64824049D01*
X127029129Y-64934888D01*
X127182265Y-65046148D01*
X127182270Y-65046151D01*
X127355192Y-65123142D01*
X127355197Y-65123144D01*
X127540354Y-65162500D01*
X127540355Y-65162500D01*
X127729644Y-65162500D01*
X127729646Y-65162500D01*
X127914803Y-65123144D01*
X128087730Y-65046151D01*
X128240871Y-64934888D01*
X128367533Y-64794216D01*
X128462179Y-64630284D01*
X128520674Y-64450256D01*
X128527112Y-64389000D01*
X131174540Y-64389000D01*
X131194326Y-64577256D01*
X131194327Y-64577259D01*
X131252818Y-64757277D01*
X131252821Y-64757284D01*
X131347467Y-64921216D01*
X131459957Y-65046148D01*
X131474129Y-65061888D01*
X131627265Y-65173148D01*
X131627270Y-65173151D01*
X131800192Y-65250142D01*
X131800197Y-65250144D01*
X131985354Y-65289500D01*
X131985355Y-65289500D01*
X132174644Y-65289500D01*
X132174646Y-65289500D01*
X132359803Y-65250144D01*
X132532730Y-65173151D01*
X132685871Y-65061888D01*
X132812533Y-64921216D01*
X132907179Y-64757284D01*
X132965674Y-64577256D01*
X132985460Y-64389000D01*
X132965674Y-64200744D01*
X132911112Y-64032823D01*
X132907181Y-64020722D01*
X132907180Y-64020721D01*
X132907179Y-64020716D01*
X132812533Y-63856784D01*
X132685871Y-63716112D01*
X132685870Y-63716111D01*
X132532734Y-63604851D01*
X132532729Y-63604848D01*
X132359807Y-63527857D01*
X132359802Y-63527855D01*
X132214001Y-63496865D01*
X132174646Y-63488500D01*
X131985354Y-63488500D01*
X131952897Y-63495398D01*
X131800197Y-63527855D01*
X131800192Y-63527857D01*
X131627270Y-63604848D01*
X131627265Y-63604851D01*
X131474129Y-63716111D01*
X131347466Y-63856785D01*
X131252821Y-64020715D01*
X131252818Y-64020722D01*
X131205768Y-64165528D01*
X131194326Y-64200744D01*
X131174540Y-64389000D01*
X128527112Y-64389000D01*
X128540460Y-64262000D01*
X128520674Y-64073744D01*
X128462179Y-63893716D01*
X128367533Y-63729784D01*
X128240871Y-63589112D01*
X128211147Y-63567516D01*
X128087734Y-63477851D01*
X128087729Y-63477848D01*
X127914807Y-63400857D01*
X127914802Y-63400855D01*
X127769000Y-63369865D01*
X127729646Y-63361500D01*
X127540354Y-63361500D01*
X127507897Y-63368398D01*
X127355197Y-63400855D01*
X127355192Y-63400857D01*
X127182270Y-63477848D01*
X127182265Y-63477851D01*
X127029129Y-63589111D01*
X126902466Y-63729785D01*
X126807821Y-63893715D01*
X126807818Y-63893722D01*
X126763317Y-64030683D01*
X126749326Y-64073744D01*
X126729540Y-64262000D01*
X110617500Y-64262000D01*
X110617500Y-62103000D01*
X148065540Y-62103000D01*
X148085326Y-62291256D01*
X148085327Y-62291259D01*
X148143818Y-62471277D01*
X148143821Y-62471284D01*
X148238467Y-62635216D01*
X148365129Y-62775888D01*
X148518265Y-62887148D01*
X148518270Y-62887151D01*
X148691192Y-62964142D01*
X148691197Y-62964144D01*
X148876354Y-63003500D01*
X148876355Y-63003500D01*
X149065644Y-63003500D01*
X149065646Y-63003500D01*
X149250803Y-62964144D01*
X149423730Y-62887151D01*
X149576871Y-62775888D01*
X149703533Y-62635216D01*
X149798179Y-62471284D01*
X149856674Y-62291256D01*
X149876460Y-62103000D01*
X151240540Y-62103000D01*
X151260326Y-62291256D01*
X151260327Y-62291259D01*
X151318818Y-62471277D01*
X151318821Y-62471284D01*
X151413467Y-62635216D01*
X151540129Y-62775888D01*
X151693265Y-62887148D01*
X151693270Y-62887151D01*
X151866192Y-62964142D01*
X151866197Y-62964144D01*
X152051354Y-63003500D01*
X152051355Y-63003500D01*
X152240644Y-63003500D01*
X152240646Y-63003500D01*
X152425803Y-62964144D01*
X152598730Y-62887151D01*
X152751871Y-62775888D01*
X152878533Y-62635216D01*
X152973179Y-62471284D01*
X153031674Y-62291256D01*
X153051460Y-62103000D01*
X154415540Y-62103000D01*
X154435326Y-62291256D01*
X154435327Y-62291259D01*
X154493818Y-62471277D01*
X154493821Y-62471284D01*
X154588467Y-62635216D01*
X154715129Y-62775888D01*
X154868265Y-62887148D01*
X154868270Y-62887151D01*
X155041192Y-62964142D01*
X155041197Y-62964144D01*
X155226354Y-63003500D01*
X155226355Y-63003500D01*
X155415644Y-63003500D01*
X155415646Y-63003500D01*
X155600803Y-62964144D01*
X155773730Y-62887151D01*
X155926871Y-62775888D01*
X156053533Y-62635216D01*
X156148179Y-62471284D01*
X156206674Y-62291256D01*
X156226460Y-62103000D01*
X157971540Y-62103000D01*
X157991326Y-62291256D01*
X157991327Y-62291259D01*
X158049818Y-62471277D01*
X158049821Y-62471284D01*
X158144467Y-62635216D01*
X158271129Y-62775888D01*
X158424265Y-62887148D01*
X158424270Y-62887151D01*
X158597192Y-62964142D01*
X158597197Y-62964144D01*
X158782354Y-63003500D01*
X158782355Y-63003500D01*
X158971644Y-63003500D01*
X158971646Y-63003500D01*
X159156803Y-62964144D01*
X159329730Y-62887151D01*
X159482871Y-62775888D01*
X159609533Y-62635216D01*
X159704179Y-62471284D01*
X159762674Y-62291256D01*
X159782460Y-62103000D01*
X159762674Y-61914744D01*
X159704179Y-61734716D01*
X159609533Y-61570784D01*
X159482871Y-61430112D01*
X159482870Y-61430111D01*
X159329734Y-61318851D01*
X159329729Y-61318848D01*
X159156807Y-61241857D01*
X159156802Y-61241855D01*
X159011001Y-61210865D01*
X158971646Y-61202500D01*
X158782354Y-61202500D01*
X158749897Y-61209398D01*
X158597197Y-61241855D01*
X158597192Y-61241857D01*
X158424270Y-61318848D01*
X158424265Y-61318851D01*
X158271129Y-61430111D01*
X158144466Y-61570785D01*
X158049821Y-61734715D01*
X158049818Y-61734722D01*
X158007277Y-61865652D01*
X157991326Y-61914744D01*
X157971540Y-62103000D01*
X156226460Y-62103000D01*
X156206674Y-61914744D01*
X156148179Y-61734716D01*
X156053533Y-61570784D01*
X155926871Y-61430112D01*
X155926870Y-61430111D01*
X155773734Y-61318851D01*
X155773729Y-61318848D01*
X155600807Y-61241857D01*
X155600802Y-61241855D01*
X155455000Y-61210865D01*
X155415646Y-61202500D01*
X155226354Y-61202500D01*
X155193897Y-61209398D01*
X155041197Y-61241855D01*
X155041192Y-61241857D01*
X154868270Y-61318848D01*
X154868265Y-61318851D01*
X154715129Y-61430111D01*
X154588466Y-61570785D01*
X154493821Y-61734715D01*
X154493818Y-61734722D01*
X154451277Y-61865652D01*
X154435326Y-61914744D01*
X154415540Y-62103000D01*
X153051460Y-62103000D01*
X153031674Y-61914744D01*
X152973179Y-61734716D01*
X152878533Y-61570784D01*
X152751871Y-61430112D01*
X152751870Y-61430111D01*
X152598734Y-61318851D01*
X152598729Y-61318848D01*
X152425807Y-61241857D01*
X152425802Y-61241855D01*
X152280000Y-61210865D01*
X152240646Y-61202500D01*
X152051354Y-61202500D01*
X152018897Y-61209398D01*
X151866197Y-61241855D01*
X151866192Y-61241857D01*
X151693270Y-61318848D01*
X151693265Y-61318851D01*
X151540129Y-61430111D01*
X151413466Y-61570785D01*
X151318821Y-61734715D01*
X151318818Y-61734722D01*
X151276277Y-61865652D01*
X151260326Y-61914744D01*
X151240540Y-62103000D01*
X149876460Y-62103000D01*
X149856674Y-61914744D01*
X149798179Y-61734716D01*
X149703533Y-61570784D01*
X149576871Y-61430112D01*
X149576870Y-61430111D01*
X149423734Y-61318851D01*
X149423729Y-61318848D01*
X149250807Y-61241857D01*
X149250802Y-61241855D01*
X149105001Y-61210865D01*
X149065646Y-61202500D01*
X148876354Y-61202500D01*
X148843897Y-61209398D01*
X148691197Y-61241855D01*
X148691192Y-61241857D01*
X148518270Y-61318848D01*
X148518265Y-61318851D01*
X148365129Y-61430111D01*
X148238466Y-61570785D01*
X148143821Y-61734715D01*
X148143818Y-61734722D01*
X148101277Y-61865652D01*
X148085326Y-61914744D01*
X148065540Y-62103000D01*
X110617500Y-62103000D01*
X110617500Y-58547000D01*
X126348540Y-58547000D01*
X126368326Y-58735256D01*
X126368327Y-58735259D01*
X126426818Y-58915277D01*
X126426821Y-58915284D01*
X126521467Y-59079216D01*
X126648128Y-59219887D01*
X126648129Y-59219888D01*
X126801265Y-59331148D01*
X126801270Y-59331151D01*
X126974192Y-59408142D01*
X126974197Y-59408144D01*
X127159354Y-59447500D01*
X127159355Y-59447500D01*
X127348644Y-59447500D01*
X127348646Y-59447500D01*
X127533803Y-59408144D01*
X127706730Y-59331151D01*
X127859871Y-59219888D01*
X127986533Y-59079216D01*
X128081179Y-58915284D01*
X128139674Y-58735256D01*
X128159460Y-58547000D01*
X128139674Y-58358744D01*
X128081179Y-58178716D01*
X127986533Y-58014784D01*
X127859871Y-57874112D01*
X127859870Y-57874111D01*
X127706734Y-57762851D01*
X127706729Y-57762848D01*
X127533807Y-57685857D01*
X127533802Y-57685855D01*
X127388000Y-57654865D01*
X127348646Y-57646500D01*
X127159354Y-57646500D01*
X127126897Y-57653398D01*
X126974197Y-57685855D01*
X126974192Y-57685857D01*
X126801270Y-57762848D01*
X126801265Y-57762851D01*
X126648129Y-57874111D01*
X126521466Y-58014785D01*
X126426821Y-58178715D01*
X126426818Y-58178722D01*
X126368327Y-58358740D01*
X126368326Y-58358744D01*
X126348540Y-58547000D01*
X110617500Y-58547000D01*
X110617500Y-55242500D01*
X110637185Y-55175461D01*
X110689989Y-55129706D01*
X110741500Y-55118500D01*
X187708500Y-55118500D01*
X187775539Y-55138185D01*
G37*
%TD.AperFunction*%
%TD*%
M02*
