M48
; DRILL file {KiCad 7.0.7} date Fri Oct 25 12:06:33 2024
; FORMAT={-:-/ absolute / inch / decimal}
; #@! TF.CreationDate,2024-10-25T12:06:33-05:00
; #@! TF.GenerationSoftware,Kicad,Pcbnew,7.0.7
; #@! TF.FileFunction,Plated,1,4,PTH
FMAT,2
INCH
; #@! TA.AperFunction,Plated,PTH,ViaDrill
T1C0.0157
; #@! TA.AperFunction,Plated,PTH,ViaDrill
T2C0.0200
; #@! TA.AperFunction,Plated,PTH,ComponentDrill
T3C0.0236
; #@! TA.AperFunction,Plated,PTH,ComponentDrill
T4C0.0394
; #@! TA.AperFunction,Plated,PTH,ComponentDrill
T5C0.0433
; #@! TA.AperFunction,Plated,PTH,ComponentDrill
T6C0.1693
%
G90
G05
T1
X4.4321Y-3.749
X4.48Y-2.765
X4.495Y-4.115
X4.625Y-3.4961
X4.895Y-3.36
X4.965Y-3.855
X4.995Y-2.9
X4.995Y-2.991
X5.0Y-3.065
X5.01Y-2.305
X5.025Y-2.53
X5.055Y-3.39
X5.065Y-3.75
X5.07Y-3.005
X5.075Y-3.245
X5.0976Y-3.04
X5.1052Y-3.3802
X5.185Y-3.37
X5.188Y-3.9695
X5.19Y-3.25
X5.2Y-2.535
X5.29Y-3.515
X5.2982Y-4.4537
X5.3085Y-4.117
X5.3485Y-4.1177
X5.385Y-3.195
X5.3986Y-4.2835
X5.4323Y-3.4473
X5.4485Y-4.1177
X5.465Y-2.89
X5.475Y-2.305
X5.4773Y-3.4023
X5.4885Y-4.117
X5.5Y-3.47
X5.501Y-4.2835
X5.51Y-3.3453
X5.54Y-3.43
X5.58Y-3.53
X5.6Y-2.87
X5.605Y-3.135
X5.615Y-4.16
X5.63Y-3.374
X5.63Y-3.5267
X5.645Y-3.66
X5.65Y-3.74
X5.6948Y-3.443
X5.6948Y-3.6252
X5.7864Y-4.0354
X5.795Y-3.805
X5.865Y-2.445
X5.865Y-3.305
X5.99Y-2.445
X5.99Y-4.62
X6.012Y-3.143
X6.1Y-4.295
X6.102Y-3.7285
X6.115Y-2.445
X6.125Y-2.26
X6.218Y-4.366
X6.225Y-3.66
X6.225Y-4.23
X6.255Y-2.445
X6.342Y-3.5685
X6.3888Y-3.7283
X6.4075Y-4.4114
X6.43Y-3.665
X6.442Y-2.668
X6.4478Y-3.7313
X6.47Y-2.574
X6.474Y-2.63
X6.506Y-2.668
X6.5084Y-4.6334
X6.539Y-4.6608
X6.544Y-4.252
X6.546Y-4.326
X6.558Y-2.743
X6.5699Y-4.6339
X6.605Y-2.265
X6.6083Y-4.635
X6.802Y-2.583
X6.892Y-3.1685
X6.94Y-4.255
X7.155Y-4.065
T2
X6.89Y-3.96
T3
X4.4671Y-2.4091
X4.4671Y-4.6109
X4.5043Y-2.3193
X4.5043Y-2.4989
X4.5043Y-4.5211
X4.5043Y-4.7007
X4.5941Y-2.2821
X4.5941Y-2.5361
X4.5941Y-4.4839
X4.5941Y-4.7379
X4.6839Y-2.3193
X4.6839Y-2.4989
X4.6839Y-4.5211
X4.6839Y-4.7007
X4.7211Y-2.4091
X4.7211Y-4.6109
X7.0289Y-2.4091
X7.0289Y-4.6109
X7.0661Y-2.3193
X7.0661Y-2.4989
X7.0661Y-4.5211
X7.0661Y-4.7007
X7.1559Y-2.2821
X7.1559Y-2.5361
X7.1559Y-4.4839
X7.1559Y-4.7379
X7.2457Y-2.3193
X7.2457Y-2.4989
X7.2457Y-4.5211
X7.2457Y-4.7007
X7.2829Y-2.4091
X7.2829Y-4.6109
T4
X4.74Y-4.06
X4.74Y-4.16
X4.74Y-4.26
X4.82Y-3.46
X4.82Y-3.56
X4.82Y-3.66
X4.82Y-3.76
X4.82Y-3.86
X4.9232Y-4.1585
X5.0232Y-4.1585
X5.5207Y-2.5404
X5.5207Y-2.6404
X6.3162Y-3.194
X6.38Y-3.8194
X6.38Y-3.9194
X6.4162Y-3.194
X6.528Y-2.3832
X6.528Y-2.4832
T5
X5.2494Y-4.6545
X5.3494Y-4.6545
X5.4494Y-4.6545
X5.5494Y-4.6545
X7.2333Y-2.9488
X7.2333Y-3.0488
T6
X4.5941Y-2.4091
X4.5941Y-4.6109
X7.1559Y-2.4091
X7.1559Y-4.6109
T3
G00X6.39Y-4.5758
M15
G01X6.39Y-4.6073
M16
G05
G00X6.39Y-4.7254
M15
G01X6.39Y-4.7726
M16
G05
G00X6.7301Y-4.5758
M15
G01X6.7301Y-4.6073
M16
G05
G00X6.7301Y-4.7254
M15
G01X6.7301Y-4.7726
M16
G05
T0
M30
