%TF.GenerationSoftware,KiCad,Pcbnew,7.0.7*%
%TF.CreationDate,2024-10-25T12:06:38-05:00*%
%TF.ProjectId,TrackingTurrentBoard,54726163-6b69-46e6-9754-757272656e74,rev?*%
%TF.SameCoordinates,Original*%
%TF.FileFunction,Soldermask,Top*%
%TF.FilePolarity,Negative*%
%FSLAX46Y46*%
G04 Gerber Fmt 4.6, Leading zero omitted, Abs format (unit mm)*
G04 Created by KiCad (PCBNEW 7.0.7) date 2024-10-25 12:06:38*
%MOMM*%
%LPD*%
G01*
G04 APERTURE LIST*
G04 APERTURE END LIST*
G36*
X162324601Y-119451380D02*
G01*
X162341156Y-119450339D01*
X162395647Y-119460734D01*
X162454132Y-119468434D01*
X162469603Y-119474842D01*
X162482931Y-119477385D01*
X162535779Y-119502253D01*
X162593100Y-119525996D01*
X162603983Y-119534347D01*
X162613525Y-119538837D01*
X162660758Y-119577912D01*
X162712435Y-119617565D01*
X162718944Y-119626047D01*
X162724738Y-119630841D01*
X162762431Y-119682722D01*
X162804004Y-119736900D01*
X162806934Y-119743974D01*
X162809572Y-119747605D01*
X162834126Y-119809621D01*
X162861566Y-119875868D01*
X162862169Y-119880451D01*
X162862707Y-119881809D01*
X162871227Y-119949253D01*
X162881200Y-120025000D01*
X162881200Y-121225000D01*
X162881007Y-121226465D01*
X162876657Y-121295603D01*
X162866903Y-121333589D01*
X162861566Y-121374132D01*
X162848223Y-121406344D01*
X162840362Y-121436962D01*
X162820808Y-121472528D01*
X162804004Y-121513100D01*
X162784610Y-121538374D01*
X162770827Y-121563446D01*
X162740999Y-121595208D01*
X162712435Y-121632435D01*
X162689555Y-121649990D01*
X162672027Y-121668657D01*
X162632723Y-121693599D01*
X162593100Y-121724004D01*
X162569242Y-121733885D01*
X162550162Y-121745995D01*
X162503063Y-121761298D01*
X162454132Y-121781566D01*
X162431524Y-121784542D01*
X162412893Y-121790596D01*
X162360506Y-121793892D01*
X162305000Y-121801200D01*
X162285392Y-121798618D01*
X162268843Y-121799660D01*
X162214365Y-121789267D01*
X162155868Y-121781566D01*
X162140392Y-121775155D01*
X162127068Y-121772614D01*
X162074230Y-121747750D01*
X162016900Y-121724004D01*
X162006014Y-121715651D01*
X161996474Y-121711162D01*
X161949244Y-121672089D01*
X161897565Y-121632435D01*
X161891055Y-121623951D01*
X161885261Y-121619158D01*
X161847563Y-121567271D01*
X161805996Y-121513100D01*
X161803065Y-121506026D01*
X161800427Y-121502394D01*
X161775860Y-121440345D01*
X161748434Y-121374132D01*
X161747830Y-121369551D01*
X161747292Y-121368190D01*
X161738765Y-121300690D01*
X161728800Y-121225000D01*
X161728800Y-120025000D01*
X161728992Y-120023536D01*
X161733342Y-119954396D01*
X161743097Y-119916400D01*
X161748434Y-119875868D01*
X161761773Y-119843663D01*
X161769637Y-119813037D01*
X161789195Y-119777459D01*
X161805996Y-119736900D01*
X161825384Y-119711632D01*
X161839172Y-119686553D01*
X161869008Y-119654780D01*
X161897565Y-119617565D01*
X161920437Y-119600014D01*
X161937972Y-119581342D01*
X161977288Y-119556390D01*
X162016900Y-119525996D01*
X162040749Y-119516117D01*
X162059837Y-119504004D01*
X162106951Y-119488695D01*
X162155868Y-119468434D01*
X162178469Y-119465458D01*
X162197106Y-119459403D01*
X162249509Y-119456105D01*
X162305000Y-119448800D01*
X162324601Y-119451380D01*
G37*
G36*
X170964601Y-119451380D02*
G01*
X170981156Y-119450339D01*
X171035647Y-119460734D01*
X171094132Y-119468434D01*
X171109603Y-119474842D01*
X171122931Y-119477385D01*
X171175779Y-119502253D01*
X171233100Y-119525996D01*
X171243983Y-119534347D01*
X171253525Y-119538837D01*
X171300758Y-119577912D01*
X171352435Y-119617565D01*
X171358944Y-119626047D01*
X171364738Y-119630841D01*
X171402431Y-119682722D01*
X171444004Y-119736900D01*
X171446934Y-119743974D01*
X171449572Y-119747605D01*
X171474126Y-119809621D01*
X171501566Y-119875868D01*
X171502169Y-119880451D01*
X171502707Y-119881809D01*
X171511227Y-119949253D01*
X171521200Y-120025000D01*
X171521200Y-121225000D01*
X171521007Y-121226465D01*
X171516657Y-121295603D01*
X171506903Y-121333589D01*
X171501566Y-121374132D01*
X171488223Y-121406344D01*
X171480362Y-121436962D01*
X171460808Y-121472528D01*
X171444004Y-121513100D01*
X171424610Y-121538374D01*
X171410827Y-121563446D01*
X171380999Y-121595208D01*
X171352435Y-121632435D01*
X171329555Y-121649990D01*
X171312027Y-121668657D01*
X171272723Y-121693599D01*
X171233100Y-121724004D01*
X171209242Y-121733885D01*
X171190162Y-121745995D01*
X171143063Y-121761298D01*
X171094132Y-121781566D01*
X171071524Y-121784542D01*
X171052893Y-121790596D01*
X171000506Y-121793892D01*
X170945000Y-121801200D01*
X170925392Y-121798618D01*
X170908843Y-121799660D01*
X170854365Y-121789267D01*
X170795868Y-121781566D01*
X170780392Y-121775155D01*
X170767068Y-121772614D01*
X170714230Y-121747750D01*
X170656900Y-121724004D01*
X170646014Y-121715651D01*
X170636474Y-121711162D01*
X170589244Y-121672089D01*
X170537565Y-121632435D01*
X170531055Y-121623951D01*
X170525261Y-121619158D01*
X170487563Y-121567271D01*
X170445996Y-121513100D01*
X170443065Y-121506026D01*
X170440427Y-121502394D01*
X170415860Y-121440345D01*
X170388434Y-121374132D01*
X170387830Y-121369551D01*
X170387292Y-121368190D01*
X170378765Y-121300690D01*
X170368800Y-121225000D01*
X170368800Y-120025000D01*
X170368992Y-120023536D01*
X170373342Y-119954396D01*
X170383097Y-119916400D01*
X170388434Y-119875868D01*
X170401773Y-119843663D01*
X170409637Y-119813037D01*
X170429195Y-119777459D01*
X170445996Y-119736900D01*
X170465384Y-119711632D01*
X170479172Y-119686553D01*
X170509008Y-119654780D01*
X170537565Y-119617565D01*
X170560437Y-119600014D01*
X170577972Y-119581342D01*
X170617288Y-119556390D01*
X170656900Y-119525996D01*
X170680749Y-119516117D01*
X170699837Y-119504004D01*
X170746951Y-119488695D01*
X170795868Y-119468434D01*
X170818469Y-119465458D01*
X170837106Y-119459403D01*
X170889509Y-119456105D01*
X170945000Y-119448800D01*
X170964601Y-119451380D01*
G37*
G36*
X117302094Y-112860628D02*
G01*
X117703903Y-112938070D01*
X118096532Y-113053356D01*
X118476425Y-113205442D01*
X118840140Y-113392951D01*
X119184385Y-113614183D01*
X119506041Y-113867137D01*
X119802196Y-114149520D01*
X120070168Y-114458776D01*
X120307530Y-114792104D01*
X120512132Y-115146486D01*
X120682122Y-115518711D01*
X120815960Y-115905410D01*
X120912433Y-116303080D01*
X120970669Y-116708119D01*
X120990140Y-117116860D01*
X120970669Y-117525601D01*
X120912433Y-117930640D01*
X120815960Y-118328310D01*
X120682122Y-118715009D01*
X120512132Y-119087234D01*
X120307530Y-119441616D01*
X120070168Y-119774944D01*
X119802196Y-120084200D01*
X119506041Y-120366583D01*
X119184385Y-120619537D01*
X118840140Y-120840769D01*
X118476425Y-121028278D01*
X118096532Y-121180364D01*
X117703903Y-121295650D01*
X117302094Y-121373092D01*
X116894742Y-121411990D01*
X116485538Y-121411990D01*
X116078186Y-121373092D01*
X115676377Y-121295650D01*
X115283748Y-121180364D01*
X114903855Y-121028278D01*
X114540140Y-120840769D01*
X114195895Y-120619537D01*
X113874239Y-120366583D01*
X113578084Y-120084200D01*
X113310112Y-119774944D01*
X113072750Y-119441616D01*
X112868148Y-119087234D01*
X112698158Y-118715009D01*
X112564320Y-118328310D01*
X112467847Y-117930640D01*
X112409611Y-117525601D01*
X112390140Y-117116860D01*
X112409611Y-116708119D01*
X112467847Y-116303080D01*
X112564320Y-115905410D01*
X112698158Y-115518711D01*
X112868148Y-115146486D01*
X113072750Y-114792104D01*
X113310112Y-114458776D01*
X113578084Y-114149520D01*
X113874239Y-113867137D01*
X114195895Y-113614183D01*
X114540140Y-113392951D01*
X114903855Y-113205442D01*
X115283748Y-113053356D01*
X115676377Y-112938070D01*
X116078186Y-112860628D01*
X116485538Y-112821730D01*
X116894742Y-112821730D01*
X117302094Y-112860628D01*
G37*
G36*
X182371814Y-112860628D02*
G01*
X182773623Y-112938070D01*
X183166252Y-113053356D01*
X183546145Y-113205442D01*
X183909860Y-113392951D01*
X184254105Y-113614183D01*
X184575761Y-113867137D01*
X184871916Y-114149520D01*
X185139888Y-114458776D01*
X185377250Y-114792104D01*
X185581852Y-115146486D01*
X185751842Y-115518711D01*
X185885680Y-115905410D01*
X185982153Y-116303080D01*
X186040389Y-116708119D01*
X186059860Y-117116860D01*
X186040389Y-117525601D01*
X185982153Y-117930640D01*
X185885680Y-118328310D01*
X185751842Y-118715009D01*
X185581852Y-119087234D01*
X185377250Y-119441616D01*
X185139888Y-119774944D01*
X184871916Y-120084200D01*
X184575761Y-120366583D01*
X184254105Y-120619537D01*
X183909860Y-120840769D01*
X183546145Y-121028278D01*
X183166252Y-121180364D01*
X182773623Y-121295650D01*
X182371814Y-121373092D01*
X181964462Y-121411990D01*
X181555258Y-121411990D01*
X181147906Y-121373092D01*
X180746097Y-121295650D01*
X180353468Y-121180364D01*
X179973575Y-121028278D01*
X179609860Y-120840769D01*
X179265615Y-120619537D01*
X178943959Y-120366583D01*
X178647804Y-120084200D01*
X178379832Y-119774944D01*
X178142470Y-119441616D01*
X177937868Y-119087234D01*
X177767878Y-118715009D01*
X177634040Y-118328310D01*
X177537567Y-117930640D01*
X177479331Y-117525601D01*
X177459860Y-117116860D01*
X177479331Y-116708119D01*
X177537567Y-116303080D01*
X177634040Y-115905410D01*
X177767878Y-115518711D01*
X177937868Y-115146486D01*
X178142470Y-114792104D01*
X178379832Y-114458776D01*
X178647804Y-114149520D01*
X178943959Y-113867137D01*
X179265615Y-113614183D01*
X179609860Y-113392951D01*
X179973575Y-113205442D01*
X180353468Y-113053356D01*
X180746097Y-112938070D01*
X181147906Y-112860628D01*
X181555258Y-112821730D01*
X181964462Y-112821730D01*
X182371814Y-112860628D01*
G37*
G36*
X134385000Y-119275000D02*
G01*
X132285000Y-119275000D01*
X132285000Y-117175000D01*
X134385000Y-117175000D01*
X134385000Y-119275000D01*
G37*
G36*
X135922680Y-117179696D02*
G01*
X135971862Y-117179696D01*
X136026632Y-117189934D01*
X136079845Y-117195175D01*
X136120268Y-117207437D01*
X136162283Y-117215291D01*
X136220474Y-117237834D01*
X136276818Y-117254926D01*
X136309009Y-117272132D01*
X136342931Y-117285274D01*
X136401876Y-117321771D01*
X136458349Y-117351957D01*
X136482075Y-117371428D01*
X136507634Y-117387254D01*
X136564263Y-117438879D01*
X136617462Y-117482538D01*
X136633228Y-117501748D01*
X136650800Y-117517768D01*
X136701810Y-117585317D01*
X136748043Y-117641651D01*
X136756983Y-117658377D01*
X136767542Y-117672359D01*
X136809541Y-117756706D01*
X136845074Y-117823182D01*
X136848864Y-117835676D01*
X136853891Y-117845772D01*
X136883590Y-117950154D01*
X136904825Y-118020155D01*
X136905522Y-118027236D01*
X136906908Y-118032106D01*
X136921316Y-118187599D01*
X136925000Y-118225000D01*
X136921313Y-118262429D01*
X136906908Y-118417893D01*
X136905522Y-118422762D01*
X136904825Y-118429845D01*
X136883585Y-118499861D01*
X136853891Y-118604227D01*
X136848865Y-118614320D01*
X136845074Y-118626818D01*
X136809534Y-118693307D01*
X136767542Y-118777640D01*
X136756985Y-118791619D01*
X136748043Y-118808349D01*
X136701801Y-118864694D01*
X136650800Y-118932231D01*
X136633231Y-118948247D01*
X136617462Y-118967462D01*
X136564252Y-119011129D01*
X136507634Y-119062745D01*
X136482080Y-119078567D01*
X136458349Y-119098043D01*
X136401865Y-119128234D01*
X136342931Y-119164725D01*
X136309016Y-119177863D01*
X136276818Y-119195074D01*
X136220463Y-119212169D01*
X136162283Y-119234708D01*
X136120275Y-119242560D01*
X136079845Y-119254825D01*
X136026629Y-119260066D01*
X135971862Y-119270304D01*
X135922680Y-119270304D01*
X135875000Y-119275000D01*
X135827320Y-119270304D01*
X135778138Y-119270304D01*
X135723369Y-119260066D01*
X135670155Y-119254825D01*
X135629726Y-119242561D01*
X135587716Y-119234708D01*
X135529532Y-119212167D01*
X135473182Y-119195074D01*
X135440986Y-119177864D01*
X135407068Y-119164725D01*
X135348127Y-119128230D01*
X135291651Y-119098043D01*
X135267922Y-119078569D01*
X135242365Y-119062745D01*
X135185737Y-119011121D01*
X135132538Y-118967462D01*
X135116771Y-118948250D01*
X135099199Y-118932231D01*
X135048186Y-118864679D01*
X135001957Y-118808349D01*
X134993017Y-118791623D01*
X134982457Y-118777640D01*
X134940450Y-118693279D01*
X134904926Y-118626818D01*
X134901136Y-118614325D01*
X134896108Y-118604227D01*
X134866397Y-118499807D01*
X134845175Y-118429845D01*
X134844477Y-118422767D01*
X134843091Y-118417893D01*
X134828669Y-118262257D01*
X134825000Y-118225000D01*
X134828666Y-118187771D01*
X134843091Y-118032106D01*
X134844478Y-118027230D01*
X134845175Y-118020155D01*
X134866393Y-117950207D01*
X134896108Y-117845772D01*
X134901137Y-117835671D01*
X134904926Y-117823182D01*
X134940443Y-117756733D01*
X134982457Y-117672359D01*
X134993019Y-117658372D01*
X135001957Y-117641651D01*
X135048176Y-117585332D01*
X135099199Y-117517768D01*
X135116774Y-117501745D01*
X135132538Y-117482538D01*
X135185726Y-117438887D01*
X135242365Y-117387254D01*
X135267927Y-117371426D01*
X135291651Y-117351957D01*
X135348115Y-117321775D01*
X135407068Y-117285274D01*
X135440993Y-117272131D01*
X135473182Y-117254926D01*
X135529520Y-117237835D01*
X135587716Y-117215291D01*
X135629732Y-117207436D01*
X135670155Y-117195175D01*
X135723366Y-117189934D01*
X135778138Y-117179696D01*
X135827320Y-117179696D01*
X135875000Y-117175000D01*
X135922680Y-117179696D01*
G37*
G36*
X138462680Y-117179696D02*
G01*
X138511862Y-117179696D01*
X138566632Y-117189934D01*
X138619845Y-117195175D01*
X138660268Y-117207437D01*
X138702283Y-117215291D01*
X138760474Y-117237834D01*
X138816818Y-117254926D01*
X138849009Y-117272132D01*
X138882931Y-117285274D01*
X138941876Y-117321771D01*
X138998349Y-117351957D01*
X139022075Y-117371428D01*
X139047634Y-117387254D01*
X139104263Y-117438879D01*
X139157462Y-117482538D01*
X139173228Y-117501748D01*
X139190800Y-117517768D01*
X139241810Y-117585317D01*
X139288043Y-117641651D01*
X139296983Y-117658377D01*
X139307542Y-117672359D01*
X139349541Y-117756706D01*
X139385074Y-117823182D01*
X139388864Y-117835676D01*
X139393891Y-117845772D01*
X139423590Y-117950154D01*
X139444825Y-118020155D01*
X139445522Y-118027236D01*
X139446908Y-118032106D01*
X139461315Y-118187586D01*
X139465000Y-118225000D01*
X139461314Y-118262416D01*
X139446908Y-118417893D01*
X139445522Y-118422762D01*
X139444825Y-118429845D01*
X139423585Y-118499861D01*
X139393891Y-118604227D01*
X139388865Y-118614320D01*
X139385074Y-118626818D01*
X139349534Y-118693307D01*
X139307542Y-118777640D01*
X139296985Y-118791619D01*
X139288043Y-118808349D01*
X139241801Y-118864694D01*
X139190800Y-118932231D01*
X139173231Y-118948247D01*
X139157462Y-118967462D01*
X139104252Y-119011129D01*
X139047634Y-119062745D01*
X139022080Y-119078567D01*
X138998349Y-119098043D01*
X138941865Y-119128234D01*
X138882931Y-119164725D01*
X138849016Y-119177863D01*
X138816818Y-119195074D01*
X138760463Y-119212169D01*
X138702283Y-119234708D01*
X138660275Y-119242560D01*
X138619845Y-119254825D01*
X138566629Y-119260066D01*
X138511862Y-119270304D01*
X138462680Y-119270304D01*
X138415000Y-119275000D01*
X138367320Y-119270304D01*
X138318138Y-119270304D01*
X138263369Y-119260066D01*
X138210155Y-119254825D01*
X138169726Y-119242561D01*
X138127716Y-119234708D01*
X138069532Y-119212167D01*
X138013182Y-119195074D01*
X137980986Y-119177864D01*
X137947068Y-119164725D01*
X137888127Y-119128230D01*
X137831651Y-119098043D01*
X137807922Y-119078569D01*
X137782365Y-119062745D01*
X137725737Y-119011121D01*
X137672538Y-118967462D01*
X137656771Y-118948250D01*
X137639199Y-118932231D01*
X137588186Y-118864679D01*
X137541957Y-118808349D01*
X137533017Y-118791623D01*
X137522457Y-118777640D01*
X137480450Y-118693279D01*
X137444926Y-118626818D01*
X137441136Y-118614325D01*
X137436108Y-118604227D01*
X137406397Y-118499807D01*
X137385175Y-118429845D01*
X137384477Y-118422767D01*
X137383091Y-118417893D01*
X137368669Y-118262257D01*
X137365000Y-118225000D01*
X137368666Y-118187771D01*
X137383091Y-118032106D01*
X137384478Y-118027230D01*
X137385175Y-118020155D01*
X137406393Y-117950207D01*
X137436108Y-117845772D01*
X137441137Y-117835671D01*
X137444926Y-117823182D01*
X137480443Y-117756733D01*
X137522457Y-117672359D01*
X137533019Y-117658372D01*
X137541957Y-117641651D01*
X137588176Y-117585332D01*
X137639199Y-117517768D01*
X137656774Y-117501745D01*
X137672538Y-117482538D01*
X137725726Y-117438887D01*
X137782365Y-117387254D01*
X137807927Y-117371426D01*
X137831651Y-117351957D01*
X137888115Y-117321775D01*
X137947068Y-117285274D01*
X137980993Y-117272131D01*
X138013182Y-117254926D01*
X138069520Y-117237835D01*
X138127716Y-117215291D01*
X138169732Y-117207436D01*
X138210155Y-117195175D01*
X138263366Y-117189934D01*
X138318138Y-117179696D01*
X138367320Y-117179696D01*
X138415000Y-117175000D01*
X138462680Y-117179696D01*
G37*
G36*
X141002680Y-117179696D02*
G01*
X141051862Y-117179696D01*
X141106632Y-117189934D01*
X141159845Y-117195175D01*
X141200268Y-117207437D01*
X141242283Y-117215291D01*
X141300474Y-117237834D01*
X141356818Y-117254926D01*
X141389009Y-117272132D01*
X141422931Y-117285274D01*
X141481876Y-117321771D01*
X141538349Y-117351957D01*
X141562075Y-117371428D01*
X141587634Y-117387254D01*
X141644263Y-117438879D01*
X141697462Y-117482538D01*
X141713228Y-117501748D01*
X141730800Y-117517768D01*
X141781810Y-117585317D01*
X141828043Y-117641651D01*
X141836983Y-117658377D01*
X141847542Y-117672359D01*
X141889541Y-117756706D01*
X141925074Y-117823182D01*
X141928864Y-117835676D01*
X141933891Y-117845772D01*
X141963590Y-117950154D01*
X141984825Y-118020155D01*
X141985522Y-118027236D01*
X141986908Y-118032106D01*
X142001316Y-118187599D01*
X142005000Y-118225000D01*
X142001313Y-118262429D01*
X141986908Y-118417893D01*
X141985522Y-118422762D01*
X141984825Y-118429845D01*
X141963585Y-118499861D01*
X141933891Y-118604227D01*
X141928865Y-118614320D01*
X141925074Y-118626818D01*
X141889534Y-118693307D01*
X141847542Y-118777640D01*
X141836985Y-118791619D01*
X141828043Y-118808349D01*
X141781801Y-118864694D01*
X141730800Y-118932231D01*
X141713231Y-118948247D01*
X141697462Y-118967462D01*
X141644252Y-119011129D01*
X141587634Y-119062745D01*
X141562080Y-119078567D01*
X141538349Y-119098043D01*
X141481865Y-119128234D01*
X141422931Y-119164725D01*
X141389016Y-119177863D01*
X141356818Y-119195074D01*
X141300463Y-119212169D01*
X141242283Y-119234708D01*
X141200275Y-119242560D01*
X141159845Y-119254825D01*
X141106629Y-119260066D01*
X141051862Y-119270304D01*
X141002680Y-119270304D01*
X140955000Y-119275000D01*
X140907320Y-119270304D01*
X140858138Y-119270304D01*
X140803369Y-119260066D01*
X140750155Y-119254825D01*
X140709726Y-119242561D01*
X140667716Y-119234708D01*
X140609532Y-119212167D01*
X140553182Y-119195074D01*
X140520986Y-119177864D01*
X140487068Y-119164725D01*
X140428127Y-119128230D01*
X140371651Y-119098043D01*
X140347922Y-119078569D01*
X140322365Y-119062745D01*
X140265737Y-119011121D01*
X140212538Y-118967462D01*
X140196771Y-118948250D01*
X140179199Y-118932231D01*
X140128186Y-118864679D01*
X140081957Y-118808349D01*
X140073017Y-118791623D01*
X140062457Y-118777640D01*
X140020450Y-118693279D01*
X139984926Y-118626818D01*
X139981136Y-118614325D01*
X139976108Y-118604227D01*
X139946397Y-118499807D01*
X139925175Y-118429845D01*
X139924477Y-118422767D01*
X139923091Y-118417893D01*
X139908668Y-118262244D01*
X139905000Y-118225000D01*
X139908667Y-118187758D01*
X139923091Y-118032106D01*
X139924478Y-118027230D01*
X139925175Y-118020155D01*
X139946393Y-117950207D01*
X139976108Y-117845772D01*
X139981137Y-117835671D01*
X139984926Y-117823182D01*
X140020443Y-117756733D01*
X140062457Y-117672359D01*
X140073019Y-117658372D01*
X140081957Y-117641651D01*
X140128176Y-117585332D01*
X140179199Y-117517768D01*
X140196774Y-117501745D01*
X140212538Y-117482538D01*
X140265726Y-117438887D01*
X140322365Y-117387254D01*
X140347927Y-117371426D01*
X140371651Y-117351957D01*
X140428115Y-117321775D01*
X140487068Y-117285274D01*
X140520993Y-117272131D01*
X140553182Y-117254926D01*
X140609520Y-117237835D01*
X140667716Y-117215291D01*
X140709732Y-117207436D01*
X140750155Y-117195175D01*
X140803366Y-117189934D01*
X140858138Y-117179696D01*
X140907320Y-117179696D01*
X140955000Y-117175000D01*
X141002680Y-117179696D01*
G37*
G36*
X162324601Y-115651380D02*
G01*
X162341156Y-115650339D01*
X162395647Y-115660734D01*
X162454132Y-115668434D01*
X162469603Y-115674842D01*
X162482931Y-115677385D01*
X162535779Y-115702253D01*
X162593100Y-115725996D01*
X162603983Y-115734347D01*
X162613525Y-115738837D01*
X162660758Y-115777912D01*
X162712435Y-115817565D01*
X162718944Y-115826047D01*
X162724738Y-115830841D01*
X162762431Y-115882722D01*
X162804004Y-115936900D01*
X162806934Y-115943974D01*
X162809572Y-115947605D01*
X162834126Y-116009621D01*
X162861566Y-116075868D01*
X162862169Y-116080451D01*
X162862707Y-116081809D01*
X162871227Y-116149253D01*
X162881200Y-116225000D01*
X162881200Y-117025000D01*
X162881007Y-117026465D01*
X162876657Y-117095603D01*
X162866903Y-117133589D01*
X162861566Y-117174132D01*
X162848223Y-117206344D01*
X162840362Y-117236962D01*
X162820808Y-117272528D01*
X162804004Y-117313100D01*
X162784610Y-117338374D01*
X162770827Y-117363446D01*
X162740999Y-117395208D01*
X162712435Y-117432435D01*
X162689555Y-117449990D01*
X162672027Y-117468657D01*
X162632723Y-117493599D01*
X162593100Y-117524004D01*
X162569242Y-117533885D01*
X162550162Y-117545995D01*
X162503063Y-117561298D01*
X162454132Y-117581566D01*
X162431524Y-117584542D01*
X162412893Y-117590596D01*
X162360506Y-117593892D01*
X162305000Y-117601200D01*
X162285392Y-117598618D01*
X162268843Y-117599660D01*
X162214365Y-117589267D01*
X162155868Y-117581566D01*
X162140392Y-117575155D01*
X162127068Y-117572614D01*
X162074230Y-117547750D01*
X162016900Y-117524004D01*
X162006014Y-117515651D01*
X161996474Y-117511162D01*
X161949244Y-117472089D01*
X161897565Y-117432435D01*
X161891055Y-117423951D01*
X161885261Y-117419158D01*
X161847563Y-117367271D01*
X161805996Y-117313100D01*
X161803065Y-117306026D01*
X161800427Y-117302394D01*
X161775860Y-117240345D01*
X161748434Y-117174132D01*
X161747830Y-117169551D01*
X161747292Y-117168190D01*
X161738765Y-117100690D01*
X161728800Y-117025000D01*
X161728800Y-116225000D01*
X161728992Y-116223536D01*
X161733342Y-116154396D01*
X161743097Y-116116400D01*
X161748434Y-116075868D01*
X161761773Y-116043663D01*
X161769637Y-116013037D01*
X161789195Y-115977459D01*
X161805996Y-115936900D01*
X161825384Y-115911632D01*
X161839172Y-115886553D01*
X161869008Y-115854780D01*
X161897565Y-115817565D01*
X161920437Y-115800014D01*
X161937972Y-115781342D01*
X161977288Y-115756390D01*
X162016900Y-115725996D01*
X162040749Y-115716117D01*
X162059837Y-115704004D01*
X162106951Y-115688695D01*
X162155868Y-115668434D01*
X162178469Y-115665458D01*
X162197106Y-115659403D01*
X162249509Y-115656105D01*
X162305000Y-115648800D01*
X162324601Y-115651380D01*
G37*
G36*
X170964601Y-115651380D02*
G01*
X170981156Y-115650339D01*
X171035647Y-115660734D01*
X171094132Y-115668434D01*
X171109603Y-115674842D01*
X171122931Y-115677385D01*
X171175779Y-115702253D01*
X171233100Y-115725996D01*
X171243983Y-115734347D01*
X171253525Y-115738837D01*
X171300758Y-115777912D01*
X171352435Y-115817565D01*
X171358944Y-115826047D01*
X171364738Y-115830841D01*
X171402431Y-115882722D01*
X171444004Y-115936900D01*
X171446934Y-115943974D01*
X171449572Y-115947605D01*
X171474126Y-116009621D01*
X171501566Y-116075868D01*
X171502169Y-116080451D01*
X171502707Y-116081809D01*
X171511227Y-116149253D01*
X171521200Y-116225000D01*
X171521200Y-117025000D01*
X171521007Y-117026465D01*
X171516657Y-117095603D01*
X171506903Y-117133589D01*
X171501566Y-117174132D01*
X171488223Y-117206344D01*
X171480362Y-117236962D01*
X171460808Y-117272528D01*
X171444004Y-117313100D01*
X171424610Y-117338374D01*
X171410827Y-117363446D01*
X171380999Y-117395208D01*
X171352435Y-117432435D01*
X171329555Y-117449990D01*
X171312027Y-117468657D01*
X171272723Y-117493599D01*
X171233100Y-117524004D01*
X171209242Y-117533885D01*
X171190162Y-117545995D01*
X171143063Y-117561298D01*
X171094132Y-117581566D01*
X171071524Y-117584542D01*
X171052893Y-117590596D01*
X171000506Y-117593892D01*
X170945000Y-117601200D01*
X170925392Y-117598618D01*
X170908843Y-117599660D01*
X170854365Y-117589267D01*
X170795868Y-117581566D01*
X170780392Y-117575155D01*
X170767068Y-117572614D01*
X170714230Y-117547750D01*
X170656900Y-117524004D01*
X170646014Y-117515651D01*
X170636474Y-117511162D01*
X170589244Y-117472089D01*
X170537565Y-117432435D01*
X170531055Y-117423951D01*
X170525261Y-117419158D01*
X170487563Y-117367271D01*
X170445996Y-117313100D01*
X170443065Y-117306026D01*
X170440427Y-117302394D01*
X170415860Y-117240345D01*
X170388434Y-117174132D01*
X170387830Y-117169551D01*
X170387292Y-117168190D01*
X170378765Y-117100690D01*
X170368800Y-117025000D01*
X170368800Y-116225000D01*
X170368992Y-116223536D01*
X170373342Y-116154396D01*
X170383097Y-116116400D01*
X170388434Y-116075868D01*
X170401773Y-116043663D01*
X170409637Y-116013037D01*
X170429195Y-115977459D01*
X170445996Y-115936900D01*
X170465384Y-115911632D01*
X170479172Y-115886553D01*
X170509008Y-115854780D01*
X170537565Y-115817565D01*
X170560437Y-115800014D01*
X170577972Y-115781342D01*
X170617288Y-115756390D01*
X170656900Y-115725996D01*
X170680749Y-115716117D01*
X170699837Y-115704004D01*
X170746951Y-115688695D01*
X170795868Y-115668434D01*
X170818469Y-115665458D01*
X170837106Y-115659403D01*
X170889509Y-115656105D01*
X170945000Y-115648800D01*
X170964601Y-115651380D01*
G37*
G36*
X163787036Y-115407964D02*
G01*
X163788500Y-115411500D01*
X163788500Y-115421600D01*
X163791059Y-115427777D01*
X163858941Y-115427777D01*
X163861500Y-115421599D01*
X163861500Y-115411500D01*
X163862964Y-115407964D01*
X163866500Y-115406500D01*
X164583500Y-115406500D01*
X164587036Y-115407964D01*
X164588500Y-115411500D01*
X164588500Y-115421539D01*
X164589085Y-115422949D01*
X164656915Y-115422949D01*
X164657500Y-115421539D01*
X164657500Y-115411500D01*
X164658964Y-115407964D01*
X164662500Y-115406500D01*
X165087500Y-115406500D01*
X165091036Y-115407964D01*
X165092500Y-115411500D01*
X165092500Y-115412756D01*
X165114896Y-115422032D01*
X165135104Y-115422032D01*
X165157500Y-115412756D01*
X165157500Y-115411500D01*
X165158964Y-115407964D01*
X165162500Y-115406500D01*
X165587500Y-115406500D01*
X165591036Y-115407964D01*
X165592500Y-115411500D01*
X165592500Y-115412756D01*
X165614896Y-115422032D01*
X165635104Y-115422032D01*
X165657500Y-115412756D01*
X165657500Y-115411500D01*
X165658964Y-115407964D01*
X165662500Y-115406500D01*
X166087500Y-115406500D01*
X166091036Y-115407964D01*
X166092500Y-115411500D01*
X166092500Y-115412756D01*
X166114896Y-115422032D01*
X166135104Y-115422032D01*
X166157500Y-115412756D01*
X166157500Y-115411500D01*
X166158964Y-115407964D01*
X166162500Y-115406500D01*
X166587500Y-115406500D01*
X166591036Y-115407964D01*
X166592500Y-115411500D01*
X166592500Y-115412756D01*
X166614896Y-115422032D01*
X166635104Y-115422032D01*
X166657500Y-115412756D01*
X166657500Y-115411500D01*
X166658964Y-115407964D01*
X166662500Y-115406500D01*
X167087500Y-115406500D01*
X167091036Y-115407964D01*
X167092500Y-115411500D01*
X167092500Y-115412756D01*
X167114896Y-115422032D01*
X167135104Y-115422032D01*
X167157500Y-115412756D01*
X167157500Y-115411500D01*
X167158964Y-115407964D01*
X167162500Y-115406500D01*
X167587500Y-115406500D01*
X167591036Y-115407964D01*
X167592500Y-115411500D01*
X167592500Y-115412756D01*
X167614896Y-115422032D01*
X167635104Y-115422032D01*
X167657500Y-115412756D01*
X167657500Y-115411500D01*
X167658964Y-115407964D01*
X167662500Y-115406500D01*
X168087500Y-115406500D01*
X168091036Y-115407964D01*
X168092500Y-115411500D01*
X168092500Y-115412756D01*
X168114896Y-115422032D01*
X168135104Y-115422032D01*
X168157500Y-115412756D01*
X168157500Y-115411500D01*
X168158964Y-115407964D01*
X168162500Y-115406500D01*
X168587500Y-115406500D01*
X168591036Y-115407964D01*
X168592500Y-115411500D01*
X168592500Y-115421539D01*
X168593085Y-115422949D01*
X168660915Y-115422949D01*
X168661500Y-115421539D01*
X168661500Y-115411500D01*
X168662964Y-115407964D01*
X168666500Y-115406500D01*
X169383500Y-115406500D01*
X169387036Y-115407964D01*
X169388500Y-115411500D01*
X169388500Y-115421600D01*
X169391059Y-115427777D01*
X169458941Y-115427777D01*
X169461500Y-115421599D01*
X169461500Y-115411500D01*
X169462964Y-115407964D01*
X169466500Y-115406500D01*
X170183500Y-115406500D01*
X170187036Y-115407964D01*
X170188500Y-115411500D01*
X170188500Y-116688500D01*
X170187036Y-116692036D01*
X170183500Y-116693500D01*
X170173396Y-116693500D01*
X169476604Y-116693500D01*
X169466500Y-116693500D01*
X169462964Y-116692036D01*
X169461500Y-116688500D01*
X169461500Y-116678392D01*
X169458944Y-116672222D01*
X169391056Y-116672222D01*
X169388500Y-116678391D01*
X169388500Y-116688500D01*
X169387036Y-116692036D01*
X169383500Y-116693500D01*
X169373396Y-116693500D01*
X168676604Y-116693500D01*
X168666500Y-116693500D01*
X168662964Y-116692036D01*
X168661500Y-116688500D01*
X168661500Y-116678175D01*
X168661037Y-116677050D01*
X168592963Y-116677050D01*
X168592500Y-116678175D01*
X168592500Y-116688500D01*
X168591036Y-116692036D01*
X168587500Y-116693500D01*
X168577396Y-116693500D01*
X168172604Y-116693500D01*
X168162500Y-116693500D01*
X168158964Y-116692036D01*
X168157500Y-116688500D01*
X168157500Y-116687243D01*
X168135105Y-116677967D01*
X168114895Y-116677967D01*
X168092500Y-116687243D01*
X168092500Y-116688500D01*
X168091036Y-116692036D01*
X168087500Y-116693500D01*
X168077396Y-116693500D01*
X167672604Y-116693500D01*
X167662500Y-116693500D01*
X167658964Y-116692036D01*
X167657500Y-116688500D01*
X167657500Y-116687243D01*
X167635105Y-116677967D01*
X167614895Y-116677967D01*
X167592500Y-116687243D01*
X167592500Y-116688500D01*
X167591036Y-116692036D01*
X167587500Y-116693500D01*
X167577396Y-116693500D01*
X167172604Y-116693500D01*
X167162500Y-116693500D01*
X167158964Y-116692036D01*
X167157500Y-116688500D01*
X167157500Y-116687243D01*
X167135105Y-116677967D01*
X167114895Y-116677967D01*
X167092500Y-116687243D01*
X167092500Y-116688500D01*
X167091036Y-116692036D01*
X167087500Y-116693500D01*
X167077396Y-116693500D01*
X166672604Y-116693500D01*
X166662500Y-116693500D01*
X166658964Y-116692036D01*
X166657500Y-116688500D01*
X166657500Y-116687243D01*
X166635105Y-116677967D01*
X166614895Y-116677967D01*
X166592500Y-116687243D01*
X166592500Y-116688500D01*
X166591036Y-116692036D01*
X166587500Y-116693500D01*
X166577396Y-116693500D01*
X166172604Y-116693500D01*
X166162500Y-116693500D01*
X166158964Y-116692036D01*
X166157500Y-116688500D01*
X166157500Y-116687243D01*
X166135105Y-116677967D01*
X166114895Y-116677967D01*
X166092500Y-116687243D01*
X166092500Y-116688500D01*
X166091036Y-116692036D01*
X166087500Y-116693500D01*
X166077396Y-116693500D01*
X165672604Y-116693500D01*
X165662500Y-116693500D01*
X165658964Y-116692036D01*
X165657500Y-116688500D01*
X165657500Y-116687243D01*
X165635105Y-116677967D01*
X165614895Y-116677967D01*
X165592500Y-116687243D01*
X165592500Y-116688500D01*
X165591036Y-116692036D01*
X165587500Y-116693500D01*
X165577396Y-116693500D01*
X165172604Y-116693500D01*
X165162500Y-116693500D01*
X165158964Y-116692036D01*
X165157500Y-116688500D01*
X165157500Y-116687243D01*
X165135105Y-116677967D01*
X165114895Y-116677967D01*
X165092500Y-116687243D01*
X165092500Y-116688500D01*
X165091036Y-116692036D01*
X165087500Y-116693500D01*
X165077396Y-116693500D01*
X164672604Y-116693500D01*
X164662500Y-116693500D01*
X164658964Y-116692036D01*
X164657500Y-116688500D01*
X164657500Y-116678175D01*
X164657037Y-116677050D01*
X164588963Y-116677050D01*
X164588500Y-116678175D01*
X164588500Y-116688500D01*
X164587036Y-116692036D01*
X164583500Y-116693500D01*
X164573396Y-116693500D01*
X163876604Y-116693500D01*
X163866500Y-116693500D01*
X163862964Y-116692036D01*
X163861500Y-116688500D01*
X163861500Y-116678392D01*
X163858944Y-116672222D01*
X163791056Y-116672222D01*
X163788500Y-116678391D01*
X163788500Y-116688500D01*
X163787036Y-116692036D01*
X163783500Y-116693500D01*
X163773396Y-116693500D01*
X163076604Y-116693500D01*
X163066500Y-116693500D01*
X163062964Y-116692036D01*
X163061500Y-116688500D01*
X163061500Y-115411500D01*
X163062964Y-115407964D01*
X163066500Y-115406500D01*
X163783500Y-115406500D01*
X163787036Y-115407964D01*
G37*
G36*
X159126537Y-114215224D02*
G01*
X159191421Y-114258579D01*
X159234776Y-114323463D01*
X159250000Y-114400000D01*
X159250000Y-114950000D01*
X159234776Y-115026537D01*
X159191421Y-115091421D01*
X159126537Y-115134776D01*
X159050000Y-115150000D01*
X158650000Y-115150000D01*
X158573463Y-115134776D01*
X158508579Y-115091421D01*
X158465224Y-115026537D01*
X158450000Y-114950000D01*
X158450000Y-114400000D01*
X158465224Y-114323463D01*
X158508579Y-114258579D01*
X158573463Y-114215224D01*
X158650000Y-114200000D01*
X159050000Y-114200000D01*
X159126537Y-114215224D01*
G37*
G36*
X160776537Y-114215224D02*
G01*
X160841421Y-114258579D01*
X160884776Y-114323463D01*
X160900000Y-114400000D01*
X160900000Y-114950000D01*
X160884776Y-115026537D01*
X160841421Y-115091421D01*
X160776537Y-115134776D01*
X160700000Y-115150000D01*
X160300000Y-115150000D01*
X160223463Y-115134776D01*
X160158579Y-115091421D01*
X160115224Y-115026537D01*
X160100000Y-114950000D01*
X160100000Y-114400000D01*
X160115224Y-114323463D01*
X160158579Y-114258579D01*
X160223463Y-114215224D01*
X160300000Y-114200000D01*
X160700000Y-114200000D01*
X160776537Y-114215224D01*
G37*
G36*
X172926537Y-114090224D02*
G01*
X172991421Y-114133579D01*
X173034776Y-114198463D01*
X173050000Y-114275000D01*
X173050000Y-114675000D01*
X173034776Y-114751537D01*
X172991421Y-114816421D01*
X172926537Y-114859776D01*
X172850000Y-114875000D01*
X172300000Y-114875000D01*
X172223463Y-114859776D01*
X172158579Y-114816421D01*
X172115224Y-114751537D01*
X172100000Y-114675000D01*
X172100000Y-114275000D01*
X172115224Y-114198463D01*
X172158579Y-114133579D01*
X172223463Y-114090224D01*
X172300000Y-114075000D01*
X172850000Y-114075000D01*
X172926537Y-114090224D01*
G37*
G36*
X164100000Y-113800000D02*
G01*
X163500000Y-113800000D01*
X163500000Y-113550000D01*
X164100000Y-113550000D01*
X164100000Y-113800000D01*
G37*
G36*
X165400000Y-113800000D02*
G01*
X164800000Y-113800000D01*
X164800000Y-113550000D01*
X165400000Y-113550000D01*
X165400000Y-113800000D01*
G37*
G36*
X164100000Y-113300000D02*
G01*
X163500000Y-113300000D01*
X163500000Y-113050000D01*
X164100000Y-113050000D01*
X164100000Y-113300000D01*
G37*
G36*
X165400000Y-113300000D02*
G01*
X164800000Y-113300000D01*
X164800000Y-113050000D01*
X165400000Y-113050000D01*
X165400000Y-113300000D01*
G37*
G36*
X172926537Y-112440224D02*
G01*
X172991421Y-112483579D01*
X173034776Y-112548463D01*
X173050000Y-112625000D01*
X173050000Y-113025000D01*
X173034776Y-113101537D01*
X172991421Y-113166421D01*
X172926537Y-113209776D01*
X172850000Y-113225000D01*
X172300000Y-113225000D01*
X172223463Y-113209776D01*
X172158579Y-113166421D01*
X172115224Y-113101537D01*
X172100000Y-113025000D01*
X172100000Y-112625000D01*
X172115224Y-112548463D01*
X172158579Y-112483579D01*
X172223463Y-112440224D01*
X172300000Y-112425000D01*
X172850000Y-112425000D01*
X172926537Y-112440224D01*
G37*
G36*
X164100000Y-112800000D02*
G01*
X163500000Y-112800000D01*
X163500000Y-112550000D01*
X164100000Y-112550000D01*
X164100000Y-112800000D01*
G37*
G36*
X165400000Y-112800000D02*
G01*
X164800000Y-112800000D01*
X164800000Y-112550000D01*
X165400000Y-112550000D01*
X165400000Y-112800000D01*
G37*
G36*
X153789800Y-112679400D02*
G01*
X152039800Y-112679400D01*
X152039800Y-112229400D01*
X153789800Y-112229400D01*
X153789800Y-112679400D01*
G37*
G36*
X160989800Y-112679400D02*
G01*
X159239800Y-112679400D01*
X159239800Y-112229400D01*
X160989800Y-112229400D01*
X160989800Y-112679400D01*
G37*
G36*
X153789800Y-112029400D02*
G01*
X152039800Y-112029400D01*
X152039800Y-111579400D01*
X153789800Y-111579400D01*
X153789800Y-112029400D01*
G37*
G36*
X160989800Y-112029400D02*
G01*
X159239800Y-112029400D01*
X159239800Y-111579400D01*
X160989800Y-111579400D01*
X160989800Y-112029400D01*
G37*
G36*
X153789800Y-111379400D02*
G01*
X152039800Y-111379400D01*
X152039800Y-110929400D01*
X153789800Y-110929400D01*
X153789800Y-111379400D01*
G37*
G36*
X160989800Y-111379400D02*
G01*
X159239800Y-111379400D01*
X159239800Y-110929400D01*
X160989800Y-110929400D01*
X160989800Y-111379400D01*
G37*
G36*
X163299904Y-110384527D02*
G01*
X163372899Y-110433301D01*
X163421673Y-110506296D01*
X163438800Y-110592400D01*
X163438800Y-111092400D01*
X163421673Y-111178504D01*
X163372899Y-111251499D01*
X163299904Y-111300273D01*
X163213800Y-111317400D01*
X162763800Y-111317400D01*
X162677696Y-111300273D01*
X162604701Y-111251499D01*
X162555927Y-111178504D01*
X162538800Y-111092400D01*
X162538800Y-110592400D01*
X162555927Y-110506296D01*
X162604701Y-110433301D01*
X162677696Y-110384527D01*
X162763800Y-110367400D01*
X163213800Y-110367400D01*
X163299904Y-110384527D01*
G37*
G36*
X164849904Y-110384527D02*
G01*
X164922899Y-110433301D01*
X164971673Y-110506296D01*
X164988800Y-110592400D01*
X164988800Y-111092400D01*
X164971673Y-111178504D01*
X164922899Y-111251499D01*
X164849904Y-111300273D01*
X164763800Y-111317400D01*
X164313800Y-111317400D01*
X164227696Y-111300273D01*
X164154701Y-111251499D01*
X164105927Y-111178504D01*
X164088800Y-111092400D01*
X164088800Y-110592400D01*
X164105927Y-110506296D01*
X164154701Y-110433301D01*
X164227696Y-110384527D01*
X164313800Y-110367400D01*
X164763800Y-110367400D01*
X164849904Y-110384527D01*
G37*
G36*
X153789800Y-110729400D02*
G01*
X152039800Y-110729400D01*
X152039800Y-110279400D01*
X153789800Y-110279400D01*
X153789800Y-110729400D01*
G37*
G36*
X160989800Y-110729400D02*
G01*
X159239800Y-110729400D01*
X159239800Y-110279400D01*
X160989800Y-110279400D01*
X160989800Y-110729400D01*
G37*
G36*
X153789800Y-110079400D02*
G01*
X152039800Y-110079400D01*
X152039800Y-109629400D01*
X153789800Y-109629400D01*
X153789800Y-110079400D01*
G37*
G36*
X160989800Y-110079400D02*
G01*
X159239800Y-110079400D01*
X159239800Y-109629400D01*
X160989800Y-109629400D01*
X160989800Y-110079400D01*
G37*
G36*
X153789800Y-109429400D02*
G01*
X152039800Y-109429400D01*
X152039800Y-108979400D01*
X153789800Y-108979400D01*
X153789800Y-109429400D01*
G37*
G36*
X160989800Y-109429400D02*
G01*
X159239800Y-109429400D01*
X159239800Y-108979400D01*
X160989800Y-108979400D01*
X160989800Y-109429400D01*
G37*
G36*
X163253304Y-108481527D02*
G01*
X163326299Y-108530301D01*
X163375073Y-108603296D01*
X163392200Y-108689400D01*
X163392200Y-109189400D01*
X163375073Y-109275504D01*
X163326299Y-109348499D01*
X163253304Y-109397273D01*
X163167200Y-109414400D01*
X162717200Y-109414400D01*
X162631096Y-109397273D01*
X162558101Y-109348499D01*
X162509327Y-109275504D01*
X162492200Y-109189400D01*
X162492200Y-108689400D01*
X162509327Y-108603296D01*
X162558101Y-108530301D01*
X162631096Y-108481527D01*
X162717200Y-108464400D01*
X163167200Y-108464400D01*
X163253304Y-108481527D01*
G37*
G36*
X164803304Y-108481527D02*
G01*
X164876299Y-108530301D01*
X164925073Y-108603296D01*
X164942200Y-108689400D01*
X164942200Y-109189400D01*
X164925073Y-109275504D01*
X164876299Y-109348499D01*
X164803304Y-109397273D01*
X164717200Y-109414400D01*
X164267200Y-109414400D01*
X164181096Y-109397273D01*
X164108101Y-109348499D01*
X164059327Y-109275504D01*
X164042200Y-109189400D01*
X164042200Y-108689400D01*
X164059327Y-108603296D01*
X164108101Y-108530301D01*
X164181096Y-108481527D01*
X164267200Y-108464400D01*
X164717200Y-108464400D01*
X164803304Y-108481527D01*
G37*
G36*
X120658664Y-107395602D02*
G01*
X120821000Y-107467878D01*
X120964761Y-107572327D01*
X121083664Y-107704383D01*
X121172514Y-107858274D01*
X121227425Y-108027275D01*
X121246000Y-108204000D01*
X121227425Y-108380725D01*
X121172514Y-108549726D01*
X121083664Y-108703617D01*
X120964761Y-108835673D01*
X120821000Y-108940122D01*
X120658664Y-109012398D01*
X120484849Y-109049344D01*
X120307151Y-109049344D01*
X120133336Y-109012398D01*
X119971000Y-108940122D01*
X119827239Y-108835673D01*
X119708336Y-108703617D01*
X119619486Y-108549726D01*
X119564575Y-108380725D01*
X119546000Y-108204000D01*
X119564575Y-108027275D01*
X119619486Y-107858274D01*
X119708336Y-107704383D01*
X119827239Y-107572327D01*
X119971000Y-107467878D01*
X120133336Y-107395602D01*
X120307151Y-107358656D01*
X120484849Y-107358656D01*
X120658664Y-107395602D01*
G37*
G36*
X133454116Y-107650818D02*
G01*
X133505379Y-107656766D01*
X133522892Y-107664499D01*
X133545671Y-107669030D01*
X133570057Y-107685324D01*
X133590788Y-107694478D01*
X133604946Y-107708636D01*
X133626777Y-107723223D01*
X133641363Y-107745053D01*
X133655521Y-107759211D01*
X133664673Y-107779939D01*
X133680970Y-107804329D01*
X133685501Y-107827109D01*
X133693233Y-107844620D01*
X133699178Y-107895872D01*
X133700000Y-107900000D01*
X133700000Y-108625000D01*
X133699178Y-108629128D01*
X133693233Y-108680379D01*
X133685501Y-108697888D01*
X133680970Y-108720671D01*
X133664672Y-108745062D01*
X133655521Y-108765788D01*
X133641365Y-108779943D01*
X133626777Y-108801777D01*
X133604943Y-108816365D01*
X133590788Y-108830521D01*
X133570062Y-108839672D01*
X133545671Y-108855970D01*
X133522888Y-108860501D01*
X133505379Y-108868233D01*
X133454129Y-108874178D01*
X133450000Y-108875000D01*
X130600000Y-108875000D01*
X130595873Y-108874179D01*
X130544620Y-108868233D01*
X130527109Y-108860501D01*
X130504329Y-108855970D01*
X130479939Y-108839673D01*
X130459211Y-108830521D01*
X130445053Y-108816363D01*
X130423223Y-108801777D01*
X130408636Y-108779946D01*
X130394478Y-108765788D01*
X130385324Y-108745057D01*
X130369030Y-108720671D01*
X130364499Y-108697892D01*
X130356766Y-108680379D01*
X130350818Y-108629117D01*
X130350000Y-108625000D01*
X130350000Y-107900000D01*
X130350818Y-107895885D01*
X130356766Y-107844620D01*
X130364499Y-107827105D01*
X130369030Y-107804329D01*
X130385323Y-107779944D01*
X130394478Y-107759211D01*
X130408638Y-107745050D01*
X130423223Y-107723223D01*
X130445050Y-107708638D01*
X130459211Y-107694478D01*
X130479944Y-107685323D01*
X130504329Y-107669030D01*
X130527105Y-107664499D01*
X130544620Y-107656766D01*
X130595884Y-107650818D01*
X130600000Y-107650000D01*
X133450000Y-107650000D01*
X133454116Y-107650818D01*
G37*
G36*
X143904116Y-107600818D02*
G01*
X143955379Y-107606766D01*
X143972892Y-107614499D01*
X143995671Y-107619030D01*
X144020057Y-107635324D01*
X144040788Y-107644478D01*
X144054946Y-107658636D01*
X144076777Y-107673223D01*
X144091363Y-107695053D01*
X144105521Y-107709211D01*
X144114673Y-107729939D01*
X144130970Y-107754329D01*
X144135501Y-107777109D01*
X144143233Y-107794620D01*
X144149178Y-107845872D01*
X144150000Y-107850000D01*
X144150000Y-108575000D01*
X144149178Y-108579128D01*
X144143233Y-108630379D01*
X144135501Y-108647888D01*
X144130970Y-108670671D01*
X144114672Y-108695062D01*
X144105521Y-108715788D01*
X144091365Y-108729943D01*
X144076777Y-108751777D01*
X144054943Y-108766365D01*
X144040788Y-108780521D01*
X144020062Y-108789672D01*
X143995671Y-108805970D01*
X143972888Y-108810501D01*
X143955379Y-108818233D01*
X143904129Y-108824178D01*
X143900000Y-108825000D01*
X141050000Y-108825000D01*
X141045873Y-108824179D01*
X140994620Y-108818233D01*
X140977109Y-108810501D01*
X140954329Y-108805970D01*
X140929939Y-108789673D01*
X140909211Y-108780521D01*
X140895053Y-108766363D01*
X140873223Y-108751777D01*
X140858636Y-108729946D01*
X140844478Y-108715788D01*
X140835324Y-108695057D01*
X140819030Y-108670671D01*
X140814499Y-108647892D01*
X140806766Y-108630379D01*
X140800818Y-108579117D01*
X140800000Y-108575000D01*
X140800000Y-107850000D01*
X140800818Y-107845885D01*
X140806766Y-107794620D01*
X140814499Y-107777105D01*
X140819030Y-107754329D01*
X140835323Y-107729944D01*
X140844478Y-107709211D01*
X140858638Y-107695050D01*
X140873223Y-107673223D01*
X140895050Y-107658638D01*
X140909211Y-107644478D01*
X140929944Y-107635323D01*
X140954329Y-107619030D01*
X140977105Y-107614499D01*
X140994620Y-107606766D01*
X141045884Y-107600818D01*
X141050000Y-107600000D01*
X143900000Y-107600000D01*
X143904116Y-107600818D01*
G37*
G36*
X153789800Y-108779400D02*
G01*
X152039800Y-108779400D01*
X152039800Y-108329400D01*
X153789800Y-108329400D01*
X153789800Y-108779400D01*
G37*
G36*
X160989800Y-108779400D02*
G01*
X159239800Y-108779400D01*
X159239800Y-108329400D01*
X160989800Y-108329400D01*
X160989800Y-108779400D01*
G37*
G36*
X153789800Y-108129400D02*
G01*
X152039800Y-108129400D01*
X152039800Y-107679400D01*
X153789800Y-107679400D01*
X153789800Y-108129400D01*
G37*
G36*
X160989800Y-108129400D02*
G01*
X159239800Y-108129400D01*
X159239800Y-107679400D01*
X160989800Y-107679400D01*
X160989800Y-108129400D01*
G37*
G36*
X137461104Y-106742127D02*
G01*
X137534099Y-106790901D01*
X137582873Y-106863896D01*
X137600000Y-106950000D01*
X137600000Y-107400000D01*
X137582873Y-107486104D01*
X137534099Y-107559099D01*
X137461104Y-107607873D01*
X137375000Y-107625000D01*
X136875000Y-107625000D01*
X136788896Y-107607873D01*
X136715901Y-107559099D01*
X136667127Y-107486104D01*
X136650000Y-107400000D01*
X136650000Y-106950000D01*
X136667127Y-106863896D01*
X136715901Y-106790901D01*
X136788896Y-106742127D01*
X136875000Y-106725000D01*
X137375000Y-106725000D01*
X137461104Y-106742127D01*
G37*
G36*
X163240904Y-106576527D02*
G01*
X163313899Y-106625301D01*
X163362673Y-106698296D01*
X163379800Y-106784400D01*
X163379800Y-107284400D01*
X163362673Y-107370504D01*
X163313899Y-107443499D01*
X163240904Y-107492273D01*
X163154800Y-107509400D01*
X162704800Y-107509400D01*
X162618696Y-107492273D01*
X162545701Y-107443499D01*
X162496927Y-107370504D01*
X162479800Y-107284400D01*
X162479800Y-106784400D01*
X162496927Y-106698296D01*
X162545701Y-106625301D01*
X162618696Y-106576527D01*
X162704800Y-106559400D01*
X163154800Y-106559400D01*
X163240904Y-106576527D01*
G37*
G36*
X164790904Y-106576527D02*
G01*
X164863899Y-106625301D01*
X164912673Y-106698296D01*
X164929800Y-106784400D01*
X164929800Y-107284400D01*
X164912673Y-107370504D01*
X164863899Y-107443499D01*
X164790904Y-107492273D01*
X164704800Y-107509400D01*
X164254800Y-107509400D01*
X164168696Y-107492273D01*
X164095701Y-107443499D01*
X164046927Y-107370504D01*
X164029800Y-107284400D01*
X164029800Y-106784400D01*
X164046927Y-106698296D01*
X164095701Y-106625301D01*
X164168696Y-106576527D01*
X164254800Y-106559400D01*
X164704800Y-106559400D01*
X164790904Y-106576527D01*
G37*
G36*
X153789800Y-107479400D02*
G01*
X152039800Y-107479400D01*
X152039800Y-107029400D01*
X153789800Y-107029400D01*
X153789800Y-107479400D01*
G37*
G36*
X160989800Y-107479400D02*
G01*
X159239800Y-107479400D01*
X159239800Y-107029400D01*
X160989800Y-107029400D01*
X160989800Y-107479400D01*
G37*
G36*
X153789800Y-106829400D02*
G01*
X152039800Y-106829400D01*
X152039800Y-106379400D01*
X153789800Y-106379400D01*
X153789800Y-106829400D01*
G37*
G36*
X160989800Y-106829400D02*
G01*
X159239800Y-106829400D01*
X159239800Y-106379400D01*
X160989800Y-106379400D01*
X160989800Y-106829400D01*
G37*
G36*
X120658664Y-104855602D02*
G01*
X120821000Y-104927878D01*
X120964761Y-105032327D01*
X121083664Y-105164383D01*
X121172514Y-105318274D01*
X121227425Y-105487275D01*
X121246000Y-105664000D01*
X121227425Y-105840725D01*
X121172514Y-106009726D01*
X121083664Y-106163617D01*
X120964761Y-106295673D01*
X120821000Y-106400122D01*
X120658664Y-106472398D01*
X120484849Y-106509344D01*
X120307151Y-106509344D01*
X120133336Y-106472398D01*
X119971000Y-106400122D01*
X119827239Y-106295673D01*
X119708336Y-106163617D01*
X119619486Y-106009726D01*
X119564575Y-105840725D01*
X119546000Y-105664000D01*
X119564575Y-105487275D01*
X119619486Y-105318274D01*
X119708336Y-105164383D01*
X119827239Y-105032327D01*
X119971000Y-104927878D01*
X120133336Y-104855602D01*
X120307151Y-104818656D01*
X120484849Y-104818656D01*
X120658664Y-104855602D01*
G37*
G36*
X125900000Y-106475000D02*
G01*
X124200000Y-106475000D01*
X124200000Y-104775000D01*
X125900000Y-104775000D01*
X125900000Y-106475000D01*
G37*
G36*
X127852664Y-104816602D02*
G01*
X128015000Y-104888878D01*
X128158761Y-104993327D01*
X128277664Y-105125383D01*
X128366514Y-105279274D01*
X128421425Y-105448275D01*
X128440000Y-105625000D01*
X128421425Y-105801725D01*
X128366514Y-105970726D01*
X128277664Y-106124617D01*
X128158761Y-106256673D01*
X128015000Y-106361122D01*
X127852664Y-106433398D01*
X127678849Y-106470344D01*
X127501151Y-106470344D01*
X127327336Y-106433398D01*
X127165000Y-106361122D01*
X127021239Y-106256673D01*
X126902336Y-106124617D01*
X126813486Y-105970726D01*
X126758575Y-105801725D01*
X126740000Y-105625000D01*
X126758575Y-105448275D01*
X126813486Y-105279274D01*
X126902336Y-105125383D01*
X127021239Y-104993327D01*
X127165000Y-104888878D01*
X127327336Y-104816602D01*
X127501151Y-104779656D01*
X127678849Y-104779656D01*
X127852664Y-104816602D01*
G37*
G36*
X153789800Y-106179400D02*
G01*
X152039800Y-106179400D01*
X152039800Y-105729400D01*
X153789800Y-105729400D01*
X153789800Y-106179400D01*
G37*
G36*
X160989800Y-106179400D02*
G01*
X159239800Y-106179400D01*
X159239800Y-105729400D01*
X160989800Y-105729400D01*
X160989800Y-106179400D01*
G37*
G36*
X137461104Y-105192127D02*
G01*
X137534099Y-105240901D01*
X137582873Y-105313896D01*
X137600000Y-105400000D01*
X137600000Y-105850000D01*
X137582873Y-105936104D01*
X137534099Y-106009099D01*
X137461104Y-106057873D01*
X137375000Y-106075000D01*
X136875000Y-106075000D01*
X136788896Y-106057873D01*
X136715901Y-106009099D01*
X136667127Y-105936104D01*
X136650000Y-105850000D01*
X136650000Y-105400000D01*
X136667127Y-105313896D01*
X136715901Y-105240901D01*
X136788896Y-105192127D01*
X136875000Y-105175000D01*
X137375000Y-105175000D01*
X137461104Y-105192127D01*
G37*
G36*
X153789800Y-105529400D02*
G01*
X152039800Y-105529400D01*
X152039800Y-105079400D01*
X153789800Y-105079400D01*
X153789800Y-105529400D01*
G37*
G36*
X160989800Y-105529400D02*
G01*
X159239800Y-105529400D01*
X159239800Y-105079400D01*
X160989800Y-105079400D01*
X160989800Y-105529400D01*
G37*
G36*
X153789800Y-104879400D02*
G01*
X152039800Y-104879400D01*
X152039800Y-104429400D01*
X153789800Y-104429400D01*
X153789800Y-104879400D01*
G37*
G36*
X160989800Y-104879400D02*
G01*
X159239800Y-104879400D01*
X159239800Y-104429400D01*
X160989800Y-104429400D01*
X160989800Y-104879400D01*
G37*
G36*
X153789800Y-104229400D02*
G01*
X152039800Y-104229400D01*
X152039800Y-103779400D01*
X153789800Y-103779400D01*
X153789800Y-104229400D01*
G37*
G36*
X160989800Y-104229400D02*
G01*
X159239800Y-104229400D01*
X159239800Y-103779400D01*
X160989800Y-103779400D01*
X160989800Y-104229400D01*
G37*
G36*
X121246000Y-103974000D02*
G01*
X119546000Y-103974000D01*
X119546000Y-102274000D01*
X121246000Y-102274000D01*
X121246000Y-103974000D01*
G37*
G36*
X135999685Y-103873000D02*
G01*
X135745685Y-103873000D01*
X135745685Y-103111000D01*
X135999685Y-103111000D01*
X135999685Y-103873000D01*
G37*
G36*
X136499811Y-103873000D02*
G01*
X136245811Y-103873000D01*
X136245811Y-103111000D01*
X136499811Y-103111000D01*
X136499811Y-103873000D01*
G37*
G36*
X136999937Y-103873000D02*
G01*
X136745937Y-103873000D01*
X136745937Y-103111000D01*
X136999937Y-103111000D01*
X136999937Y-103873000D01*
G37*
G36*
X137500063Y-103873000D02*
G01*
X137246063Y-103873000D01*
X137246063Y-103111000D01*
X137500063Y-103111000D01*
X137500063Y-103873000D01*
G37*
G36*
X138000189Y-103873000D02*
G01*
X137746189Y-103873000D01*
X137746189Y-103111000D01*
X138000189Y-103111000D01*
X138000189Y-103873000D01*
G37*
G36*
X138500315Y-103873000D02*
G01*
X138246315Y-103873000D01*
X138246315Y-103111000D01*
X138500315Y-103111000D01*
X138500315Y-103873000D01*
G37*
G36*
X145901537Y-102615224D02*
G01*
X145966421Y-102658579D01*
X146009776Y-102723463D01*
X146025000Y-102800000D01*
X146025000Y-103200000D01*
X146009776Y-103276537D01*
X145966421Y-103341421D01*
X145901537Y-103384776D01*
X145825000Y-103400000D01*
X145275000Y-103400000D01*
X145198463Y-103384776D01*
X145133579Y-103341421D01*
X145090224Y-103276537D01*
X145075000Y-103200000D01*
X145075000Y-102800000D01*
X145090224Y-102723463D01*
X145133579Y-102658579D01*
X145198463Y-102615224D01*
X145275000Y-102600000D01*
X145825000Y-102600000D01*
X145901537Y-102615224D01*
G37*
G36*
X133454116Y-101725818D02*
G01*
X133505379Y-101731766D01*
X133522892Y-101739499D01*
X133545671Y-101744030D01*
X133570057Y-101760324D01*
X133590788Y-101769478D01*
X133604946Y-101783636D01*
X133626777Y-101798223D01*
X133641363Y-101820053D01*
X133655521Y-101834211D01*
X133664673Y-101854939D01*
X133680970Y-101879329D01*
X133685501Y-101902109D01*
X133693233Y-101919620D01*
X133699178Y-101970872D01*
X133700000Y-101975000D01*
X133700000Y-102700000D01*
X133699178Y-102704128D01*
X133693233Y-102755379D01*
X133685501Y-102772888D01*
X133680970Y-102795671D01*
X133664672Y-102820062D01*
X133655521Y-102840788D01*
X133641365Y-102854943D01*
X133626777Y-102876777D01*
X133604943Y-102891365D01*
X133590788Y-102905521D01*
X133570062Y-102914672D01*
X133545671Y-102930970D01*
X133522888Y-102935501D01*
X133505379Y-102943233D01*
X133454129Y-102949178D01*
X133450000Y-102950000D01*
X130600000Y-102950000D01*
X130595873Y-102949179D01*
X130544620Y-102943233D01*
X130527109Y-102935501D01*
X130504329Y-102930970D01*
X130479939Y-102914673D01*
X130459211Y-102905521D01*
X130445053Y-102891363D01*
X130423223Y-102876777D01*
X130408636Y-102854946D01*
X130394478Y-102840788D01*
X130385324Y-102820057D01*
X130369030Y-102795671D01*
X130364499Y-102772892D01*
X130356766Y-102755379D01*
X130350818Y-102704117D01*
X130350000Y-102700000D01*
X130350000Y-101975000D01*
X130350818Y-101970885D01*
X130356766Y-101919620D01*
X130364499Y-101902105D01*
X130369030Y-101879329D01*
X130385323Y-101854944D01*
X130394478Y-101834211D01*
X130408638Y-101820050D01*
X130423223Y-101798223D01*
X130445050Y-101783638D01*
X130459211Y-101769478D01*
X130479944Y-101760323D01*
X130504329Y-101744030D01*
X130527105Y-101739499D01*
X130544620Y-101731766D01*
X130595884Y-101725818D01*
X130600000Y-101725000D01*
X133450000Y-101725000D01*
X133454116Y-101725818D01*
G37*
G36*
X135535500Y-102900815D02*
G01*
X134773500Y-102900815D01*
X134773500Y-102646815D01*
X135535500Y-102646815D01*
X135535500Y-102900815D01*
G37*
G36*
X139472500Y-102900815D02*
G01*
X138710500Y-102900815D01*
X138710500Y-102646815D01*
X139472500Y-102646815D01*
X139472500Y-102900815D01*
G37*
G36*
X143904116Y-101675818D02*
G01*
X143955379Y-101681766D01*
X143972892Y-101689499D01*
X143995671Y-101694030D01*
X144020057Y-101710324D01*
X144040788Y-101719478D01*
X144054946Y-101733636D01*
X144076777Y-101748223D01*
X144091363Y-101770053D01*
X144105521Y-101784211D01*
X144114673Y-101804939D01*
X144130970Y-101829329D01*
X144135501Y-101852109D01*
X144143233Y-101869620D01*
X144149178Y-101920872D01*
X144150000Y-101925000D01*
X144150000Y-102650000D01*
X144149178Y-102654128D01*
X144143233Y-102705379D01*
X144135501Y-102722888D01*
X144130970Y-102745671D01*
X144114672Y-102770062D01*
X144105521Y-102790788D01*
X144091365Y-102804943D01*
X144076777Y-102826777D01*
X144054943Y-102841365D01*
X144040788Y-102855521D01*
X144020062Y-102864672D01*
X143995671Y-102880970D01*
X143972888Y-102885501D01*
X143955379Y-102893233D01*
X143904129Y-102899178D01*
X143900000Y-102900000D01*
X141050000Y-102900000D01*
X141045873Y-102899179D01*
X140994620Y-102893233D01*
X140977109Y-102885501D01*
X140954329Y-102880970D01*
X140929939Y-102864673D01*
X140909211Y-102855521D01*
X140895053Y-102841363D01*
X140873223Y-102826777D01*
X140858636Y-102804946D01*
X140844478Y-102790788D01*
X140835324Y-102770057D01*
X140819030Y-102745671D01*
X140814499Y-102722892D01*
X140806766Y-102705379D01*
X140800818Y-102654117D01*
X140800000Y-102650000D01*
X140800000Y-101925000D01*
X140800818Y-101920885D01*
X140806766Y-101869620D01*
X140814499Y-101852105D01*
X140819030Y-101829329D01*
X140835323Y-101804944D01*
X140844478Y-101784211D01*
X140858638Y-101770050D01*
X140873223Y-101748223D01*
X140895050Y-101733638D01*
X140909211Y-101719478D01*
X140929944Y-101710323D01*
X140954329Y-101694030D01*
X140977105Y-101689499D01*
X140994620Y-101681766D01*
X141045884Y-101675818D01*
X141050000Y-101675000D01*
X143900000Y-101675000D01*
X143904116Y-101675818D01*
G37*
G36*
X138443800Y-102844300D02*
G01*
X135802200Y-102844300D01*
X135802200Y-100202700D01*
X138443800Y-100202700D01*
X138443800Y-102844300D01*
G37*
G36*
X135535500Y-102400689D02*
G01*
X134773500Y-102400689D01*
X134773500Y-102146689D01*
X135535500Y-102146689D01*
X135535500Y-102400689D01*
G37*
G36*
X139472500Y-102400689D02*
G01*
X138710500Y-102400689D01*
X138710500Y-102146689D01*
X139472500Y-102146689D01*
X139472500Y-102400689D01*
G37*
G36*
X128965537Y-101518724D02*
G01*
X129030421Y-101562079D01*
X129073776Y-101626963D01*
X129089000Y-101703500D01*
X129089000Y-102103500D01*
X129073776Y-102180037D01*
X129030421Y-102244921D01*
X128965537Y-102288276D01*
X128889000Y-102303500D01*
X128339000Y-102303500D01*
X128262463Y-102288276D01*
X128197579Y-102244921D01*
X128154224Y-102180037D01*
X128139000Y-102103500D01*
X128139000Y-101703500D01*
X128154224Y-101626963D01*
X128197579Y-101562079D01*
X128262463Y-101518724D01*
X128339000Y-101503500D01*
X128889000Y-101503500D01*
X128965537Y-101518724D01*
G37*
G36*
X135535500Y-101900563D02*
G01*
X134773500Y-101900563D01*
X134773500Y-101646563D01*
X135535500Y-101646563D01*
X135535500Y-101900563D01*
G37*
G36*
X139472500Y-101900563D02*
G01*
X138710500Y-101900563D01*
X138710500Y-101646563D01*
X139472500Y-101646563D01*
X139472500Y-101900563D01*
G37*
G36*
X145901537Y-100965224D02*
G01*
X145966421Y-101008579D01*
X146009776Y-101073463D01*
X146025000Y-101150000D01*
X146025000Y-101550000D01*
X146009776Y-101626537D01*
X145966421Y-101691421D01*
X145901537Y-101734776D01*
X145825000Y-101750000D01*
X145275000Y-101750000D01*
X145198463Y-101734776D01*
X145133579Y-101691421D01*
X145090224Y-101626537D01*
X145075000Y-101550000D01*
X145075000Y-101150000D01*
X145090224Y-101073463D01*
X145133579Y-101008579D01*
X145198463Y-100965224D01*
X145275000Y-100950000D01*
X145825000Y-100950000D01*
X145901537Y-100965224D01*
G37*
G36*
X135535500Y-101400437D02*
G01*
X134773500Y-101400437D01*
X134773500Y-101146437D01*
X135535500Y-101146437D01*
X135535500Y-101400437D01*
G37*
G36*
X139472500Y-101400437D02*
G01*
X138710500Y-101400437D01*
X138710500Y-101146437D01*
X139472500Y-101146437D01*
X139472500Y-101400437D01*
G37*
G36*
X135535500Y-100900311D02*
G01*
X134773500Y-100900311D01*
X134773500Y-100646311D01*
X135535500Y-100646311D01*
X135535500Y-100900311D01*
G37*
G36*
X139472500Y-100900311D02*
G01*
X138710500Y-100900311D01*
X138710500Y-100646311D01*
X139472500Y-100646311D01*
X139472500Y-100900311D01*
G37*
G36*
X128965537Y-99868724D02*
G01*
X129030421Y-99912079D01*
X129073776Y-99976963D01*
X129089000Y-100053500D01*
X129089000Y-100453500D01*
X129073776Y-100530037D01*
X129030421Y-100594921D01*
X128965537Y-100638276D01*
X128889000Y-100653500D01*
X128339000Y-100653500D01*
X128262463Y-100638276D01*
X128197579Y-100594921D01*
X128154224Y-100530037D01*
X128139000Y-100453500D01*
X128139000Y-100053500D01*
X128154224Y-99976963D01*
X128197579Y-99912079D01*
X128262463Y-99868724D01*
X128339000Y-99853500D01*
X128889000Y-99853500D01*
X128965537Y-99868724D01*
G37*
G36*
X130855104Y-99706627D02*
G01*
X130928099Y-99755401D01*
X130976873Y-99828396D01*
X130994000Y-99914500D01*
X130994000Y-100364500D01*
X130976873Y-100450604D01*
X130928099Y-100523599D01*
X130855104Y-100572373D01*
X130769000Y-100589500D01*
X130269000Y-100589500D01*
X130182896Y-100572373D01*
X130109901Y-100523599D01*
X130061127Y-100450604D01*
X130044000Y-100364500D01*
X130044000Y-99914500D01*
X130061127Y-99828396D01*
X130109901Y-99755401D01*
X130182896Y-99706627D01*
X130269000Y-99689500D01*
X130769000Y-99689500D01*
X130855104Y-99706627D01*
G37*
G36*
X133365104Y-99706627D02*
G01*
X133438099Y-99755401D01*
X133486873Y-99828396D01*
X133504000Y-99914500D01*
X133504000Y-100364500D01*
X133486873Y-100450604D01*
X133438099Y-100523599D01*
X133365104Y-100572373D01*
X133279000Y-100589500D01*
X132779000Y-100589500D01*
X132692896Y-100572373D01*
X132619901Y-100523599D01*
X132571127Y-100450604D01*
X132554000Y-100364500D01*
X132554000Y-99914500D01*
X132571127Y-99828396D01*
X132619901Y-99755401D01*
X132692896Y-99706627D01*
X132779000Y-99689500D01*
X133279000Y-99689500D01*
X133365104Y-99706627D01*
G37*
G36*
X135535500Y-100400185D02*
G01*
X134773500Y-100400185D01*
X134773500Y-100146185D01*
X135535500Y-100146185D01*
X135535500Y-100400185D01*
G37*
G36*
X139472500Y-100400185D02*
G01*
X138710500Y-100400185D01*
X138710500Y-100146185D01*
X139472500Y-100146185D01*
X139472500Y-100400185D01*
G37*
G36*
X162314464Y-98744802D02*
G01*
X162476800Y-98817078D01*
X162620561Y-98921527D01*
X162739464Y-99053583D01*
X162828314Y-99207474D01*
X162883225Y-99376475D01*
X162901800Y-99553200D01*
X162883225Y-99729925D01*
X162828314Y-99898926D01*
X162739464Y-100052817D01*
X162620561Y-100184873D01*
X162476800Y-100289322D01*
X162314464Y-100361598D01*
X162140649Y-100398544D01*
X161962951Y-100398544D01*
X161789136Y-100361598D01*
X161626800Y-100289322D01*
X161483039Y-100184873D01*
X161364136Y-100052817D01*
X161275286Y-99898926D01*
X161220375Y-99729925D01*
X161201800Y-99553200D01*
X161220375Y-99376475D01*
X161275286Y-99207474D01*
X161364136Y-99053583D01*
X161483039Y-98921527D01*
X161626800Y-98817078D01*
X161789136Y-98744802D01*
X161962951Y-98707856D01*
X162140649Y-98707856D01*
X162314464Y-98744802D01*
G37*
G36*
X145840104Y-99110127D02*
G01*
X145913099Y-99158901D01*
X145961873Y-99231896D01*
X145979000Y-99318000D01*
X145979000Y-99818000D01*
X145961873Y-99904104D01*
X145913099Y-99977099D01*
X145840104Y-100025873D01*
X145754000Y-100043000D01*
X145304000Y-100043000D01*
X145217896Y-100025873D01*
X145144901Y-99977099D01*
X145096127Y-99904104D01*
X145079000Y-99818000D01*
X145079000Y-99318000D01*
X145096127Y-99231896D01*
X145144901Y-99158901D01*
X145217896Y-99110127D01*
X145304000Y-99093000D01*
X145754000Y-99093000D01*
X145840104Y-99110127D01*
G37*
G36*
X147390104Y-99110127D02*
G01*
X147463099Y-99158901D01*
X147511873Y-99231896D01*
X147529000Y-99318000D01*
X147529000Y-99818000D01*
X147511873Y-99904104D01*
X147463099Y-99977099D01*
X147390104Y-100025873D01*
X147304000Y-100043000D01*
X146854000Y-100043000D01*
X146767896Y-100025873D01*
X146694901Y-99977099D01*
X146646127Y-99904104D01*
X146629000Y-99818000D01*
X146629000Y-99318000D01*
X146646127Y-99231896D01*
X146694901Y-99158901D01*
X146767896Y-99110127D01*
X146854000Y-99093000D01*
X147304000Y-99093000D01*
X147390104Y-99110127D01*
G37*
G36*
X135999685Y-99936000D02*
G01*
X135745685Y-99936000D01*
X135745685Y-99174000D01*
X135999685Y-99174000D01*
X135999685Y-99936000D01*
G37*
G36*
X136499811Y-99936000D02*
G01*
X136245811Y-99936000D01*
X136245811Y-99174000D01*
X136499811Y-99174000D01*
X136499811Y-99936000D01*
G37*
G36*
X136999937Y-99936000D02*
G01*
X136745937Y-99936000D01*
X136745937Y-99174000D01*
X136999937Y-99174000D01*
X136999937Y-99936000D01*
G37*
G36*
X137500063Y-99936000D02*
G01*
X137246063Y-99936000D01*
X137246063Y-99174000D01*
X137500063Y-99174000D01*
X137500063Y-99936000D01*
G37*
G36*
X138000189Y-99936000D02*
G01*
X137746189Y-99936000D01*
X137746189Y-99174000D01*
X138000189Y-99174000D01*
X138000189Y-99936000D01*
G37*
G36*
X138500315Y-99936000D02*
G01*
X138246315Y-99936000D01*
X138246315Y-99174000D01*
X138500315Y-99174000D01*
X138500315Y-99936000D01*
G37*
G36*
X142411104Y-98475127D02*
G01*
X142484099Y-98523901D01*
X142532873Y-98596896D01*
X142550000Y-98683000D01*
X142550000Y-99183000D01*
X142532873Y-99269104D01*
X142484099Y-99342099D01*
X142411104Y-99390873D01*
X142325000Y-99408000D01*
X141875000Y-99408000D01*
X141788896Y-99390873D01*
X141715901Y-99342099D01*
X141667127Y-99269104D01*
X141650000Y-99183000D01*
X141650000Y-98683000D01*
X141667127Y-98596896D01*
X141715901Y-98523901D01*
X141788896Y-98475127D01*
X141875000Y-98458000D01*
X142325000Y-98458000D01*
X142411104Y-98475127D01*
G37*
G36*
X143961104Y-98475127D02*
G01*
X144034099Y-98523901D01*
X144082873Y-98596896D01*
X144100000Y-98683000D01*
X144100000Y-99183000D01*
X144082873Y-99269104D01*
X144034099Y-99342099D01*
X143961104Y-99390873D01*
X143875000Y-99408000D01*
X143425000Y-99408000D01*
X143338896Y-99390873D01*
X143265901Y-99342099D01*
X143217127Y-99269104D01*
X143200000Y-99183000D01*
X143200000Y-98683000D01*
X143217127Y-98596896D01*
X143265901Y-98523901D01*
X143338896Y-98475127D01*
X143425000Y-98458000D01*
X143875000Y-98458000D01*
X143961104Y-98475127D01*
G37*
G36*
X130855104Y-98156627D02*
G01*
X130928099Y-98205401D01*
X130976873Y-98278396D01*
X130994000Y-98364500D01*
X130994000Y-98814500D01*
X130976873Y-98900604D01*
X130928099Y-98973599D01*
X130855104Y-99022373D01*
X130769000Y-99039500D01*
X130269000Y-99039500D01*
X130182896Y-99022373D01*
X130109901Y-98973599D01*
X130061127Y-98900604D01*
X130044000Y-98814500D01*
X130044000Y-98364500D01*
X130061127Y-98278396D01*
X130109901Y-98205401D01*
X130182896Y-98156627D01*
X130269000Y-98139500D01*
X130769000Y-98139500D01*
X130855104Y-98156627D01*
G37*
G36*
X133365104Y-98156627D02*
G01*
X133438099Y-98205401D01*
X133486873Y-98278396D01*
X133504000Y-98364500D01*
X133504000Y-98814500D01*
X133486873Y-98900604D01*
X133438099Y-98973599D01*
X133365104Y-99022373D01*
X133279000Y-99039500D01*
X132779000Y-99039500D01*
X132692896Y-99022373D01*
X132619901Y-98973599D01*
X132571127Y-98900604D01*
X132554000Y-98814500D01*
X132554000Y-98364500D01*
X132571127Y-98278396D01*
X132619901Y-98205401D01*
X132692896Y-98156627D01*
X132779000Y-98139500D01*
X133279000Y-98139500D01*
X133365104Y-98156627D01*
G37*
G36*
X153946962Y-98005051D02*
G01*
X154017930Y-98052470D01*
X154065349Y-98123438D01*
X154082000Y-98207150D01*
X154082000Y-98719650D01*
X154065349Y-98803362D01*
X154017930Y-98874330D01*
X153946962Y-98921749D01*
X153863250Y-98938400D01*
X153425750Y-98938400D01*
X153342038Y-98921749D01*
X153271070Y-98874330D01*
X153223651Y-98803362D01*
X153207000Y-98719650D01*
X153207000Y-98207150D01*
X153223651Y-98123438D01*
X153271070Y-98052470D01*
X153342038Y-98005051D01*
X153425750Y-97988400D01*
X153863250Y-97988400D01*
X153946962Y-98005051D01*
G37*
G36*
X155521962Y-98005051D02*
G01*
X155592930Y-98052470D01*
X155640349Y-98123438D01*
X155657000Y-98207150D01*
X155657000Y-98719650D01*
X155640349Y-98803362D01*
X155592930Y-98874330D01*
X155521962Y-98921749D01*
X155438250Y-98938400D01*
X155000750Y-98938400D01*
X154917038Y-98921749D01*
X154846070Y-98874330D01*
X154798651Y-98803362D01*
X154782000Y-98719650D01*
X154782000Y-98207150D01*
X154798651Y-98123438D01*
X154846070Y-98052470D01*
X154917038Y-98005051D01*
X155000750Y-97988400D01*
X155438250Y-97988400D01*
X155521962Y-98005051D01*
G37*
G36*
X122690664Y-97235602D02*
G01*
X122853000Y-97307878D01*
X122996761Y-97412327D01*
X123115664Y-97544383D01*
X123204514Y-97698274D01*
X123259425Y-97867275D01*
X123278000Y-98044000D01*
X123259425Y-98220725D01*
X123204514Y-98389726D01*
X123115664Y-98543617D01*
X122996761Y-98675673D01*
X122853000Y-98780122D01*
X122690664Y-98852398D01*
X122516849Y-98889344D01*
X122339151Y-98889344D01*
X122165336Y-98852398D01*
X122003000Y-98780122D01*
X121859239Y-98675673D01*
X121740336Y-98543617D01*
X121651486Y-98389726D01*
X121596575Y-98220725D01*
X121578000Y-98044000D01*
X121596575Y-97867275D01*
X121651486Y-97698274D01*
X121740336Y-97544383D01*
X121859239Y-97412327D01*
X122003000Y-97307878D01*
X122165336Y-97235602D01*
X122339151Y-97198656D01*
X122516849Y-97198656D01*
X122690664Y-97235602D01*
G37*
G36*
X157577337Y-98093424D02*
G01*
X157642221Y-98136779D01*
X157685576Y-98201663D01*
X157700800Y-98278200D01*
X157700800Y-98678200D01*
X157685576Y-98754737D01*
X157642221Y-98819621D01*
X157577337Y-98862976D01*
X157500800Y-98878200D01*
X156950800Y-98878200D01*
X156874263Y-98862976D01*
X156809379Y-98819621D01*
X156766024Y-98754737D01*
X156750800Y-98678200D01*
X156750800Y-98278200D01*
X156766024Y-98201663D01*
X156809379Y-98136779D01*
X156874263Y-98093424D01*
X156950800Y-98078200D01*
X157500800Y-98078200D01*
X157577337Y-98093424D01*
G37*
G36*
X128965537Y-98089724D02*
G01*
X129030421Y-98133079D01*
X129073776Y-98197963D01*
X129089000Y-98274500D01*
X129089000Y-98674500D01*
X129073776Y-98751037D01*
X129030421Y-98815921D01*
X128965537Y-98859276D01*
X128889000Y-98874500D01*
X128339000Y-98874500D01*
X128262463Y-98859276D01*
X128197579Y-98815921D01*
X128154224Y-98751037D01*
X128139000Y-98674500D01*
X128139000Y-98274500D01*
X128154224Y-98197963D01*
X128197579Y-98133079D01*
X128262463Y-98089724D01*
X128339000Y-98074500D01*
X128889000Y-98074500D01*
X128965537Y-98089724D01*
G37*
G36*
X135485443Y-97088709D02*
G01*
X135550327Y-97132064D01*
X135593682Y-97196948D01*
X135608906Y-97273485D01*
X135608906Y-97673485D01*
X135593682Y-97750022D01*
X135550327Y-97814906D01*
X135485443Y-97858261D01*
X135408906Y-97873485D01*
X134858906Y-97873485D01*
X134782369Y-97858261D01*
X134717485Y-97814906D01*
X134674130Y-97750022D01*
X134658906Y-97673485D01*
X134658906Y-97273485D01*
X134674130Y-97196948D01*
X134717485Y-97132064D01*
X134782369Y-97088709D01*
X134858906Y-97073485D01*
X135408906Y-97073485D01*
X135485443Y-97088709D01*
G37*
G36*
X162901800Y-97863200D02*
G01*
X161201800Y-97863200D01*
X161201800Y-96163200D01*
X162901800Y-96163200D01*
X162901800Y-97863200D01*
G37*
G36*
X142326537Y-96441224D02*
G01*
X142391421Y-96484579D01*
X142434776Y-96549463D01*
X142450000Y-96626000D01*
X142450000Y-97176000D01*
X142434776Y-97252537D01*
X142391421Y-97317421D01*
X142326537Y-97360776D01*
X142250000Y-97376000D01*
X141850000Y-97376000D01*
X141773463Y-97360776D01*
X141708579Y-97317421D01*
X141665224Y-97252537D01*
X141650000Y-97176000D01*
X141650000Y-96626000D01*
X141665224Y-96549463D01*
X141708579Y-96484579D01*
X141773463Y-96441224D01*
X141850000Y-96426000D01*
X142250000Y-96426000D01*
X142326537Y-96441224D01*
G37*
G36*
X143976537Y-96441224D02*
G01*
X144041421Y-96484579D01*
X144084776Y-96549463D01*
X144100000Y-96626000D01*
X144100000Y-97176000D01*
X144084776Y-97252537D01*
X144041421Y-97317421D01*
X143976537Y-97360776D01*
X143900000Y-97376000D01*
X143500000Y-97376000D01*
X143423463Y-97360776D01*
X143358579Y-97317421D01*
X143315224Y-97252537D01*
X143300000Y-97176000D01*
X143300000Y-96626000D01*
X143315224Y-96549463D01*
X143358579Y-96484579D01*
X143423463Y-96441224D01*
X143500000Y-96426000D01*
X143900000Y-96426000D01*
X143976537Y-96441224D01*
G37*
G36*
X157577337Y-96443424D02*
G01*
X157642221Y-96486779D01*
X157685576Y-96551663D01*
X157700800Y-96628200D01*
X157700800Y-97028200D01*
X157685576Y-97104737D01*
X157642221Y-97169621D01*
X157577337Y-97212976D01*
X157500800Y-97228200D01*
X156950800Y-97228200D01*
X156874263Y-97212976D01*
X156809379Y-97169621D01*
X156766024Y-97104737D01*
X156750800Y-97028200D01*
X156750800Y-96628200D01*
X156766024Y-96551663D01*
X156809379Y-96486779D01*
X156874263Y-96443424D01*
X156950800Y-96428200D01*
X157500800Y-96428200D01*
X157577337Y-96443424D01*
G37*
G36*
X128965537Y-96439724D02*
G01*
X129030421Y-96483079D01*
X129073776Y-96547963D01*
X129089000Y-96624500D01*
X129089000Y-97024500D01*
X129073776Y-97101037D01*
X129030421Y-97165921D01*
X128965537Y-97209276D01*
X128889000Y-97224500D01*
X128339000Y-97224500D01*
X128262463Y-97209276D01*
X128197579Y-97165921D01*
X128154224Y-97101037D01*
X128139000Y-97024500D01*
X128139000Y-96624500D01*
X128154224Y-96547963D01*
X128197579Y-96483079D01*
X128262463Y-96439724D01*
X128339000Y-96424500D01*
X128889000Y-96424500D01*
X128965537Y-96439724D01*
G37*
G36*
X122690664Y-94695602D02*
G01*
X122853000Y-94767878D01*
X122996761Y-94872327D01*
X123115664Y-95004383D01*
X123204514Y-95158274D01*
X123259425Y-95327275D01*
X123278000Y-95504000D01*
X123259425Y-95680725D01*
X123204514Y-95849726D01*
X123115664Y-96003617D01*
X122996761Y-96135673D01*
X122853000Y-96240122D01*
X122690664Y-96312398D01*
X122516849Y-96349344D01*
X122339151Y-96349344D01*
X122165336Y-96312398D01*
X122003000Y-96240122D01*
X121859239Y-96135673D01*
X121740336Y-96003617D01*
X121651486Y-95849726D01*
X121596575Y-95680725D01*
X121578000Y-95504000D01*
X121596575Y-95327275D01*
X121651486Y-95158274D01*
X121740336Y-95004383D01*
X121859239Y-94872327D01*
X122003000Y-94767878D01*
X122165336Y-94695602D01*
X122339151Y-94658656D01*
X122516849Y-94658656D01*
X122690664Y-94695602D01*
G37*
G36*
X135485443Y-95438709D02*
G01*
X135550327Y-95482064D01*
X135593682Y-95546948D01*
X135608906Y-95623485D01*
X135608906Y-96023485D01*
X135593682Y-96100022D01*
X135550327Y-96164906D01*
X135485443Y-96208261D01*
X135408906Y-96223485D01*
X134858906Y-96223485D01*
X134782369Y-96208261D01*
X134717485Y-96164906D01*
X134674130Y-96100022D01*
X134658906Y-96023485D01*
X134658906Y-95623485D01*
X134674130Y-95546948D01*
X134717485Y-95482064D01*
X134782369Y-95438709D01*
X134858906Y-95423485D01*
X135408906Y-95423485D01*
X135485443Y-95438709D01*
G37*
G36*
X176809400Y-95961500D02*
G01*
X173304200Y-95961500D01*
X173304200Y-92303900D01*
X176809400Y-92303900D01*
X176809400Y-95961500D01*
G37*
G36*
X165448904Y-95008327D02*
G01*
X165521899Y-95057101D01*
X165570673Y-95130096D01*
X165587800Y-95216200D01*
X165587800Y-95716200D01*
X165570673Y-95802304D01*
X165521899Y-95875299D01*
X165448904Y-95924073D01*
X165362800Y-95941200D01*
X164912800Y-95941200D01*
X164826696Y-95924073D01*
X164753701Y-95875299D01*
X164704927Y-95802304D01*
X164687800Y-95716200D01*
X164687800Y-95216200D01*
X164704927Y-95130096D01*
X164753701Y-95057101D01*
X164826696Y-95008327D01*
X164912800Y-94991200D01*
X165362800Y-94991200D01*
X165448904Y-95008327D01*
G37*
G36*
X166998904Y-95008327D02*
G01*
X167071899Y-95057101D01*
X167120673Y-95130096D01*
X167137800Y-95216200D01*
X167137800Y-95716200D01*
X167120673Y-95802304D01*
X167071899Y-95875299D01*
X166998904Y-95924073D01*
X166912800Y-95941200D01*
X166462800Y-95941200D01*
X166376696Y-95924073D01*
X166303701Y-95875299D01*
X166254927Y-95802304D01*
X166237800Y-95716200D01*
X166237800Y-95216200D01*
X166254927Y-95130096D01*
X166303701Y-95057101D01*
X166376696Y-95008327D01*
X166462800Y-94991200D01*
X166912800Y-94991200D01*
X166998904Y-95008327D01*
G37*
G36*
X165461904Y-93230327D02*
G01*
X165534899Y-93279101D01*
X165583673Y-93352096D01*
X165600800Y-93438200D01*
X165600800Y-93938200D01*
X165583673Y-94024304D01*
X165534899Y-94097299D01*
X165461904Y-94146073D01*
X165375800Y-94163200D01*
X164925800Y-94163200D01*
X164839696Y-94146073D01*
X164766701Y-94097299D01*
X164717927Y-94024304D01*
X164700800Y-93938200D01*
X164700800Y-93438200D01*
X164717927Y-93352096D01*
X164766701Y-93279101D01*
X164839696Y-93230327D01*
X164925800Y-93213200D01*
X165375800Y-93213200D01*
X165461904Y-93230327D01*
G37*
G36*
X167011904Y-93230327D02*
G01*
X167084899Y-93279101D01*
X167133673Y-93352096D01*
X167150800Y-93438200D01*
X167150800Y-93938200D01*
X167133673Y-94024304D01*
X167084899Y-94097299D01*
X167011904Y-94146073D01*
X166925800Y-94163200D01*
X166475800Y-94163200D01*
X166389696Y-94146073D01*
X166316701Y-94097299D01*
X166267927Y-94024304D01*
X166250800Y-93938200D01*
X166250800Y-93438200D01*
X166267927Y-93352096D01*
X166316701Y-93279101D01*
X166389696Y-93230327D01*
X166475800Y-93213200D01*
X166925800Y-93213200D01*
X167011904Y-93230327D01*
G37*
G36*
X122690664Y-92155602D02*
G01*
X122853000Y-92227878D01*
X122996761Y-92332327D01*
X123115664Y-92464383D01*
X123204514Y-92618274D01*
X123259425Y-92787275D01*
X123278000Y-92964000D01*
X123259425Y-93140725D01*
X123204514Y-93309726D01*
X123115664Y-93463617D01*
X122996761Y-93595673D01*
X122853000Y-93700122D01*
X122690664Y-93772398D01*
X122516849Y-93809344D01*
X122339151Y-93809344D01*
X122165336Y-93772398D01*
X122003000Y-93700122D01*
X121859239Y-93595673D01*
X121740336Y-93463617D01*
X121651486Y-93309726D01*
X121596575Y-93140725D01*
X121578000Y-92964000D01*
X121596575Y-92787275D01*
X121651486Y-92618274D01*
X121740336Y-92464383D01*
X121859239Y-92332327D01*
X122003000Y-92227878D01*
X122165336Y-92155602D01*
X122339151Y-92118656D01*
X122516849Y-92118656D01*
X122690664Y-92155602D01*
G37*
G36*
X154818904Y-92760327D02*
G01*
X154891899Y-92809101D01*
X154940673Y-92882096D01*
X154957800Y-92968200D01*
X154957800Y-93418200D01*
X154940673Y-93504304D01*
X154891899Y-93577299D01*
X154818904Y-93626073D01*
X154732800Y-93643200D01*
X154232800Y-93643200D01*
X154146696Y-93626073D01*
X154073701Y-93577299D01*
X154024927Y-93504304D01*
X154007800Y-93418200D01*
X154007800Y-92968200D01*
X154024927Y-92882096D01*
X154073701Y-92809101D01*
X154146696Y-92760327D01*
X154232800Y-92743200D01*
X154732800Y-92743200D01*
X154818904Y-92760327D01*
G37*
G36*
X115050000Y-92407000D02*
G01*
X113550000Y-92407000D01*
X113550000Y-90907000D01*
X115050000Y-90907000D01*
X115050000Y-92407000D01*
G37*
G36*
X154818904Y-91210327D02*
G01*
X154891899Y-91259101D01*
X154940673Y-91332096D01*
X154957800Y-91418200D01*
X154957800Y-91868200D01*
X154940673Y-91954304D01*
X154891899Y-92027299D01*
X154818904Y-92076073D01*
X154732800Y-92093200D01*
X154232800Y-92093200D01*
X154146696Y-92076073D01*
X154073701Y-92027299D01*
X154024927Y-91954304D01*
X154007800Y-91868200D01*
X154007800Y-91418200D01*
X154024927Y-91332096D01*
X154073701Y-91259101D01*
X154146696Y-91210327D01*
X154232800Y-91193200D01*
X154732800Y-91193200D01*
X154818904Y-91210327D01*
G37*
G36*
X157598203Y-91301618D02*
G01*
X157646866Y-91334134D01*
X157679382Y-91382797D01*
X157690800Y-91440200D01*
X157690800Y-91740200D01*
X157679382Y-91797603D01*
X157646866Y-91846266D01*
X157598203Y-91878782D01*
X157540800Y-91890200D01*
X156515800Y-91890200D01*
X156458397Y-91878782D01*
X156409734Y-91846266D01*
X156377218Y-91797603D01*
X156365800Y-91740200D01*
X156365800Y-91440200D01*
X156377218Y-91382797D01*
X156409734Y-91334134D01*
X156458397Y-91301618D01*
X156515800Y-91290200D01*
X157540800Y-91290200D01*
X157598203Y-91301618D01*
G37*
G36*
X159873203Y-91301618D02*
G01*
X159921866Y-91334134D01*
X159954382Y-91382797D01*
X159965800Y-91440200D01*
X159965800Y-91740200D01*
X159954382Y-91797603D01*
X159921866Y-91846266D01*
X159873203Y-91878782D01*
X159815800Y-91890200D01*
X158790800Y-91890200D01*
X158733397Y-91878782D01*
X158684734Y-91846266D01*
X158652218Y-91797603D01*
X158640800Y-91740200D01*
X158640800Y-91440200D01*
X158652218Y-91382797D01*
X158684734Y-91334134D01*
X158733397Y-91301618D01*
X158790800Y-91290200D01*
X159815800Y-91290200D01*
X159873203Y-91301618D01*
G37*
G36*
X152548337Y-91080424D02*
G01*
X152613221Y-91123779D01*
X152656576Y-91188663D01*
X152671800Y-91265200D01*
X152671800Y-91665200D01*
X152656576Y-91741737D01*
X152613221Y-91806621D01*
X152548337Y-91849976D01*
X152471800Y-91865200D01*
X151921800Y-91865200D01*
X151845263Y-91849976D01*
X151780379Y-91806621D01*
X151737024Y-91741737D01*
X151721800Y-91665200D01*
X151721800Y-91265200D01*
X151737024Y-91188663D01*
X151780379Y-91123779D01*
X151845263Y-91080424D01*
X151921800Y-91065200D01*
X152471800Y-91065200D01*
X152548337Y-91080424D01*
G37*
G36*
X163454904Y-90982327D02*
G01*
X163527899Y-91031101D01*
X163576673Y-91104096D01*
X163593800Y-91190200D01*
X163593800Y-91640200D01*
X163576673Y-91726304D01*
X163527899Y-91799299D01*
X163454904Y-91848073D01*
X163368800Y-91865200D01*
X162868800Y-91865200D01*
X162782696Y-91848073D01*
X162709701Y-91799299D01*
X162660927Y-91726304D01*
X162643800Y-91640200D01*
X162643800Y-91190200D01*
X162660927Y-91104096D01*
X162709701Y-91031101D01*
X162782696Y-90982327D01*
X162868800Y-90965200D01*
X163368800Y-90965200D01*
X163454904Y-90982327D01*
G37*
G36*
X165486904Y-90982327D02*
G01*
X165559899Y-91031101D01*
X165608673Y-91104096D01*
X165625800Y-91190200D01*
X165625800Y-91640200D01*
X165608673Y-91726304D01*
X165559899Y-91799299D01*
X165486904Y-91848073D01*
X165400800Y-91865200D01*
X164900800Y-91865200D01*
X164814696Y-91848073D01*
X164741701Y-91799299D01*
X164692927Y-91726304D01*
X164675800Y-91640200D01*
X164675800Y-91190200D01*
X164692927Y-91104096D01*
X164741701Y-91031101D01*
X164814696Y-90982327D01*
X164900800Y-90965200D01*
X165400800Y-90965200D01*
X165486904Y-90982327D01*
G37*
G36*
X122690664Y-89615602D02*
G01*
X122853000Y-89687878D01*
X122996761Y-89792327D01*
X123115664Y-89924383D01*
X123204514Y-90078274D01*
X123259425Y-90247275D01*
X123278000Y-90424000D01*
X123259425Y-90600725D01*
X123204514Y-90769726D01*
X123115664Y-90923617D01*
X122996761Y-91055673D01*
X122853000Y-91160122D01*
X122690664Y-91232398D01*
X122516849Y-91269344D01*
X122339151Y-91269344D01*
X122165336Y-91232398D01*
X122003000Y-91160122D01*
X121859239Y-91055673D01*
X121740336Y-90923617D01*
X121651486Y-90769726D01*
X121596575Y-90600725D01*
X121578000Y-90424000D01*
X121596575Y-90247275D01*
X121651486Y-90078274D01*
X121740336Y-89924383D01*
X121859239Y-89792327D01*
X122003000Y-89687878D01*
X122165336Y-89615602D01*
X122339151Y-89578656D01*
X122516849Y-89578656D01*
X122690664Y-89615602D01*
G37*
G36*
X157598203Y-90351618D02*
G01*
X157646866Y-90384134D01*
X157679382Y-90432797D01*
X157690800Y-90490200D01*
X157690800Y-90790200D01*
X157679382Y-90847603D01*
X157646866Y-90896266D01*
X157598203Y-90928782D01*
X157540800Y-90940200D01*
X156515800Y-90940200D01*
X156458397Y-90928782D01*
X156409734Y-90896266D01*
X156377218Y-90847603D01*
X156365800Y-90790200D01*
X156365800Y-90490200D01*
X156377218Y-90432797D01*
X156409734Y-90384134D01*
X156458397Y-90351618D01*
X156515800Y-90340200D01*
X157540800Y-90340200D01*
X157598203Y-90351618D01*
G37*
G36*
X159873203Y-90351618D02*
G01*
X159921866Y-90384134D01*
X159954382Y-90432797D01*
X159965800Y-90490200D01*
X159965800Y-90790200D01*
X159954382Y-90847603D01*
X159921866Y-90896266D01*
X159873203Y-90928782D01*
X159815800Y-90940200D01*
X158790800Y-90940200D01*
X158733397Y-90928782D01*
X158684734Y-90896266D01*
X158652218Y-90847603D01*
X158640800Y-90790200D01*
X158640800Y-90490200D01*
X158652218Y-90432797D01*
X158684734Y-90384134D01*
X158733397Y-90351618D01*
X158790800Y-90340200D01*
X159815800Y-90340200D01*
X159873203Y-90351618D01*
G37*
G36*
X163454904Y-89432327D02*
G01*
X163527899Y-89481101D01*
X163576673Y-89554096D01*
X163593800Y-89640200D01*
X163593800Y-90090200D01*
X163576673Y-90176304D01*
X163527899Y-90249299D01*
X163454904Y-90298073D01*
X163368800Y-90315200D01*
X162868800Y-90315200D01*
X162782696Y-90298073D01*
X162709701Y-90249299D01*
X162660927Y-90176304D01*
X162643800Y-90090200D01*
X162643800Y-89640200D01*
X162660927Y-89554096D01*
X162709701Y-89481101D01*
X162782696Y-89432327D01*
X162868800Y-89415200D01*
X163368800Y-89415200D01*
X163454904Y-89432327D01*
G37*
G36*
X165486904Y-89432327D02*
G01*
X165559899Y-89481101D01*
X165608673Y-89554096D01*
X165625800Y-89640200D01*
X165625800Y-90090200D01*
X165608673Y-90176304D01*
X165559899Y-90249299D01*
X165486904Y-90298073D01*
X165400800Y-90315200D01*
X164900800Y-90315200D01*
X164814696Y-90298073D01*
X164741701Y-90249299D01*
X164692927Y-90176304D01*
X164675800Y-90090200D01*
X164675800Y-89640200D01*
X164692927Y-89554096D01*
X164741701Y-89481101D01*
X164814696Y-89432327D01*
X164900800Y-89415200D01*
X165400800Y-89415200D01*
X165486904Y-89432327D01*
G37*
G36*
X152548337Y-89430424D02*
G01*
X152613221Y-89473779D01*
X152656576Y-89538663D01*
X152671800Y-89615200D01*
X152671800Y-90015200D01*
X152656576Y-90091737D01*
X152613221Y-90156621D01*
X152548337Y-90199976D01*
X152471800Y-90215200D01*
X151921800Y-90215200D01*
X151845263Y-90199976D01*
X151780379Y-90156621D01*
X151737024Y-90091737D01*
X151721800Y-90015200D01*
X151721800Y-89615200D01*
X151737024Y-89538663D01*
X151780379Y-89473779D01*
X151845263Y-89430424D01*
X151921800Y-89415200D01*
X152471800Y-89415200D01*
X152548337Y-89430424D01*
G37*
G36*
X157598203Y-89401618D02*
G01*
X157646866Y-89434134D01*
X157679382Y-89482797D01*
X157690800Y-89540200D01*
X157690800Y-89840200D01*
X157679382Y-89897603D01*
X157646866Y-89946266D01*
X157598203Y-89978782D01*
X157540800Y-89990200D01*
X156515800Y-89990200D01*
X156458397Y-89978782D01*
X156409734Y-89946266D01*
X156377218Y-89897603D01*
X156365800Y-89840200D01*
X156365800Y-89540200D01*
X156377218Y-89482797D01*
X156409734Y-89434134D01*
X156458397Y-89401618D01*
X156515800Y-89390200D01*
X157540800Y-89390200D01*
X157598203Y-89401618D01*
G37*
G36*
X159873203Y-89401618D02*
G01*
X159921866Y-89434134D01*
X159954382Y-89482797D01*
X159965800Y-89540200D01*
X159965800Y-89840200D01*
X159954382Y-89897603D01*
X159921866Y-89946266D01*
X159873203Y-89978782D01*
X159815800Y-89990200D01*
X158790800Y-89990200D01*
X158733397Y-89978782D01*
X158684734Y-89946266D01*
X158652218Y-89897603D01*
X158640800Y-89840200D01*
X158640800Y-89540200D01*
X158652218Y-89482797D01*
X158684734Y-89434134D01*
X158733397Y-89401618D01*
X158790800Y-89390200D01*
X159815800Y-89390200D01*
X159873203Y-89401618D01*
G37*
G36*
X123278000Y-88734000D02*
G01*
X121578000Y-88734000D01*
X121578000Y-87034000D01*
X123278000Y-87034000D01*
X123278000Y-88734000D01*
G37*
G36*
X127909701Y-87250709D02*
G01*
X127934033Y-87266967D01*
X127950291Y-87291299D01*
X127956000Y-87320000D01*
X127956000Y-88645000D01*
X127950291Y-88673701D01*
X127934033Y-88698033D01*
X127909701Y-88714291D01*
X127881000Y-88720000D01*
X127731000Y-88720000D01*
X127702299Y-88714291D01*
X127677967Y-88698033D01*
X127661709Y-88673701D01*
X127656000Y-88645000D01*
X127656000Y-87320000D01*
X127661709Y-87291299D01*
X127677967Y-87266967D01*
X127702299Y-87250709D01*
X127731000Y-87245000D01*
X127881000Y-87245000D01*
X127909701Y-87250709D01*
G37*
G36*
X128409701Y-87250709D02*
G01*
X128434033Y-87266967D01*
X128450291Y-87291299D01*
X128456000Y-87320000D01*
X128456000Y-88645000D01*
X128450291Y-88673701D01*
X128434033Y-88698033D01*
X128409701Y-88714291D01*
X128381000Y-88720000D01*
X128231000Y-88720000D01*
X128202299Y-88714291D01*
X128177967Y-88698033D01*
X128161709Y-88673701D01*
X128156000Y-88645000D01*
X128156000Y-87320000D01*
X128161709Y-87291299D01*
X128177967Y-87266967D01*
X128202299Y-87250709D01*
X128231000Y-87245000D01*
X128381000Y-87245000D01*
X128409701Y-87250709D01*
G37*
G36*
X128909701Y-87250709D02*
G01*
X128934033Y-87266967D01*
X128950291Y-87291299D01*
X128956000Y-87320000D01*
X128956000Y-88645000D01*
X128950291Y-88673701D01*
X128934033Y-88698033D01*
X128909701Y-88714291D01*
X128881000Y-88720000D01*
X128731000Y-88720000D01*
X128702299Y-88714291D01*
X128677967Y-88698033D01*
X128661709Y-88673701D01*
X128656000Y-88645000D01*
X128656000Y-87320000D01*
X128661709Y-87291299D01*
X128677967Y-87266967D01*
X128702299Y-87250709D01*
X128731000Y-87245000D01*
X128881000Y-87245000D01*
X128909701Y-87250709D01*
G37*
G36*
X129409701Y-87250709D02*
G01*
X129434033Y-87266967D01*
X129450291Y-87291299D01*
X129456000Y-87320000D01*
X129456000Y-88645000D01*
X129450291Y-88673701D01*
X129434033Y-88698033D01*
X129409701Y-88714291D01*
X129381000Y-88720000D01*
X129231000Y-88720000D01*
X129202299Y-88714291D01*
X129177967Y-88698033D01*
X129161709Y-88673701D01*
X129156000Y-88645000D01*
X129156000Y-87320000D01*
X129161709Y-87291299D01*
X129177967Y-87266967D01*
X129202299Y-87250709D01*
X129231000Y-87245000D01*
X129381000Y-87245000D01*
X129409701Y-87250709D01*
G37*
G36*
X129909701Y-87250709D02*
G01*
X129934033Y-87266967D01*
X129950291Y-87291299D01*
X129956000Y-87320000D01*
X129956000Y-88645000D01*
X129950291Y-88673701D01*
X129934033Y-88698033D01*
X129909701Y-88714291D01*
X129881000Y-88720000D01*
X129731000Y-88720000D01*
X129702299Y-88714291D01*
X129677967Y-88698033D01*
X129661709Y-88673701D01*
X129656000Y-88645000D01*
X129656000Y-87320000D01*
X129661709Y-87291299D01*
X129677967Y-87266967D01*
X129702299Y-87250709D01*
X129731000Y-87245000D01*
X129881000Y-87245000D01*
X129909701Y-87250709D01*
G37*
G36*
X130409701Y-87250709D02*
G01*
X130434033Y-87266967D01*
X130450291Y-87291299D01*
X130456000Y-87320000D01*
X130456000Y-88645000D01*
X130450291Y-88673701D01*
X130434033Y-88698033D01*
X130409701Y-88714291D01*
X130381000Y-88720000D01*
X130231000Y-88720000D01*
X130202299Y-88714291D01*
X130177967Y-88698033D01*
X130161709Y-88673701D01*
X130156000Y-88645000D01*
X130156000Y-87320000D01*
X130161709Y-87291299D01*
X130177967Y-87266967D01*
X130202299Y-87250709D01*
X130231000Y-87245000D01*
X130381000Y-87245000D01*
X130409701Y-87250709D01*
G37*
G36*
X130909701Y-87250709D02*
G01*
X130934033Y-87266967D01*
X130950291Y-87291299D01*
X130956000Y-87320000D01*
X130956000Y-88645000D01*
X130950291Y-88673701D01*
X130934033Y-88698033D01*
X130909701Y-88714291D01*
X130881000Y-88720000D01*
X130731000Y-88720000D01*
X130702299Y-88714291D01*
X130677967Y-88698033D01*
X130661709Y-88673701D01*
X130656000Y-88645000D01*
X130656000Y-87320000D01*
X130661709Y-87291299D01*
X130677967Y-87266967D01*
X130702299Y-87250709D01*
X130731000Y-87245000D01*
X130881000Y-87245000D01*
X130909701Y-87250709D01*
G37*
G36*
X131409701Y-87250709D02*
G01*
X131434033Y-87266967D01*
X131450291Y-87291299D01*
X131456000Y-87320000D01*
X131456000Y-88645000D01*
X131450291Y-88673701D01*
X131434033Y-88698033D01*
X131409701Y-88714291D01*
X131381000Y-88720000D01*
X131231000Y-88720000D01*
X131202299Y-88714291D01*
X131177967Y-88698033D01*
X131161709Y-88673701D01*
X131156000Y-88645000D01*
X131156000Y-87320000D01*
X131161709Y-87291299D01*
X131177967Y-87266967D01*
X131202299Y-87250709D01*
X131231000Y-87245000D01*
X131381000Y-87245000D01*
X131409701Y-87250709D01*
G37*
G36*
X131909701Y-87250709D02*
G01*
X131934033Y-87266967D01*
X131950291Y-87291299D01*
X131956000Y-87320000D01*
X131956000Y-88645000D01*
X131950291Y-88673701D01*
X131934033Y-88698033D01*
X131909701Y-88714291D01*
X131881000Y-88720000D01*
X131731000Y-88720000D01*
X131702299Y-88714291D01*
X131677967Y-88698033D01*
X131661709Y-88673701D01*
X131656000Y-88645000D01*
X131656000Y-87320000D01*
X131661709Y-87291299D01*
X131677967Y-87266967D01*
X131702299Y-87250709D01*
X131731000Y-87245000D01*
X131881000Y-87245000D01*
X131909701Y-87250709D01*
G37*
G36*
X132409701Y-87250709D02*
G01*
X132434033Y-87266967D01*
X132450291Y-87291299D01*
X132456000Y-87320000D01*
X132456000Y-88645000D01*
X132450291Y-88673701D01*
X132434033Y-88698033D01*
X132409701Y-88714291D01*
X132381000Y-88720000D01*
X132231000Y-88720000D01*
X132202299Y-88714291D01*
X132177967Y-88698033D01*
X132161709Y-88673701D01*
X132156000Y-88645000D01*
X132156000Y-87320000D01*
X132161709Y-87291299D01*
X132177967Y-87266967D01*
X132202299Y-87250709D01*
X132231000Y-87245000D01*
X132381000Y-87245000D01*
X132409701Y-87250709D01*
G37*
G36*
X132909701Y-87250709D02*
G01*
X132934033Y-87266967D01*
X132950291Y-87291299D01*
X132956000Y-87320000D01*
X132956000Y-88645000D01*
X132950291Y-88673701D01*
X132934033Y-88698033D01*
X132909701Y-88714291D01*
X132881000Y-88720000D01*
X132731000Y-88720000D01*
X132702299Y-88714291D01*
X132677967Y-88698033D01*
X132661709Y-88673701D01*
X132656000Y-88645000D01*
X132656000Y-87320000D01*
X132661709Y-87291299D01*
X132677967Y-87266967D01*
X132702299Y-87250709D01*
X132731000Y-87245000D01*
X132881000Y-87245000D01*
X132909701Y-87250709D01*
G37*
G36*
X133409701Y-87250709D02*
G01*
X133434033Y-87266967D01*
X133450291Y-87291299D01*
X133456000Y-87320000D01*
X133456000Y-88645000D01*
X133450291Y-88673701D01*
X133434033Y-88698033D01*
X133409701Y-88714291D01*
X133381000Y-88720000D01*
X133231000Y-88720000D01*
X133202299Y-88714291D01*
X133177967Y-88698033D01*
X133161709Y-88673701D01*
X133156000Y-88645000D01*
X133156000Y-87320000D01*
X133161709Y-87291299D01*
X133177967Y-87266967D01*
X133202299Y-87250709D01*
X133231000Y-87245000D01*
X133381000Y-87245000D01*
X133409701Y-87250709D01*
G37*
G36*
X152410337Y-87386424D02*
G01*
X152475221Y-87429779D01*
X152518576Y-87494663D01*
X152533800Y-87571200D01*
X152533800Y-88121200D01*
X152518576Y-88197737D01*
X152475221Y-88262621D01*
X152410337Y-88305976D01*
X152333800Y-88321200D01*
X151933800Y-88321200D01*
X151857263Y-88305976D01*
X151792379Y-88262621D01*
X151749024Y-88197737D01*
X151733800Y-88121200D01*
X151733800Y-87571200D01*
X151749024Y-87494663D01*
X151792379Y-87429779D01*
X151857263Y-87386424D01*
X151933800Y-87371200D01*
X152333800Y-87371200D01*
X152410337Y-87386424D01*
G37*
G36*
X154060337Y-87386424D02*
G01*
X154125221Y-87429779D01*
X154168576Y-87494663D01*
X154183800Y-87571200D01*
X154183800Y-88121200D01*
X154168576Y-88197737D01*
X154125221Y-88262621D01*
X154060337Y-88305976D01*
X153983800Y-88321200D01*
X153583800Y-88321200D01*
X153507263Y-88305976D01*
X153442379Y-88262621D01*
X153399024Y-88197737D01*
X153383800Y-88121200D01*
X153383800Y-87571200D01*
X153399024Y-87494663D01*
X153442379Y-87429779D01*
X153507263Y-87386424D01*
X153583800Y-87371200D01*
X153983800Y-87371200D01*
X154060337Y-87386424D01*
G37*
G36*
X127084701Y-86425709D02*
G01*
X127109033Y-86441967D01*
X127125291Y-86466299D01*
X127131000Y-86495000D01*
X127131000Y-86645000D01*
X127125291Y-86673701D01*
X127109033Y-86698033D01*
X127084701Y-86714291D01*
X127056000Y-86720000D01*
X125731000Y-86720000D01*
X125702299Y-86714291D01*
X125677967Y-86698033D01*
X125661709Y-86673701D01*
X125656000Y-86645000D01*
X125656000Y-86495000D01*
X125661709Y-86466299D01*
X125677967Y-86441967D01*
X125702299Y-86425709D01*
X125731000Y-86420000D01*
X127056000Y-86420000D01*
X127084701Y-86425709D01*
G37*
G36*
X135409701Y-86425709D02*
G01*
X135434033Y-86441967D01*
X135450291Y-86466299D01*
X135456000Y-86495000D01*
X135456000Y-86645000D01*
X135450291Y-86673701D01*
X135434033Y-86698033D01*
X135409701Y-86714291D01*
X135381000Y-86720000D01*
X134056000Y-86720000D01*
X134027299Y-86714291D01*
X134002967Y-86698033D01*
X133986709Y-86673701D01*
X133981000Y-86645000D01*
X133981000Y-86495000D01*
X133986709Y-86466299D01*
X134002967Y-86441967D01*
X134027299Y-86425709D01*
X134056000Y-86420000D01*
X135381000Y-86420000D01*
X135409701Y-86425709D01*
G37*
G36*
X152494904Y-85356327D02*
G01*
X152567899Y-85405101D01*
X152616673Y-85478096D01*
X152633800Y-85564200D01*
X152633800Y-86064200D01*
X152616673Y-86150304D01*
X152567899Y-86223299D01*
X152494904Y-86272073D01*
X152408800Y-86289200D01*
X151958800Y-86289200D01*
X151872696Y-86272073D01*
X151799701Y-86223299D01*
X151750927Y-86150304D01*
X151733800Y-86064200D01*
X151733800Y-85564200D01*
X151750927Y-85478096D01*
X151799701Y-85405101D01*
X151872696Y-85356327D01*
X151958800Y-85339200D01*
X152408800Y-85339200D01*
X152494904Y-85356327D01*
G37*
G36*
X154044904Y-85356327D02*
G01*
X154117899Y-85405101D01*
X154166673Y-85478096D01*
X154183800Y-85564200D01*
X154183800Y-86064200D01*
X154166673Y-86150304D01*
X154117899Y-86223299D01*
X154044904Y-86272073D01*
X153958800Y-86289200D01*
X153508800Y-86289200D01*
X153422696Y-86272073D01*
X153349701Y-86223299D01*
X153300927Y-86150304D01*
X153283800Y-86064200D01*
X153283800Y-85564200D01*
X153300927Y-85478096D01*
X153349701Y-85405101D01*
X153422696Y-85356327D01*
X153508800Y-85339200D01*
X153958800Y-85339200D01*
X154044904Y-85356327D01*
G37*
G36*
X156358337Y-85492424D02*
G01*
X156423221Y-85535779D01*
X156466576Y-85600663D01*
X156481800Y-85677200D01*
X156481800Y-86077200D01*
X156466576Y-86153737D01*
X156423221Y-86218621D01*
X156358337Y-86261976D01*
X156281800Y-86277200D01*
X155731800Y-86277200D01*
X155655263Y-86261976D01*
X155590379Y-86218621D01*
X155547024Y-86153737D01*
X155531800Y-86077200D01*
X155531800Y-85677200D01*
X155547024Y-85600663D01*
X155590379Y-85535779D01*
X155655263Y-85492424D01*
X155731800Y-85477200D01*
X156281800Y-85477200D01*
X156358337Y-85492424D01*
G37*
G36*
X127084701Y-85925709D02*
G01*
X127109033Y-85941967D01*
X127125291Y-85966299D01*
X127131000Y-85995000D01*
X127131000Y-86145000D01*
X127125291Y-86173701D01*
X127109033Y-86198033D01*
X127084701Y-86214291D01*
X127056000Y-86220000D01*
X125731000Y-86220000D01*
X125702299Y-86214291D01*
X125677967Y-86198033D01*
X125661709Y-86173701D01*
X125656000Y-86145000D01*
X125656000Y-85995000D01*
X125661709Y-85966299D01*
X125677967Y-85941967D01*
X125702299Y-85925709D01*
X125731000Y-85920000D01*
X127056000Y-85920000D01*
X127084701Y-85925709D01*
G37*
G36*
X135409701Y-85925709D02*
G01*
X135434033Y-85941967D01*
X135450291Y-85966299D01*
X135456000Y-85995000D01*
X135456000Y-86145000D01*
X135450291Y-86173701D01*
X135434033Y-86198033D01*
X135409701Y-86214291D01*
X135381000Y-86220000D01*
X134056000Y-86220000D01*
X134027299Y-86214291D01*
X134002967Y-86198033D01*
X133986709Y-86173701D01*
X133981000Y-86145000D01*
X133981000Y-85995000D01*
X133986709Y-85966299D01*
X134002967Y-85941967D01*
X134027299Y-85925709D01*
X134056000Y-85920000D01*
X135381000Y-85920000D01*
X135409701Y-85925709D01*
G37*
G36*
X127084701Y-85425709D02*
G01*
X127109033Y-85441967D01*
X127125291Y-85466299D01*
X127131000Y-85495000D01*
X127131000Y-85645000D01*
X127125291Y-85673701D01*
X127109033Y-85698033D01*
X127084701Y-85714291D01*
X127056000Y-85720000D01*
X125731000Y-85720000D01*
X125702299Y-85714291D01*
X125677967Y-85698033D01*
X125661709Y-85673701D01*
X125656000Y-85645000D01*
X125656000Y-85495000D01*
X125661709Y-85466299D01*
X125677967Y-85441967D01*
X125702299Y-85425709D01*
X125731000Y-85420000D01*
X127056000Y-85420000D01*
X127084701Y-85425709D01*
G37*
G36*
X135409701Y-85425709D02*
G01*
X135434033Y-85441967D01*
X135450291Y-85466299D01*
X135456000Y-85495000D01*
X135456000Y-85645000D01*
X135450291Y-85673701D01*
X135434033Y-85698033D01*
X135409701Y-85714291D01*
X135381000Y-85720000D01*
X134056000Y-85720000D01*
X134027299Y-85714291D01*
X134002967Y-85698033D01*
X133986709Y-85673701D01*
X133981000Y-85645000D01*
X133981000Y-85495000D01*
X133986709Y-85466299D01*
X134002967Y-85441967D01*
X134027299Y-85425709D01*
X134056000Y-85420000D01*
X135381000Y-85420000D01*
X135409701Y-85425709D01*
G37*
G36*
X176809400Y-85420500D02*
G01*
X173304200Y-85420500D01*
X173304200Y-81762900D01*
X176809400Y-81762900D01*
X176809400Y-85420500D01*
G37*
G36*
X127084701Y-84925709D02*
G01*
X127109033Y-84941967D01*
X127125291Y-84966299D01*
X127131000Y-84995000D01*
X127131000Y-85145000D01*
X127125291Y-85173701D01*
X127109033Y-85198033D01*
X127084701Y-85214291D01*
X127056000Y-85220000D01*
X125731000Y-85220000D01*
X125702299Y-85214291D01*
X125677967Y-85198033D01*
X125661709Y-85173701D01*
X125656000Y-85145000D01*
X125656000Y-84995000D01*
X125661709Y-84966299D01*
X125677967Y-84941967D01*
X125702299Y-84925709D01*
X125731000Y-84920000D01*
X127056000Y-84920000D01*
X127084701Y-84925709D01*
G37*
G36*
X135409701Y-84925709D02*
G01*
X135434033Y-84941967D01*
X135450291Y-84966299D01*
X135456000Y-84995000D01*
X135456000Y-85145000D01*
X135450291Y-85173701D01*
X135434033Y-85198033D01*
X135409701Y-85214291D01*
X135381000Y-85220000D01*
X134056000Y-85220000D01*
X134027299Y-85214291D01*
X134002967Y-85198033D01*
X133986709Y-85173701D01*
X133981000Y-85145000D01*
X133981000Y-84995000D01*
X133986709Y-84966299D01*
X134002967Y-84941967D01*
X134027299Y-84925709D01*
X134056000Y-84920000D01*
X135381000Y-84920000D01*
X135409701Y-84925709D01*
G37*
G36*
X127084701Y-84425709D02*
G01*
X127109033Y-84441967D01*
X127125291Y-84466299D01*
X127131000Y-84495000D01*
X127131000Y-84645000D01*
X127125291Y-84673701D01*
X127109033Y-84698033D01*
X127084701Y-84714291D01*
X127056000Y-84720000D01*
X125731000Y-84720000D01*
X125702299Y-84714291D01*
X125677967Y-84698033D01*
X125661709Y-84673701D01*
X125656000Y-84645000D01*
X125656000Y-84495000D01*
X125661709Y-84466299D01*
X125677967Y-84441967D01*
X125702299Y-84425709D01*
X125731000Y-84420000D01*
X127056000Y-84420000D01*
X127084701Y-84425709D01*
G37*
G36*
X135409701Y-84425709D02*
G01*
X135434033Y-84441967D01*
X135450291Y-84466299D01*
X135456000Y-84495000D01*
X135456000Y-84645000D01*
X135450291Y-84673701D01*
X135434033Y-84698033D01*
X135409701Y-84714291D01*
X135381000Y-84720000D01*
X134056000Y-84720000D01*
X134027299Y-84714291D01*
X134002967Y-84698033D01*
X133986709Y-84673701D01*
X133981000Y-84645000D01*
X133981000Y-84495000D01*
X133986709Y-84466299D01*
X134002967Y-84441967D01*
X134027299Y-84425709D01*
X134056000Y-84420000D01*
X135381000Y-84420000D01*
X135409701Y-84425709D01*
G37*
G36*
X156358337Y-83842424D02*
G01*
X156423221Y-83885779D01*
X156466576Y-83950663D01*
X156481800Y-84027200D01*
X156481800Y-84427200D01*
X156466576Y-84503737D01*
X156423221Y-84568621D01*
X156358337Y-84611976D01*
X156281800Y-84627200D01*
X155731800Y-84627200D01*
X155655263Y-84611976D01*
X155590379Y-84568621D01*
X155547024Y-84503737D01*
X155531800Y-84427200D01*
X155531800Y-84027200D01*
X155547024Y-83950663D01*
X155590379Y-83885779D01*
X155655263Y-83842424D01*
X155731800Y-83827200D01*
X156281800Y-83827200D01*
X156358337Y-83842424D01*
G37*
G36*
X115050000Y-84607000D02*
G01*
X113550000Y-84607000D01*
X113550000Y-83107000D01*
X115050000Y-83107000D01*
X115050000Y-84607000D01*
G37*
G36*
X119081104Y-83527127D02*
G01*
X119154099Y-83575901D01*
X119202873Y-83648896D01*
X119220000Y-83735000D01*
X119220000Y-84185000D01*
X119202873Y-84271104D01*
X119154099Y-84344099D01*
X119081104Y-84392873D01*
X118995000Y-84410000D01*
X118495000Y-84410000D01*
X118408896Y-84392873D01*
X118335901Y-84344099D01*
X118287127Y-84271104D01*
X118270000Y-84185000D01*
X118270000Y-83735000D01*
X118287127Y-83648896D01*
X118335901Y-83575901D01*
X118408896Y-83527127D01*
X118495000Y-83510000D01*
X118995000Y-83510000D01*
X119081104Y-83527127D01*
G37*
G36*
X127084701Y-83925709D02*
G01*
X127109033Y-83941967D01*
X127125291Y-83966299D01*
X127131000Y-83995000D01*
X127131000Y-84145000D01*
X127125291Y-84173701D01*
X127109033Y-84198033D01*
X127084701Y-84214291D01*
X127056000Y-84220000D01*
X125731000Y-84220000D01*
X125702299Y-84214291D01*
X125677967Y-84198033D01*
X125661709Y-84173701D01*
X125656000Y-84145000D01*
X125656000Y-83995000D01*
X125661709Y-83966299D01*
X125677967Y-83941967D01*
X125702299Y-83925709D01*
X125731000Y-83920000D01*
X127056000Y-83920000D01*
X127084701Y-83925709D01*
G37*
G36*
X135409701Y-83925709D02*
G01*
X135434033Y-83941967D01*
X135450291Y-83966299D01*
X135456000Y-83995000D01*
X135456000Y-84145000D01*
X135450291Y-84173701D01*
X135434033Y-84198033D01*
X135409701Y-84214291D01*
X135381000Y-84220000D01*
X134056000Y-84220000D01*
X134027299Y-84214291D01*
X134002967Y-84198033D01*
X133986709Y-84173701D01*
X133981000Y-84145000D01*
X133981000Y-83995000D01*
X133986709Y-83966299D01*
X134002967Y-83941967D01*
X134027299Y-83925709D01*
X134056000Y-83920000D01*
X135381000Y-83920000D01*
X135409701Y-83925709D01*
G37*
G36*
X127084701Y-83425709D02*
G01*
X127109033Y-83441967D01*
X127125291Y-83466299D01*
X127131000Y-83495000D01*
X127131000Y-83645000D01*
X127125291Y-83673701D01*
X127109033Y-83698033D01*
X127084701Y-83714291D01*
X127056000Y-83720000D01*
X125731000Y-83720000D01*
X125702299Y-83714291D01*
X125677967Y-83698033D01*
X125661709Y-83673701D01*
X125656000Y-83645000D01*
X125656000Y-83495000D01*
X125661709Y-83466299D01*
X125677967Y-83441967D01*
X125702299Y-83425709D01*
X125731000Y-83420000D01*
X127056000Y-83420000D01*
X127084701Y-83425709D01*
G37*
G36*
X135409701Y-83425709D02*
G01*
X135434033Y-83441967D01*
X135450291Y-83466299D01*
X135456000Y-83495000D01*
X135456000Y-83645000D01*
X135450291Y-83673701D01*
X135434033Y-83698033D01*
X135409701Y-83714291D01*
X135381000Y-83720000D01*
X134056000Y-83720000D01*
X134027299Y-83714291D01*
X134002967Y-83698033D01*
X133986709Y-83673701D01*
X133981000Y-83645000D01*
X133981000Y-83495000D01*
X133986709Y-83466299D01*
X134002967Y-83441967D01*
X134027299Y-83425709D01*
X134056000Y-83420000D01*
X135381000Y-83420000D01*
X135409701Y-83425709D01*
G37*
G36*
X127084701Y-82925709D02*
G01*
X127109033Y-82941967D01*
X127125291Y-82966299D01*
X127131000Y-82995000D01*
X127131000Y-83145000D01*
X127125291Y-83173701D01*
X127109033Y-83198033D01*
X127084701Y-83214291D01*
X127056000Y-83220000D01*
X125731000Y-83220000D01*
X125702299Y-83214291D01*
X125677967Y-83198033D01*
X125661709Y-83173701D01*
X125656000Y-83145000D01*
X125656000Y-82995000D01*
X125661709Y-82966299D01*
X125677967Y-82941967D01*
X125702299Y-82925709D01*
X125731000Y-82920000D01*
X127056000Y-82920000D01*
X127084701Y-82925709D01*
G37*
G36*
X135409701Y-82925709D02*
G01*
X135434033Y-82941967D01*
X135450291Y-82966299D01*
X135456000Y-82995000D01*
X135456000Y-83145000D01*
X135450291Y-83173701D01*
X135434033Y-83198033D01*
X135409701Y-83214291D01*
X135381000Y-83220000D01*
X134056000Y-83220000D01*
X134027299Y-83214291D01*
X134002967Y-83198033D01*
X133986709Y-83173701D01*
X133981000Y-83145000D01*
X133981000Y-82995000D01*
X133986709Y-82966299D01*
X134002967Y-82941967D01*
X134027299Y-82925709D01*
X134056000Y-82920000D01*
X135381000Y-82920000D01*
X135409701Y-82925709D01*
G37*
G36*
X119081104Y-81977127D02*
G01*
X119154099Y-82025901D01*
X119202873Y-82098896D01*
X119220000Y-82185000D01*
X119220000Y-82635000D01*
X119202873Y-82721104D01*
X119154099Y-82794099D01*
X119081104Y-82842873D01*
X118995000Y-82860000D01*
X118495000Y-82860000D01*
X118408896Y-82842873D01*
X118335901Y-82794099D01*
X118287127Y-82721104D01*
X118270000Y-82635000D01*
X118270000Y-82185000D01*
X118287127Y-82098896D01*
X118335901Y-82025901D01*
X118408896Y-81977127D01*
X118495000Y-81960000D01*
X118995000Y-81960000D01*
X119081104Y-81977127D01*
G37*
G36*
X127084701Y-82425709D02*
G01*
X127109033Y-82441967D01*
X127125291Y-82466299D01*
X127131000Y-82495000D01*
X127131000Y-82645000D01*
X127125291Y-82673701D01*
X127109033Y-82698033D01*
X127084701Y-82714291D01*
X127056000Y-82720000D01*
X125731000Y-82720000D01*
X125702299Y-82714291D01*
X125677967Y-82698033D01*
X125661709Y-82673701D01*
X125656000Y-82645000D01*
X125656000Y-82495000D01*
X125661709Y-82466299D01*
X125677967Y-82441967D01*
X125702299Y-82425709D01*
X125731000Y-82420000D01*
X127056000Y-82420000D01*
X127084701Y-82425709D01*
G37*
G36*
X135409701Y-82425709D02*
G01*
X135434033Y-82441967D01*
X135450291Y-82466299D01*
X135456000Y-82495000D01*
X135456000Y-82645000D01*
X135450291Y-82673701D01*
X135434033Y-82698033D01*
X135409701Y-82714291D01*
X135381000Y-82720000D01*
X134056000Y-82720000D01*
X134027299Y-82714291D01*
X134002967Y-82698033D01*
X133986709Y-82673701D01*
X133981000Y-82645000D01*
X133981000Y-82495000D01*
X133986709Y-82466299D01*
X134002967Y-82441967D01*
X134027299Y-82425709D01*
X134056000Y-82420000D01*
X135381000Y-82420000D01*
X135409701Y-82425709D01*
G37*
G36*
X127084701Y-81925709D02*
G01*
X127109033Y-81941967D01*
X127125291Y-81966299D01*
X127131000Y-81995000D01*
X127131000Y-82145000D01*
X127125291Y-82173701D01*
X127109033Y-82198033D01*
X127084701Y-82214291D01*
X127056000Y-82220000D01*
X125731000Y-82220000D01*
X125702299Y-82214291D01*
X125677967Y-82198033D01*
X125661709Y-82173701D01*
X125656000Y-82145000D01*
X125656000Y-81995000D01*
X125661709Y-81966299D01*
X125677967Y-81941967D01*
X125702299Y-81925709D01*
X125731000Y-81920000D01*
X127056000Y-81920000D01*
X127084701Y-81925709D01*
G37*
G36*
X135409701Y-81925709D02*
G01*
X135434033Y-81941967D01*
X135450291Y-81966299D01*
X135456000Y-81995000D01*
X135456000Y-82145000D01*
X135450291Y-82173701D01*
X135434033Y-82198033D01*
X135409701Y-82214291D01*
X135381000Y-82220000D01*
X134056000Y-82220000D01*
X134027299Y-82214291D01*
X134002967Y-82198033D01*
X133986709Y-82173701D01*
X133981000Y-82145000D01*
X133981000Y-81995000D01*
X133986709Y-81966299D01*
X134002967Y-81941967D01*
X134027299Y-81925709D01*
X134056000Y-81920000D01*
X135381000Y-81920000D01*
X135409701Y-81925709D01*
G37*
G36*
X163821400Y-81977600D02*
G01*
X162121400Y-81977600D01*
X162121400Y-80277600D01*
X163821400Y-80277600D01*
X163821400Y-81977600D01*
G37*
G36*
X160694064Y-80319202D02*
G01*
X160856400Y-80391478D01*
X161000161Y-80495927D01*
X161119064Y-80627983D01*
X161207914Y-80781874D01*
X161262825Y-80950875D01*
X161281400Y-81127600D01*
X161262825Y-81304325D01*
X161207914Y-81473326D01*
X161119064Y-81627217D01*
X161000161Y-81759273D01*
X160856400Y-81863722D01*
X160694064Y-81935998D01*
X160520249Y-81972944D01*
X160342551Y-81972944D01*
X160168736Y-81935998D01*
X160006400Y-81863722D01*
X159862639Y-81759273D01*
X159743736Y-81627217D01*
X159654886Y-81473326D01*
X159599975Y-81304325D01*
X159581400Y-81127600D01*
X159599975Y-80950875D01*
X159654886Y-80781874D01*
X159743736Y-80627983D01*
X159862639Y-80495927D01*
X160006400Y-80391478D01*
X160168736Y-80319202D01*
X160342551Y-80282256D01*
X160520249Y-80282256D01*
X160694064Y-80319202D01*
G37*
G36*
X127084701Y-81425709D02*
G01*
X127109033Y-81441967D01*
X127125291Y-81466299D01*
X127131000Y-81495000D01*
X127131000Y-81645000D01*
X127125291Y-81673701D01*
X127109033Y-81698033D01*
X127084701Y-81714291D01*
X127056000Y-81720000D01*
X125731000Y-81720000D01*
X125702299Y-81714291D01*
X125677967Y-81698033D01*
X125661709Y-81673701D01*
X125656000Y-81645000D01*
X125656000Y-81495000D01*
X125661709Y-81466299D01*
X125677967Y-81441967D01*
X125702299Y-81425709D01*
X125731000Y-81420000D01*
X127056000Y-81420000D01*
X127084701Y-81425709D01*
G37*
G36*
X135409701Y-81425709D02*
G01*
X135434033Y-81441967D01*
X135450291Y-81466299D01*
X135456000Y-81495000D01*
X135456000Y-81645000D01*
X135450291Y-81673701D01*
X135434033Y-81698033D01*
X135409701Y-81714291D01*
X135381000Y-81720000D01*
X134056000Y-81720000D01*
X134027299Y-81714291D01*
X134002967Y-81698033D01*
X133986709Y-81673701D01*
X133981000Y-81645000D01*
X133981000Y-81495000D01*
X133986709Y-81466299D01*
X134002967Y-81441967D01*
X134027299Y-81425709D01*
X134056000Y-81420000D01*
X135381000Y-81420000D01*
X135409701Y-81425709D01*
G37*
G36*
X127084701Y-80925709D02*
G01*
X127109033Y-80941967D01*
X127125291Y-80966299D01*
X127131000Y-80995000D01*
X127131000Y-81145000D01*
X127125291Y-81173701D01*
X127109033Y-81198033D01*
X127084701Y-81214291D01*
X127056000Y-81220000D01*
X125731000Y-81220000D01*
X125702299Y-81214291D01*
X125677967Y-81198033D01*
X125661709Y-81173701D01*
X125656000Y-81145000D01*
X125656000Y-80995000D01*
X125661709Y-80966299D01*
X125677967Y-80941967D01*
X125702299Y-80925709D01*
X125731000Y-80920000D01*
X127056000Y-80920000D01*
X127084701Y-80925709D01*
G37*
G36*
X135409701Y-80925709D02*
G01*
X135434033Y-80941967D01*
X135450291Y-80966299D01*
X135456000Y-80995000D01*
X135456000Y-81145000D01*
X135450291Y-81173701D01*
X135434033Y-81198033D01*
X135409701Y-81214291D01*
X135381000Y-81220000D01*
X134056000Y-81220000D01*
X134027299Y-81214291D01*
X134002967Y-81198033D01*
X133986709Y-81173701D01*
X133981000Y-81145000D01*
X133981000Y-80995000D01*
X133986709Y-80966299D01*
X134002967Y-80941967D01*
X134027299Y-80925709D01*
X134056000Y-80920000D01*
X135381000Y-80920000D01*
X135409701Y-80925709D01*
G37*
G36*
X115008762Y-80008851D02*
G01*
X115079730Y-80056270D01*
X115127149Y-80127238D01*
X115143800Y-80210950D01*
X115143800Y-80723450D01*
X115127149Y-80807162D01*
X115079730Y-80878130D01*
X115008762Y-80925549D01*
X114925050Y-80942200D01*
X114487550Y-80942200D01*
X114403838Y-80925549D01*
X114332870Y-80878130D01*
X114285451Y-80807162D01*
X114268800Y-80723450D01*
X114268800Y-80210950D01*
X114285451Y-80127238D01*
X114332870Y-80056270D01*
X114403838Y-80008851D01*
X114487550Y-79992200D01*
X114925050Y-79992200D01*
X115008762Y-80008851D01*
G37*
G36*
X116583762Y-80008851D02*
G01*
X116654730Y-80056270D01*
X116702149Y-80127238D01*
X116718800Y-80210950D01*
X116718800Y-80723450D01*
X116702149Y-80807162D01*
X116654730Y-80878130D01*
X116583762Y-80925549D01*
X116500050Y-80942200D01*
X116062550Y-80942200D01*
X115978838Y-80925549D01*
X115907870Y-80878130D01*
X115860451Y-80807162D01*
X115843800Y-80723450D01*
X115843800Y-80210950D01*
X115860451Y-80127238D01*
X115907870Y-80056270D01*
X115978838Y-80008851D01*
X116062550Y-79992200D01*
X116500050Y-79992200D01*
X116583762Y-80008851D01*
G37*
G36*
X118958537Y-80007424D02*
G01*
X119023421Y-80050779D01*
X119066776Y-80115663D01*
X119082000Y-80192200D01*
X119082000Y-80742200D01*
X119066776Y-80818737D01*
X119023421Y-80883621D01*
X118958537Y-80926976D01*
X118882000Y-80942200D01*
X118482000Y-80942200D01*
X118405463Y-80926976D01*
X118340579Y-80883621D01*
X118297224Y-80818737D01*
X118282000Y-80742200D01*
X118282000Y-80192200D01*
X118297224Y-80115663D01*
X118340579Y-80050779D01*
X118405463Y-80007424D01*
X118482000Y-79992200D01*
X118882000Y-79992200D01*
X118958537Y-80007424D01*
G37*
G36*
X120608537Y-80007424D02*
G01*
X120673421Y-80050779D01*
X120716776Y-80115663D01*
X120732000Y-80192200D01*
X120732000Y-80742200D01*
X120716776Y-80818737D01*
X120673421Y-80883621D01*
X120608537Y-80926976D01*
X120532000Y-80942200D01*
X120132000Y-80942200D01*
X120055463Y-80926976D01*
X119990579Y-80883621D01*
X119947224Y-80818737D01*
X119932000Y-80742200D01*
X119932000Y-80192200D01*
X119947224Y-80115663D01*
X119990579Y-80050779D01*
X120055463Y-80007424D01*
X120132000Y-79992200D01*
X120532000Y-79992200D01*
X120608537Y-80007424D01*
G37*
G36*
X127909701Y-78925709D02*
G01*
X127934033Y-78941967D01*
X127950291Y-78966299D01*
X127956000Y-78995000D01*
X127956000Y-80320000D01*
X127950291Y-80348701D01*
X127934033Y-80373033D01*
X127909701Y-80389291D01*
X127881000Y-80395000D01*
X127731000Y-80395000D01*
X127702299Y-80389291D01*
X127677967Y-80373033D01*
X127661709Y-80348701D01*
X127656000Y-80320000D01*
X127656000Y-78995000D01*
X127661709Y-78966299D01*
X127677967Y-78941967D01*
X127702299Y-78925709D01*
X127731000Y-78920000D01*
X127881000Y-78920000D01*
X127909701Y-78925709D01*
G37*
G36*
X128409701Y-78925709D02*
G01*
X128434033Y-78941967D01*
X128450291Y-78966299D01*
X128456000Y-78995000D01*
X128456000Y-80320000D01*
X128450291Y-80348701D01*
X128434033Y-80373033D01*
X128409701Y-80389291D01*
X128381000Y-80395000D01*
X128231000Y-80395000D01*
X128202299Y-80389291D01*
X128177967Y-80373033D01*
X128161709Y-80348701D01*
X128156000Y-80320000D01*
X128156000Y-78995000D01*
X128161709Y-78966299D01*
X128177967Y-78941967D01*
X128202299Y-78925709D01*
X128231000Y-78920000D01*
X128381000Y-78920000D01*
X128409701Y-78925709D01*
G37*
G36*
X128909701Y-78925709D02*
G01*
X128934033Y-78941967D01*
X128950291Y-78966299D01*
X128956000Y-78995000D01*
X128956000Y-80320000D01*
X128950291Y-80348701D01*
X128934033Y-80373033D01*
X128909701Y-80389291D01*
X128881000Y-80395000D01*
X128731000Y-80395000D01*
X128702299Y-80389291D01*
X128677967Y-80373033D01*
X128661709Y-80348701D01*
X128656000Y-80320000D01*
X128656000Y-78995000D01*
X128661709Y-78966299D01*
X128677967Y-78941967D01*
X128702299Y-78925709D01*
X128731000Y-78920000D01*
X128881000Y-78920000D01*
X128909701Y-78925709D01*
G37*
G36*
X129409701Y-78925709D02*
G01*
X129434033Y-78941967D01*
X129450291Y-78966299D01*
X129456000Y-78995000D01*
X129456000Y-80320000D01*
X129450291Y-80348701D01*
X129434033Y-80373033D01*
X129409701Y-80389291D01*
X129381000Y-80395000D01*
X129231000Y-80395000D01*
X129202299Y-80389291D01*
X129177967Y-80373033D01*
X129161709Y-80348701D01*
X129156000Y-80320000D01*
X129156000Y-78995000D01*
X129161709Y-78966299D01*
X129177967Y-78941967D01*
X129202299Y-78925709D01*
X129231000Y-78920000D01*
X129381000Y-78920000D01*
X129409701Y-78925709D01*
G37*
G36*
X129909701Y-78925709D02*
G01*
X129934033Y-78941967D01*
X129950291Y-78966299D01*
X129956000Y-78995000D01*
X129956000Y-80320000D01*
X129950291Y-80348701D01*
X129934033Y-80373033D01*
X129909701Y-80389291D01*
X129881000Y-80395000D01*
X129731000Y-80395000D01*
X129702299Y-80389291D01*
X129677967Y-80373033D01*
X129661709Y-80348701D01*
X129656000Y-80320000D01*
X129656000Y-78995000D01*
X129661709Y-78966299D01*
X129677967Y-78941967D01*
X129702299Y-78925709D01*
X129731000Y-78920000D01*
X129881000Y-78920000D01*
X129909701Y-78925709D01*
G37*
G36*
X130409701Y-78925709D02*
G01*
X130434033Y-78941967D01*
X130450291Y-78966299D01*
X130456000Y-78995000D01*
X130456000Y-80320000D01*
X130450291Y-80348701D01*
X130434033Y-80373033D01*
X130409701Y-80389291D01*
X130381000Y-80395000D01*
X130231000Y-80395000D01*
X130202299Y-80389291D01*
X130177967Y-80373033D01*
X130161709Y-80348701D01*
X130156000Y-80320000D01*
X130156000Y-78995000D01*
X130161709Y-78966299D01*
X130177967Y-78941967D01*
X130202299Y-78925709D01*
X130231000Y-78920000D01*
X130381000Y-78920000D01*
X130409701Y-78925709D01*
G37*
G36*
X130909701Y-78925709D02*
G01*
X130934033Y-78941967D01*
X130950291Y-78966299D01*
X130956000Y-78995000D01*
X130956000Y-80320000D01*
X130950291Y-80348701D01*
X130934033Y-80373033D01*
X130909701Y-80389291D01*
X130881000Y-80395000D01*
X130731000Y-80395000D01*
X130702299Y-80389291D01*
X130677967Y-80373033D01*
X130661709Y-80348701D01*
X130656000Y-80320000D01*
X130656000Y-78995000D01*
X130661709Y-78966299D01*
X130677967Y-78941967D01*
X130702299Y-78925709D01*
X130731000Y-78920000D01*
X130881000Y-78920000D01*
X130909701Y-78925709D01*
G37*
G36*
X131409701Y-78925709D02*
G01*
X131434033Y-78941967D01*
X131450291Y-78966299D01*
X131456000Y-78995000D01*
X131456000Y-80320000D01*
X131450291Y-80348701D01*
X131434033Y-80373033D01*
X131409701Y-80389291D01*
X131381000Y-80395000D01*
X131231000Y-80395000D01*
X131202299Y-80389291D01*
X131177967Y-80373033D01*
X131161709Y-80348701D01*
X131156000Y-80320000D01*
X131156000Y-78995000D01*
X131161709Y-78966299D01*
X131177967Y-78941967D01*
X131202299Y-78925709D01*
X131231000Y-78920000D01*
X131381000Y-78920000D01*
X131409701Y-78925709D01*
G37*
G36*
X131909701Y-78925709D02*
G01*
X131934033Y-78941967D01*
X131950291Y-78966299D01*
X131956000Y-78995000D01*
X131956000Y-80320000D01*
X131950291Y-80348701D01*
X131934033Y-80373033D01*
X131909701Y-80389291D01*
X131881000Y-80395000D01*
X131731000Y-80395000D01*
X131702299Y-80389291D01*
X131677967Y-80373033D01*
X131661709Y-80348701D01*
X131656000Y-80320000D01*
X131656000Y-78995000D01*
X131661709Y-78966299D01*
X131677967Y-78941967D01*
X131702299Y-78925709D01*
X131731000Y-78920000D01*
X131881000Y-78920000D01*
X131909701Y-78925709D01*
G37*
G36*
X132409701Y-78925709D02*
G01*
X132434033Y-78941967D01*
X132450291Y-78966299D01*
X132456000Y-78995000D01*
X132456000Y-80320000D01*
X132450291Y-80348701D01*
X132434033Y-80373033D01*
X132409701Y-80389291D01*
X132381000Y-80395000D01*
X132231000Y-80395000D01*
X132202299Y-80389291D01*
X132177967Y-80373033D01*
X132161709Y-80348701D01*
X132156000Y-80320000D01*
X132156000Y-78995000D01*
X132161709Y-78966299D01*
X132177967Y-78941967D01*
X132202299Y-78925709D01*
X132231000Y-78920000D01*
X132381000Y-78920000D01*
X132409701Y-78925709D01*
G37*
G36*
X132909701Y-78925709D02*
G01*
X132934033Y-78941967D01*
X132950291Y-78966299D01*
X132956000Y-78995000D01*
X132956000Y-80320000D01*
X132950291Y-80348701D01*
X132934033Y-80373033D01*
X132909701Y-80389291D01*
X132881000Y-80395000D01*
X132731000Y-80395000D01*
X132702299Y-80389291D01*
X132677967Y-80373033D01*
X132661709Y-80348701D01*
X132656000Y-80320000D01*
X132656000Y-78995000D01*
X132661709Y-78966299D01*
X132677967Y-78941967D01*
X132702299Y-78925709D01*
X132731000Y-78920000D01*
X132881000Y-78920000D01*
X132909701Y-78925709D01*
G37*
G36*
X133409701Y-78925709D02*
G01*
X133434033Y-78941967D01*
X133450291Y-78966299D01*
X133456000Y-78995000D01*
X133456000Y-80320000D01*
X133450291Y-80348701D01*
X133434033Y-80373033D01*
X133409701Y-80389291D01*
X133381000Y-80395000D01*
X133231000Y-80395000D01*
X133202299Y-80389291D01*
X133177967Y-80373033D01*
X133161709Y-80348701D01*
X133156000Y-80320000D01*
X133156000Y-78995000D01*
X133161709Y-78966299D01*
X133177967Y-78941967D01*
X133202299Y-78925709D01*
X133231000Y-78920000D01*
X133381000Y-78920000D01*
X133409701Y-78925709D01*
G37*
G36*
X124377104Y-78282127D02*
G01*
X124450099Y-78330901D01*
X124498873Y-78403896D01*
X124516000Y-78490000D01*
X124516000Y-78990000D01*
X124498873Y-79076104D01*
X124450099Y-79149099D01*
X124377104Y-79197873D01*
X124291000Y-79215000D01*
X123841000Y-79215000D01*
X123754896Y-79197873D01*
X123681901Y-79149099D01*
X123633127Y-79076104D01*
X123616000Y-78990000D01*
X123616000Y-78490000D01*
X123633127Y-78403896D01*
X123681901Y-78330901D01*
X123754896Y-78282127D01*
X123841000Y-78265000D01*
X124291000Y-78265000D01*
X124377104Y-78282127D01*
G37*
G36*
X125927104Y-78282127D02*
G01*
X126000099Y-78330901D01*
X126048873Y-78403896D01*
X126066000Y-78490000D01*
X126066000Y-78990000D01*
X126048873Y-79076104D01*
X126000099Y-79149099D01*
X125927104Y-79197873D01*
X125841000Y-79215000D01*
X125391000Y-79215000D01*
X125304896Y-79197873D01*
X125231901Y-79149099D01*
X125183127Y-79076104D01*
X125166000Y-78990000D01*
X125166000Y-78490000D01*
X125183127Y-78403896D01*
X125231901Y-78330901D01*
X125304896Y-78282127D01*
X125391000Y-78265000D01*
X125841000Y-78265000D01*
X125927104Y-78282127D01*
G37*
G36*
X115008762Y-77672051D02*
G01*
X115079730Y-77719470D01*
X115127149Y-77790438D01*
X115143800Y-77874150D01*
X115143800Y-78386650D01*
X115127149Y-78470362D01*
X115079730Y-78541330D01*
X115008762Y-78588749D01*
X114925050Y-78605400D01*
X114487550Y-78605400D01*
X114403838Y-78588749D01*
X114332870Y-78541330D01*
X114285451Y-78470362D01*
X114268800Y-78386650D01*
X114268800Y-77874150D01*
X114285451Y-77790438D01*
X114332870Y-77719470D01*
X114403838Y-77672051D01*
X114487550Y-77655400D01*
X114925050Y-77655400D01*
X115008762Y-77672051D01*
G37*
G36*
X116583762Y-77672051D02*
G01*
X116654730Y-77719470D01*
X116702149Y-77790438D01*
X116718800Y-77874150D01*
X116718800Y-78386650D01*
X116702149Y-78470362D01*
X116654730Y-78541330D01*
X116583762Y-78588749D01*
X116500050Y-78605400D01*
X116062550Y-78605400D01*
X115978838Y-78588749D01*
X115907870Y-78541330D01*
X115860451Y-78470362D01*
X115843800Y-78386650D01*
X115843800Y-77874150D01*
X115860451Y-77790438D01*
X115907870Y-77719470D01*
X115978838Y-77672051D01*
X116062550Y-77655400D01*
X116500050Y-77655400D01*
X116583762Y-77672051D01*
G37*
G36*
X118958537Y-77670624D02*
G01*
X119023421Y-77713979D01*
X119066776Y-77778863D01*
X119082000Y-77855400D01*
X119082000Y-78405400D01*
X119066776Y-78481937D01*
X119023421Y-78546821D01*
X118958537Y-78590176D01*
X118882000Y-78605400D01*
X118482000Y-78605400D01*
X118405463Y-78590176D01*
X118340579Y-78546821D01*
X118297224Y-78481937D01*
X118282000Y-78405400D01*
X118282000Y-77855400D01*
X118297224Y-77778863D01*
X118340579Y-77713979D01*
X118405463Y-77670624D01*
X118482000Y-77655400D01*
X118882000Y-77655400D01*
X118958537Y-77670624D01*
G37*
G36*
X120608537Y-77670624D02*
G01*
X120673421Y-77713979D01*
X120716776Y-77778863D01*
X120732000Y-77855400D01*
X120732000Y-78405400D01*
X120716776Y-78481937D01*
X120673421Y-78546821D01*
X120608537Y-78590176D01*
X120532000Y-78605400D01*
X120132000Y-78605400D01*
X120055463Y-78590176D01*
X119990579Y-78546821D01*
X119947224Y-78481937D01*
X119932000Y-78405400D01*
X119932000Y-77855400D01*
X119947224Y-77778863D01*
X119990579Y-77713979D01*
X120055463Y-77670624D01*
X120132000Y-77655400D01*
X120532000Y-77655400D01*
X120608537Y-77670624D01*
G37*
G36*
X154609800Y-78549500D02*
G01*
X151104600Y-78549500D01*
X151104600Y-74891900D01*
X154609800Y-74891900D01*
X154609800Y-78549500D01*
G37*
G36*
X184775000Y-78490000D02*
G01*
X182675000Y-78490000D01*
X182675000Y-76390000D01*
X184775000Y-76390000D01*
X184775000Y-78490000D01*
G37*
G36*
X124377104Y-76377127D02*
G01*
X124450099Y-76425901D01*
X124498873Y-76498896D01*
X124516000Y-76585000D01*
X124516000Y-77085000D01*
X124498873Y-77171104D01*
X124450099Y-77244099D01*
X124377104Y-77292873D01*
X124291000Y-77310000D01*
X123841000Y-77310000D01*
X123754896Y-77292873D01*
X123681901Y-77244099D01*
X123633127Y-77171104D01*
X123616000Y-77085000D01*
X123616000Y-76585000D01*
X123633127Y-76498896D01*
X123681901Y-76425901D01*
X123754896Y-76377127D01*
X123841000Y-76360000D01*
X124291000Y-76360000D01*
X124377104Y-76377127D01*
G37*
G36*
X125927104Y-76377127D02*
G01*
X126000099Y-76425901D01*
X126048873Y-76498896D01*
X126066000Y-76585000D01*
X126066000Y-77085000D01*
X126048873Y-77171104D01*
X126000099Y-77244099D01*
X125927104Y-77292873D01*
X125841000Y-77310000D01*
X125391000Y-77310000D01*
X125304896Y-77292873D01*
X125231901Y-77244099D01*
X125183127Y-77171104D01*
X125166000Y-77085000D01*
X125166000Y-76585000D01*
X125183127Y-76498896D01*
X125231901Y-76425901D01*
X125304896Y-76377127D01*
X125391000Y-76360000D01*
X125841000Y-76360000D01*
X125927104Y-76377127D01*
G37*
G36*
X172512737Y-75827424D02*
G01*
X172577621Y-75870779D01*
X172620976Y-75935663D01*
X172636200Y-76012200D01*
X172636200Y-76412200D01*
X172620976Y-76488737D01*
X172577621Y-76553621D01*
X172512737Y-76596976D01*
X172436200Y-76612200D01*
X171886200Y-76612200D01*
X171809663Y-76596976D01*
X171744779Y-76553621D01*
X171701424Y-76488737D01*
X171686200Y-76412200D01*
X171686200Y-76012200D01*
X171701424Y-75935663D01*
X171744779Y-75870779D01*
X171809663Y-75827424D01*
X171886200Y-75812200D01*
X172436200Y-75812200D01*
X172512737Y-75827424D01*
G37*
G36*
X115034062Y-75360651D02*
G01*
X115105030Y-75408070D01*
X115152449Y-75479038D01*
X115169100Y-75562750D01*
X115169100Y-76075250D01*
X115152449Y-76158962D01*
X115105030Y-76229930D01*
X115034062Y-76277349D01*
X114950350Y-76294000D01*
X114512850Y-76294000D01*
X114429138Y-76277349D01*
X114358170Y-76229930D01*
X114310751Y-76158962D01*
X114294100Y-76075250D01*
X114294100Y-75562750D01*
X114310751Y-75479038D01*
X114358170Y-75408070D01*
X114429138Y-75360651D01*
X114512850Y-75344000D01*
X114950350Y-75344000D01*
X115034062Y-75360651D01*
G37*
G36*
X116609062Y-75360651D02*
G01*
X116680030Y-75408070D01*
X116727449Y-75479038D01*
X116744100Y-75562750D01*
X116744100Y-76075250D01*
X116727449Y-76158962D01*
X116680030Y-76229930D01*
X116609062Y-76277349D01*
X116525350Y-76294000D01*
X116087850Y-76294000D01*
X116004138Y-76277349D01*
X115933170Y-76229930D01*
X115885751Y-76158962D01*
X115869100Y-76075250D01*
X115869100Y-75562750D01*
X115885751Y-75479038D01*
X115933170Y-75408070D01*
X116004138Y-75360651D01*
X116087850Y-75344000D01*
X116525350Y-75344000D01*
X116609062Y-75360651D01*
G37*
G36*
X118904637Y-75333724D02*
G01*
X118969521Y-75377079D01*
X119012876Y-75441963D01*
X119028100Y-75518500D01*
X119028100Y-76068500D01*
X119012876Y-76145037D01*
X118969521Y-76209921D01*
X118904637Y-76253276D01*
X118828100Y-76268500D01*
X118428100Y-76268500D01*
X118351563Y-76253276D01*
X118286679Y-76209921D01*
X118243324Y-76145037D01*
X118228100Y-76068500D01*
X118228100Y-75518500D01*
X118243324Y-75441963D01*
X118286679Y-75377079D01*
X118351563Y-75333724D01*
X118428100Y-75318500D01*
X118828100Y-75318500D01*
X118904637Y-75333724D01*
G37*
G36*
X120554637Y-75333724D02*
G01*
X120619521Y-75377079D01*
X120662876Y-75441963D01*
X120678100Y-75518500D01*
X120678100Y-76068500D01*
X120662876Y-76145037D01*
X120619521Y-76209921D01*
X120554637Y-76253276D01*
X120478100Y-76268500D01*
X120078100Y-76268500D01*
X120001563Y-76253276D01*
X119936679Y-76209921D01*
X119893324Y-76145037D01*
X119878100Y-76068500D01*
X119878100Y-75518500D01*
X119893324Y-75441963D01*
X119936679Y-75377079D01*
X120001563Y-75333724D01*
X120078100Y-75318500D01*
X120478100Y-75318500D01*
X120554637Y-75333724D01*
G37*
G36*
X183772680Y-73854696D02*
G01*
X183821862Y-73854696D01*
X183876632Y-73864934D01*
X183929845Y-73870175D01*
X183970268Y-73882437D01*
X184012283Y-73890291D01*
X184070474Y-73912834D01*
X184126818Y-73929926D01*
X184159009Y-73947132D01*
X184192931Y-73960274D01*
X184251876Y-73996771D01*
X184308349Y-74026957D01*
X184332075Y-74046428D01*
X184357634Y-74062254D01*
X184414263Y-74113879D01*
X184467462Y-74157538D01*
X184483228Y-74176748D01*
X184500800Y-74192768D01*
X184551810Y-74260317D01*
X184598043Y-74316651D01*
X184606983Y-74333377D01*
X184617542Y-74347359D01*
X184659541Y-74431706D01*
X184695074Y-74498182D01*
X184698864Y-74510676D01*
X184703891Y-74520772D01*
X184733590Y-74625154D01*
X184754825Y-74695155D01*
X184755522Y-74702236D01*
X184756908Y-74707106D01*
X184771316Y-74862599D01*
X184775000Y-74900000D01*
X184771313Y-74937429D01*
X184756908Y-75092893D01*
X184755522Y-75097762D01*
X184754825Y-75104845D01*
X184733585Y-75174861D01*
X184703891Y-75279227D01*
X184698865Y-75289320D01*
X184695074Y-75301818D01*
X184659534Y-75368307D01*
X184617542Y-75452640D01*
X184606985Y-75466619D01*
X184598043Y-75483349D01*
X184551801Y-75539694D01*
X184500800Y-75607231D01*
X184483231Y-75623247D01*
X184467462Y-75642462D01*
X184414252Y-75686129D01*
X184357634Y-75737745D01*
X184332080Y-75753567D01*
X184308349Y-75773043D01*
X184251865Y-75803234D01*
X184192931Y-75839725D01*
X184159016Y-75852863D01*
X184126818Y-75870074D01*
X184070463Y-75887169D01*
X184012283Y-75909708D01*
X183970275Y-75917560D01*
X183929845Y-75929825D01*
X183876629Y-75935066D01*
X183821862Y-75945304D01*
X183772680Y-75945304D01*
X183725000Y-75950000D01*
X183677320Y-75945304D01*
X183628138Y-75945304D01*
X183573369Y-75935066D01*
X183520155Y-75929825D01*
X183479726Y-75917561D01*
X183437716Y-75909708D01*
X183379532Y-75887167D01*
X183323182Y-75870074D01*
X183290986Y-75852864D01*
X183257068Y-75839725D01*
X183198127Y-75803230D01*
X183141651Y-75773043D01*
X183117922Y-75753569D01*
X183092365Y-75737745D01*
X183035737Y-75686121D01*
X182982538Y-75642462D01*
X182966771Y-75623250D01*
X182949199Y-75607231D01*
X182898186Y-75539679D01*
X182851957Y-75483349D01*
X182843017Y-75466623D01*
X182832457Y-75452640D01*
X182790450Y-75368279D01*
X182754926Y-75301818D01*
X182751136Y-75289325D01*
X182746108Y-75279227D01*
X182716397Y-75174807D01*
X182695175Y-75104845D01*
X182694477Y-75097767D01*
X182693091Y-75092893D01*
X182678668Y-74937244D01*
X182675000Y-74900000D01*
X182678667Y-74862758D01*
X182693091Y-74707106D01*
X182694478Y-74702230D01*
X182695175Y-74695155D01*
X182716393Y-74625207D01*
X182746108Y-74520772D01*
X182751137Y-74510671D01*
X182754926Y-74498182D01*
X182790443Y-74431733D01*
X182832457Y-74347359D01*
X182843019Y-74333372D01*
X182851957Y-74316651D01*
X182898176Y-74260332D01*
X182949199Y-74192768D01*
X182966774Y-74176745D01*
X182982538Y-74157538D01*
X183035726Y-74113887D01*
X183092365Y-74062254D01*
X183117927Y-74046426D01*
X183141651Y-74026957D01*
X183198115Y-73996775D01*
X183257068Y-73960274D01*
X183290993Y-73947131D01*
X183323182Y-73929926D01*
X183379520Y-73912835D01*
X183437716Y-73890291D01*
X183479732Y-73882436D01*
X183520155Y-73870175D01*
X183573366Y-73864934D01*
X183628138Y-73854696D01*
X183677320Y-73854696D01*
X183725000Y-73850000D01*
X183772680Y-73854696D01*
G37*
G36*
X174364304Y-74040327D02*
G01*
X174437299Y-74089101D01*
X174486073Y-74162096D01*
X174503200Y-74248200D01*
X174503200Y-74748200D01*
X174486073Y-74834304D01*
X174437299Y-74907299D01*
X174364304Y-74956073D01*
X174278200Y-74973200D01*
X173828200Y-74973200D01*
X173742096Y-74956073D01*
X173669101Y-74907299D01*
X173620327Y-74834304D01*
X173603200Y-74748200D01*
X173603200Y-74248200D01*
X173620327Y-74162096D01*
X173669101Y-74089101D01*
X173742096Y-74040327D01*
X173828200Y-74023200D01*
X174278200Y-74023200D01*
X174364304Y-74040327D01*
G37*
G36*
X175914304Y-74040327D02*
G01*
X175987299Y-74089101D01*
X176036073Y-74162096D01*
X176053200Y-74248200D01*
X176053200Y-74748200D01*
X176036073Y-74834304D01*
X175987299Y-74907299D01*
X175914304Y-74956073D01*
X175828200Y-74973200D01*
X175378200Y-74973200D01*
X175292096Y-74956073D01*
X175219101Y-74907299D01*
X175170327Y-74834304D01*
X175153200Y-74748200D01*
X175153200Y-74248200D01*
X175170327Y-74162096D01*
X175219101Y-74089101D01*
X175292096Y-74040327D01*
X175378200Y-74023200D01*
X175828200Y-74023200D01*
X175914304Y-74040327D01*
G37*
G36*
X172512737Y-74177424D02*
G01*
X172577621Y-74220779D01*
X172620976Y-74285663D01*
X172636200Y-74362200D01*
X172636200Y-74762200D01*
X172620976Y-74838737D01*
X172577621Y-74903621D01*
X172512737Y-74946976D01*
X172436200Y-74962200D01*
X171886200Y-74962200D01*
X171809663Y-74946976D01*
X171744779Y-74903621D01*
X171701424Y-74838737D01*
X171686200Y-74762200D01*
X171686200Y-74362200D01*
X171701424Y-74285663D01*
X171744779Y-74220779D01*
X171809663Y-74177424D01*
X171886200Y-74162200D01*
X172436200Y-74162200D01*
X172512737Y-74177424D01*
G37*
G36*
X135722537Y-73962224D02*
G01*
X135787421Y-74005579D01*
X135830776Y-74070463D01*
X135846000Y-74147000D01*
X135846000Y-74697000D01*
X135830776Y-74773537D01*
X135787421Y-74838421D01*
X135722537Y-74881776D01*
X135646000Y-74897000D01*
X135246000Y-74897000D01*
X135169463Y-74881776D01*
X135104579Y-74838421D01*
X135061224Y-74773537D01*
X135046000Y-74697000D01*
X135046000Y-74147000D01*
X135061224Y-74070463D01*
X135104579Y-74005579D01*
X135169463Y-73962224D01*
X135246000Y-73947000D01*
X135646000Y-73947000D01*
X135722537Y-73962224D01*
G37*
G36*
X137372537Y-73962224D02*
G01*
X137437421Y-74005579D01*
X137480776Y-74070463D01*
X137496000Y-74147000D01*
X137496000Y-74697000D01*
X137480776Y-74773537D01*
X137437421Y-74838421D01*
X137372537Y-74881776D01*
X137296000Y-74897000D01*
X136896000Y-74897000D01*
X136819463Y-74881776D01*
X136754579Y-74838421D01*
X136711224Y-74773537D01*
X136696000Y-74697000D01*
X136696000Y-74147000D01*
X136711224Y-74070463D01*
X136754579Y-74005579D01*
X136819463Y-73962224D01*
X136896000Y-73947000D01*
X137296000Y-73947000D01*
X137372537Y-73962224D01*
G37*
G36*
X131150537Y-73581224D02*
G01*
X131215421Y-73624579D01*
X131258776Y-73689463D01*
X131274000Y-73766000D01*
X131274000Y-74316000D01*
X131258776Y-74392537D01*
X131215421Y-74457421D01*
X131150537Y-74500776D01*
X131074000Y-74516000D01*
X130674000Y-74516000D01*
X130597463Y-74500776D01*
X130532579Y-74457421D01*
X130489224Y-74392537D01*
X130474000Y-74316000D01*
X130474000Y-73766000D01*
X130489224Y-73689463D01*
X130532579Y-73624579D01*
X130597463Y-73581224D01*
X130674000Y-73566000D01*
X131074000Y-73566000D01*
X131150537Y-73581224D01*
G37*
G36*
X132800537Y-73581224D02*
G01*
X132865421Y-73624579D01*
X132908776Y-73689463D01*
X132924000Y-73766000D01*
X132924000Y-74316000D01*
X132908776Y-74392537D01*
X132865421Y-74457421D01*
X132800537Y-74500776D01*
X132724000Y-74516000D01*
X132324000Y-74516000D01*
X132247463Y-74500776D01*
X132182579Y-74457421D01*
X132139224Y-74392537D01*
X132124000Y-74316000D01*
X132124000Y-73766000D01*
X132139224Y-73689463D01*
X132182579Y-73624579D01*
X132247463Y-73581224D01*
X132324000Y-73566000D01*
X132724000Y-73566000D01*
X132800537Y-73581224D01*
G37*
G36*
X174279737Y-72260424D02*
G01*
X174344621Y-72303779D01*
X174387976Y-72368663D01*
X174403200Y-72445200D01*
X174403200Y-72995200D01*
X174387976Y-73071737D01*
X174344621Y-73136621D01*
X174279737Y-73179976D01*
X174203200Y-73195200D01*
X173803200Y-73195200D01*
X173726663Y-73179976D01*
X173661779Y-73136621D01*
X173618424Y-73071737D01*
X173603200Y-72995200D01*
X173603200Y-72445200D01*
X173618424Y-72368663D01*
X173661779Y-72303779D01*
X173726663Y-72260424D01*
X173803200Y-72245200D01*
X174203200Y-72245200D01*
X174279737Y-72260424D01*
G37*
G36*
X175929737Y-72260424D02*
G01*
X175994621Y-72303779D01*
X176037976Y-72368663D01*
X176053200Y-72445200D01*
X176053200Y-72995200D01*
X176037976Y-73071737D01*
X175994621Y-73136621D01*
X175929737Y-73179976D01*
X175853200Y-73195200D01*
X175453200Y-73195200D01*
X175376663Y-73179976D01*
X175311779Y-73136621D01*
X175268424Y-73071737D01*
X175253200Y-72995200D01*
X175253200Y-72445200D01*
X175268424Y-72368663D01*
X175311779Y-72303779D01*
X175376663Y-72260424D01*
X175453200Y-72245200D01*
X175853200Y-72245200D01*
X175929737Y-72260424D01*
G37*
G36*
X127921970Y-70538321D02*
G01*
X127978744Y-70576256D01*
X128016679Y-70633030D01*
X128030000Y-70700000D01*
X128030000Y-72150000D01*
X128016679Y-72216970D01*
X127978744Y-72273744D01*
X127921970Y-72311679D01*
X127855000Y-72325000D01*
X127505000Y-72325000D01*
X127438030Y-72311679D01*
X127381256Y-72273744D01*
X127343321Y-72216970D01*
X127330000Y-72150000D01*
X127330000Y-70700000D01*
X127343321Y-70633030D01*
X127381256Y-70576256D01*
X127438030Y-70538321D01*
X127505000Y-70525000D01*
X127855000Y-70525000D01*
X127921970Y-70538321D01*
G37*
G36*
X129056537Y-70540224D02*
G01*
X129121421Y-70583579D01*
X129164776Y-70648463D01*
X129180000Y-70725000D01*
X129180000Y-72125000D01*
X129164776Y-72201537D01*
X129121421Y-72266421D01*
X129056537Y-72309776D01*
X128980000Y-72325000D01*
X128580000Y-72325000D01*
X128503463Y-72309776D01*
X128438579Y-72266421D01*
X128395224Y-72201537D01*
X128380000Y-72125000D01*
X128380000Y-70725000D01*
X128395224Y-70648463D01*
X128438579Y-70583579D01*
X128503463Y-70540224D01*
X128580000Y-70525000D01*
X128980000Y-70525000D01*
X129056537Y-70540224D01*
G37*
G36*
X130156537Y-70540224D02*
G01*
X130221421Y-70583579D01*
X130264776Y-70648463D01*
X130280000Y-70725000D01*
X130280000Y-72125000D01*
X130264776Y-72201537D01*
X130221421Y-72266421D01*
X130156537Y-72309776D01*
X130080000Y-72325000D01*
X129680000Y-72325000D01*
X129603463Y-72309776D01*
X129538579Y-72266421D01*
X129495224Y-72201537D01*
X129480000Y-72125000D01*
X129480000Y-70725000D01*
X129495224Y-70648463D01*
X129538579Y-70583579D01*
X129603463Y-70540224D01*
X129680000Y-70525000D01*
X130080000Y-70525000D01*
X130156537Y-70540224D01*
G37*
G36*
X131256537Y-70540224D02*
G01*
X131321421Y-70583579D01*
X131364776Y-70648463D01*
X131380000Y-70725000D01*
X131380000Y-72125000D01*
X131364776Y-72201537D01*
X131321421Y-72266421D01*
X131256537Y-72309776D01*
X131180000Y-72325000D01*
X130780000Y-72325000D01*
X130703463Y-72309776D01*
X130638579Y-72266421D01*
X130595224Y-72201537D01*
X130580000Y-72125000D01*
X130580000Y-70725000D01*
X130595224Y-70648463D01*
X130638579Y-70583579D01*
X130703463Y-70540224D01*
X130780000Y-70525000D01*
X131180000Y-70525000D01*
X131256537Y-70540224D01*
G37*
G36*
X132356537Y-70540224D02*
G01*
X132421421Y-70583579D01*
X132464776Y-70648463D01*
X132480000Y-70725000D01*
X132480000Y-72125000D01*
X132464776Y-72201537D01*
X132421421Y-72266421D01*
X132356537Y-72309776D01*
X132280000Y-72325000D01*
X131880000Y-72325000D01*
X131803463Y-72309776D01*
X131738579Y-72266421D01*
X131695224Y-72201537D01*
X131680000Y-72125000D01*
X131680000Y-70725000D01*
X131695224Y-70648463D01*
X131738579Y-70583579D01*
X131803463Y-70540224D01*
X131880000Y-70525000D01*
X132280000Y-70525000D01*
X132356537Y-70540224D01*
G37*
G36*
X133456537Y-70540224D02*
G01*
X133521421Y-70583579D01*
X133564776Y-70648463D01*
X133580000Y-70725000D01*
X133580000Y-72125000D01*
X133564776Y-72201537D01*
X133521421Y-72266421D01*
X133456537Y-72309776D01*
X133380000Y-72325000D01*
X132980000Y-72325000D01*
X132903463Y-72309776D01*
X132838579Y-72266421D01*
X132795224Y-72201537D01*
X132780000Y-72125000D01*
X132780000Y-70725000D01*
X132795224Y-70648463D01*
X132838579Y-70583579D01*
X132903463Y-70540224D01*
X132980000Y-70525000D01*
X133380000Y-70525000D01*
X133456537Y-70540224D01*
G37*
G36*
X134556537Y-70540224D02*
G01*
X134621421Y-70583579D01*
X134664776Y-70648463D01*
X134680000Y-70725000D01*
X134680000Y-72125000D01*
X134664776Y-72201537D01*
X134621421Y-72266421D01*
X134556537Y-72309776D01*
X134480000Y-72325000D01*
X134080000Y-72325000D01*
X134003463Y-72309776D01*
X133938579Y-72266421D01*
X133895224Y-72201537D01*
X133880000Y-72125000D01*
X133880000Y-70725000D01*
X133895224Y-70648463D01*
X133938579Y-70583579D01*
X134003463Y-70540224D01*
X134080000Y-70525000D01*
X134480000Y-70525000D01*
X134556537Y-70540224D01*
G37*
G36*
X135656537Y-70540224D02*
G01*
X135721421Y-70583579D01*
X135764776Y-70648463D01*
X135780000Y-70725000D01*
X135780000Y-72125000D01*
X135764776Y-72201537D01*
X135721421Y-72266421D01*
X135656537Y-72309776D01*
X135580000Y-72325000D01*
X135180000Y-72325000D01*
X135103463Y-72309776D01*
X135038579Y-72266421D01*
X134995224Y-72201537D01*
X134980000Y-72125000D01*
X134980000Y-70725000D01*
X134995224Y-70648463D01*
X135038579Y-70583579D01*
X135103463Y-70540224D01*
X135180000Y-70525000D01*
X135580000Y-70525000D01*
X135656537Y-70540224D01*
G37*
G36*
X136721970Y-70538321D02*
G01*
X136778744Y-70576256D01*
X136816679Y-70633030D01*
X136830000Y-70700000D01*
X136830000Y-72150000D01*
X136816679Y-72216970D01*
X136778744Y-72273744D01*
X136721970Y-72311679D01*
X136655000Y-72325000D01*
X136305000Y-72325000D01*
X136238030Y-72311679D01*
X136181256Y-72273744D01*
X136143321Y-72216970D01*
X136130000Y-72150000D01*
X136130000Y-70700000D01*
X136143321Y-70633030D01*
X136181256Y-70576256D01*
X136238030Y-70538321D01*
X136305000Y-70525000D01*
X136655000Y-70525000D01*
X136721970Y-70538321D01*
G37*
G36*
X164550304Y-70162827D02*
G01*
X164623299Y-70211601D01*
X164672073Y-70284596D01*
X164689200Y-70370700D01*
X164689200Y-70820700D01*
X164672073Y-70906804D01*
X164623299Y-70979799D01*
X164550304Y-71028573D01*
X164464200Y-71045700D01*
X163964200Y-71045700D01*
X163878096Y-71028573D01*
X163805101Y-70979799D01*
X163756327Y-70906804D01*
X163739200Y-70820700D01*
X163739200Y-70370700D01*
X163756327Y-70284596D01*
X163805101Y-70211601D01*
X163878096Y-70162827D01*
X163964200Y-70145700D01*
X164464200Y-70145700D01*
X164550304Y-70162827D01*
G37*
G36*
X162845304Y-70141327D02*
G01*
X162918299Y-70190101D01*
X162967073Y-70263096D01*
X162984200Y-70349200D01*
X162984200Y-70799200D01*
X162967073Y-70885304D01*
X162918299Y-70958299D01*
X162845304Y-71007073D01*
X162759200Y-71024200D01*
X162259200Y-71024200D01*
X162173096Y-71007073D01*
X162100101Y-70958299D01*
X162051327Y-70885304D01*
X162034200Y-70799200D01*
X162034200Y-70349200D01*
X162051327Y-70263096D01*
X162100101Y-70190101D01*
X162173096Y-70141327D01*
X162259200Y-70124200D01*
X162759200Y-70124200D01*
X162845304Y-70141327D01*
G37*
G36*
X175941737Y-70239424D02*
G01*
X176006621Y-70282779D01*
X176049976Y-70347663D01*
X176065200Y-70424200D01*
X176065200Y-70824200D01*
X176049976Y-70900737D01*
X176006621Y-70965621D01*
X175941737Y-71008976D01*
X175865200Y-71024200D01*
X175315200Y-71024200D01*
X175238663Y-71008976D01*
X175173779Y-70965621D01*
X175130424Y-70900737D01*
X175115200Y-70824200D01*
X175115200Y-70424200D01*
X175130424Y-70347663D01*
X175173779Y-70282779D01*
X175238663Y-70239424D01*
X175315200Y-70224200D01*
X175865200Y-70224200D01*
X175941737Y-70239424D01*
G37*
G36*
X169175103Y-70333618D02*
G01*
X169223766Y-70366134D01*
X169256282Y-70414797D01*
X169267700Y-70472200D01*
X169267700Y-70772200D01*
X169256282Y-70829603D01*
X169223766Y-70878266D01*
X169175103Y-70910782D01*
X169117700Y-70922200D01*
X168092700Y-70922200D01*
X168035297Y-70910782D01*
X167986634Y-70878266D01*
X167954118Y-70829603D01*
X167942700Y-70772200D01*
X167942700Y-70472200D01*
X167954118Y-70414797D01*
X167986634Y-70366134D01*
X168035297Y-70333618D01*
X168092700Y-70322200D01*
X169117700Y-70322200D01*
X169175103Y-70333618D01*
G37*
G36*
X171450103Y-70333618D02*
G01*
X171498766Y-70366134D01*
X171531282Y-70414797D01*
X171542700Y-70472200D01*
X171542700Y-70772200D01*
X171531282Y-70829603D01*
X171498766Y-70878266D01*
X171450103Y-70910782D01*
X171392700Y-70922200D01*
X170367700Y-70922200D01*
X170310297Y-70910782D01*
X170261634Y-70878266D01*
X170229118Y-70829603D01*
X170217700Y-70772200D01*
X170217700Y-70472200D01*
X170229118Y-70414797D01*
X170261634Y-70366134D01*
X170310297Y-70333618D01*
X170367700Y-70322200D01*
X171392700Y-70322200D01*
X171450103Y-70333618D01*
G37*
G36*
X121526300Y-70096700D02*
G01*
X119316500Y-70096700D01*
X119316500Y-69055300D01*
X121526300Y-69055300D01*
X121526300Y-70096700D01*
G37*
G36*
X169175103Y-69383618D02*
G01*
X169223766Y-69416134D01*
X169256282Y-69464797D01*
X169267700Y-69522200D01*
X169267700Y-69822200D01*
X169256282Y-69879603D01*
X169223766Y-69928266D01*
X169175103Y-69960782D01*
X169117700Y-69972200D01*
X168092700Y-69972200D01*
X168035297Y-69960782D01*
X167986634Y-69928266D01*
X167954118Y-69879603D01*
X167942700Y-69822200D01*
X167942700Y-69522200D01*
X167954118Y-69464797D01*
X167986634Y-69416134D01*
X168035297Y-69383618D01*
X168092700Y-69372200D01*
X169117700Y-69372200D01*
X169175103Y-69383618D01*
G37*
G36*
X171450103Y-69383618D02*
G01*
X171498766Y-69416134D01*
X171531282Y-69464797D01*
X171542700Y-69522200D01*
X171542700Y-69822200D01*
X171531282Y-69879603D01*
X171498766Y-69928266D01*
X171450103Y-69960782D01*
X171392700Y-69972200D01*
X170367700Y-69972200D01*
X170310297Y-69960782D01*
X170261634Y-69928266D01*
X170229118Y-69879603D01*
X170217700Y-69822200D01*
X170217700Y-69522200D01*
X170229118Y-69464797D01*
X170261634Y-69416134D01*
X170310297Y-69383618D01*
X170367700Y-69372200D01*
X171392700Y-69372200D01*
X171450103Y-69383618D01*
G37*
G36*
X164550304Y-68612827D02*
G01*
X164623299Y-68661601D01*
X164672073Y-68734596D01*
X164689200Y-68820700D01*
X164689200Y-69270700D01*
X164672073Y-69356804D01*
X164623299Y-69429799D01*
X164550304Y-69478573D01*
X164464200Y-69495700D01*
X163964200Y-69495700D01*
X163878096Y-69478573D01*
X163805101Y-69429799D01*
X163756327Y-69356804D01*
X163739200Y-69270700D01*
X163739200Y-68820700D01*
X163756327Y-68734596D01*
X163805101Y-68661601D01*
X163878096Y-68612827D01*
X163964200Y-68595700D01*
X164464200Y-68595700D01*
X164550304Y-68612827D01*
G37*
G36*
X162845304Y-68591327D02*
G01*
X162918299Y-68640101D01*
X162967073Y-68713096D01*
X162984200Y-68799200D01*
X162984200Y-69249200D01*
X162967073Y-69335304D01*
X162918299Y-69408299D01*
X162845304Y-69457073D01*
X162759200Y-69474200D01*
X162259200Y-69474200D01*
X162173096Y-69457073D01*
X162100101Y-69408299D01*
X162051327Y-69335304D01*
X162034200Y-69249200D01*
X162034200Y-68799200D01*
X162051327Y-68713096D01*
X162100101Y-68640101D01*
X162173096Y-68591327D01*
X162259200Y-68574200D01*
X162759200Y-68574200D01*
X162845304Y-68591327D01*
G37*
G36*
X175941737Y-68589424D02*
G01*
X176006621Y-68632779D01*
X176049976Y-68697663D01*
X176065200Y-68774200D01*
X176065200Y-69174200D01*
X176049976Y-69250737D01*
X176006621Y-69315621D01*
X175941737Y-69358976D01*
X175865200Y-69374200D01*
X175315200Y-69374200D01*
X175238663Y-69358976D01*
X175173779Y-69315621D01*
X175130424Y-69250737D01*
X175115200Y-69174200D01*
X175115200Y-68774200D01*
X175130424Y-68697663D01*
X175173779Y-68632779D01*
X175238663Y-68589424D01*
X175315200Y-68574200D01*
X175865200Y-68574200D01*
X175941737Y-68589424D01*
G37*
G36*
X173614904Y-68236327D02*
G01*
X173687899Y-68285101D01*
X173736673Y-68358096D01*
X173753800Y-68444200D01*
X173753800Y-68894200D01*
X173736673Y-68980304D01*
X173687899Y-69053299D01*
X173614904Y-69102073D01*
X173528800Y-69119200D01*
X173028800Y-69119200D01*
X172942696Y-69102073D01*
X172869701Y-69053299D01*
X172820927Y-68980304D01*
X172803800Y-68894200D01*
X172803800Y-68444200D01*
X172820927Y-68358096D01*
X172869701Y-68285101D01*
X172942696Y-68236327D01*
X173028800Y-68219200D01*
X173528800Y-68219200D01*
X173614904Y-68236327D01*
G37*
G36*
X169175103Y-68433618D02*
G01*
X169223766Y-68466134D01*
X169256282Y-68514797D01*
X169267700Y-68572200D01*
X169267700Y-68872200D01*
X169256282Y-68929603D01*
X169223766Y-68978266D01*
X169175103Y-69010782D01*
X169117700Y-69022200D01*
X168092700Y-69022200D01*
X168035297Y-69010782D01*
X167986634Y-68978266D01*
X167954118Y-68929603D01*
X167942700Y-68872200D01*
X167942700Y-68572200D01*
X167954118Y-68514797D01*
X167986634Y-68466134D01*
X168035297Y-68433618D01*
X168092700Y-68422200D01*
X169117700Y-68422200D01*
X169175103Y-68433618D01*
G37*
G36*
X171450103Y-68433618D02*
G01*
X171498766Y-68466134D01*
X171531282Y-68514797D01*
X171542700Y-68572200D01*
X171542700Y-68872200D01*
X171531282Y-68929603D01*
X171498766Y-68978266D01*
X171450103Y-69010782D01*
X171392700Y-69022200D01*
X170367700Y-69022200D01*
X170310297Y-69010782D01*
X170261634Y-68978266D01*
X170229118Y-68929603D01*
X170217700Y-68872200D01*
X170217700Y-68572200D01*
X170229118Y-68514797D01*
X170261634Y-68466134D01*
X170310297Y-68433618D01*
X170367700Y-68422200D01*
X171392700Y-68422200D01*
X171450103Y-68433618D01*
G37*
G36*
X119441699Y-68821300D02*
G01*
X118451099Y-68821300D01*
X118451099Y-67830700D01*
X119441699Y-67830700D01*
X119441699Y-68821300D01*
G37*
G36*
X122391701Y-68821300D02*
G01*
X121401101Y-68821300D01*
X121401101Y-67830700D01*
X122391701Y-67830700D01*
X122391701Y-68821300D01*
G37*
G36*
X154609800Y-68008500D02*
G01*
X151104600Y-68008500D01*
X151104600Y-64350900D01*
X154609800Y-64350900D01*
X154609800Y-68008500D01*
G37*
G36*
X140487664Y-66256602D02*
G01*
X140650000Y-66328878D01*
X140793761Y-66433327D01*
X140912664Y-66565383D01*
X141001514Y-66719274D01*
X141056425Y-66888275D01*
X141075000Y-67065000D01*
X141056425Y-67241725D01*
X141001514Y-67410726D01*
X140912664Y-67564617D01*
X140793761Y-67696673D01*
X140650000Y-67801122D01*
X140487664Y-67873398D01*
X140313849Y-67910344D01*
X140136151Y-67910344D01*
X139962336Y-67873398D01*
X139800000Y-67801122D01*
X139656239Y-67696673D01*
X139537336Y-67564617D01*
X139448486Y-67410726D01*
X139393575Y-67241725D01*
X139375000Y-67065000D01*
X139393575Y-66888275D01*
X139448486Y-66719274D01*
X139537336Y-66565383D01*
X139656239Y-66433327D01*
X139800000Y-66328878D01*
X139962336Y-66256602D01*
X140136151Y-66219656D01*
X140313849Y-66219656D01*
X140487664Y-66256602D01*
G37*
G36*
X121526300Y-67596700D02*
G01*
X119316500Y-67596700D01*
X119316500Y-66555300D01*
X121526300Y-66555300D01*
X121526300Y-67596700D01*
G37*
G36*
X173614904Y-66686327D02*
G01*
X173687899Y-66735101D01*
X173736673Y-66808096D01*
X173753800Y-66894200D01*
X173753800Y-67344200D01*
X173736673Y-67430304D01*
X173687899Y-67503299D01*
X173614904Y-67552073D01*
X173528800Y-67569200D01*
X173028800Y-67569200D01*
X172942696Y-67552073D01*
X172869701Y-67503299D01*
X172820927Y-67430304D01*
X172803800Y-67344200D01*
X172803800Y-66894200D01*
X172820927Y-66808096D01*
X172869701Y-66735101D01*
X172942696Y-66686327D01*
X173028800Y-66669200D01*
X173528800Y-66669200D01*
X173614904Y-66686327D01*
G37*
G36*
X161537304Y-66115527D02*
G01*
X161610299Y-66164301D01*
X161659073Y-66237296D01*
X161676200Y-66323400D01*
X161676200Y-66823400D01*
X161659073Y-66909504D01*
X161610299Y-66982499D01*
X161537304Y-67031273D01*
X161451200Y-67048400D01*
X161001200Y-67048400D01*
X160915096Y-67031273D01*
X160842101Y-66982499D01*
X160793327Y-66909504D01*
X160776200Y-66823400D01*
X160776200Y-66323400D01*
X160793327Y-66237296D01*
X160842101Y-66164301D01*
X160915096Y-66115527D01*
X161001200Y-66098400D01*
X161451200Y-66098400D01*
X161537304Y-66115527D01*
G37*
G36*
X163087304Y-66115527D02*
G01*
X163160299Y-66164301D01*
X163209073Y-66237296D01*
X163226200Y-66323400D01*
X163226200Y-66823400D01*
X163209073Y-66909504D01*
X163160299Y-66982499D01*
X163087304Y-67031273D01*
X163001200Y-67048400D01*
X162551200Y-67048400D01*
X162465096Y-67031273D01*
X162392101Y-66982499D01*
X162343327Y-66909504D01*
X162326200Y-66823400D01*
X162326200Y-66323400D01*
X162343327Y-66237296D01*
X162392101Y-66164301D01*
X162465096Y-66115527D01*
X162551200Y-66098400D01*
X163001200Y-66098400D01*
X163087304Y-66115527D01*
G37*
G36*
X117302094Y-56934908D02*
G01*
X117703903Y-57012350D01*
X118096532Y-57127636D01*
X118476425Y-57279722D01*
X118840140Y-57467231D01*
X119184385Y-57688463D01*
X119506041Y-57941417D01*
X119802196Y-58223800D01*
X120070168Y-58533056D01*
X120307530Y-58866384D01*
X120512132Y-59220766D01*
X120682122Y-59592991D01*
X120815960Y-59979690D01*
X120912433Y-60377360D01*
X120970669Y-60782399D01*
X120990140Y-61191140D01*
X120970669Y-61599881D01*
X120912433Y-62004920D01*
X120815960Y-62402590D01*
X120682122Y-62789289D01*
X120512132Y-63161514D01*
X120307530Y-63515896D01*
X120070168Y-63849224D01*
X119802196Y-64158480D01*
X119506041Y-64440863D01*
X119184385Y-64693817D01*
X118840140Y-64915049D01*
X118476425Y-65102558D01*
X118096532Y-65254644D01*
X117703903Y-65369930D01*
X117302094Y-65447372D01*
X116894742Y-65486270D01*
X116485538Y-65486270D01*
X116078186Y-65447372D01*
X115676377Y-65369930D01*
X115283748Y-65254644D01*
X114903855Y-65102558D01*
X114540140Y-64915049D01*
X114195895Y-64693817D01*
X113874239Y-64440863D01*
X113578084Y-64158480D01*
X113310112Y-63849224D01*
X113072750Y-63515896D01*
X112868148Y-63161514D01*
X112698158Y-62789289D01*
X112564320Y-62402590D01*
X112467847Y-62004920D01*
X112409611Y-61599881D01*
X112390140Y-61191140D01*
X112409611Y-60782399D01*
X112467847Y-60377360D01*
X112564320Y-59979690D01*
X112698158Y-59592991D01*
X112868148Y-59220766D01*
X113072750Y-58866384D01*
X113310112Y-58533056D01*
X113578084Y-58223800D01*
X113874239Y-57941417D01*
X114195895Y-57688463D01*
X114540140Y-57467231D01*
X114903855Y-57279722D01*
X115283748Y-57127636D01*
X115676377Y-57012350D01*
X116078186Y-56934908D01*
X116485538Y-56896010D01*
X116894742Y-56896010D01*
X117302094Y-56934908D01*
G37*
G36*
X182371814Y-56934908D02*
G01*
X182773623Y-57012350D01*
X183166252Y-57127636D01*
X183546145Y-57279722D01*
X183909860Y-57467231D01*
X184254105Y-57688463D01*
X184575761Y-57941417D01*
X184871916Y-58223800D01*
X185139888Y-58533056D01*
X185377250Y-58866384D01*
X185581852Y-59220766D01*
X185751842Y-59592991D01*
X185885680Y-59979690D01*
X185982153Y-60377360D01*
X186040389Y-60782399D01*
X186059860Y-61191140D01*
X186040389Y-61599881D01*
X185982153Y-62004920D01*
X185885680Y-62402590D01*
X185751842Y-62789289D01*
X185581852Y-63161514D01*
X185377250Y-63515896D01*
X185139888Y-63849224D01*
X184871916Y-64158480D01*
X184575761Y-64440863D01*
X184254105Y-64693817D01*
X183909860Y-64915049D01*
X183546145Y-65102558D01*
X183166252Y-65254644D01*
X182773623Y-65369930D01*
X182371814Y-65447372D01*
X181964462Y-65486270D01*
X181555258Y-65486270D01*
X181147906Y-65447372D01*
X180746097Y-65369930D01*
X180353468Y-65254644D01*
X179973575Y-65102558D01*
X179609860Y-64915049D01*
X179265615Y-64693817D01*
X178943959Y-64440863D01*
X178647804Y-64158480D01*
X178379832Y-63849224D01*
X178142470Y-63515896D01*
X177937868Y-63161514D01*
X177767878Y-62789289D01*
X177634040Y-62402590D01*
X177537567Y-62004920D01*
X177479331Y-61599881D01*
X177459860Y-61191140D01*
X177479331Y-60782399D01*
X177537567Y-60377360D01*
X177634040Y-59979690D01*
X177767878Y-59592991D01*
X177937868Y-59220766D01*
X178142470Y-58866384D01*
X178379832Y-58533056D01*
X178647804Y-58223800D01*
X178943959Y-57941417D01*
X179265615Y-57688463D01*
X179609860Y-57467231D01*
X179973575Y-57279722D01*
X180353468Y-57127636D01*
X180746097Y-57012350D01*
X181147906Y-56934908D01*
X181555258Y-56896010D01*
X181964462Y-56896010D01*
X182371814Y-56934908D01*
G37*
G36*
X141075000Y-65375000D02*
G01*
X139375000Y-65375000D01*
X139375000Y-63675000D01*
X141075000Y-63675000D01*
X141075000Y-65375000D01*
G37*
G36*
X161537304Y-64235927D02*
G01*
X161610299Y-64284701D01*
X161659073Y-64357696D01*
X161676200Y-64443800D01*
X161676200Y-64943800D01*
X161659073Y-65029904D01*
X161610299Y-65102899D01*
X161537304Y-65151673D01*
X161451200Y-65168800D01*
X161001200Y-65168800D01*
X160915096Y-65151673D01*
X160842101Y-65102899D01*
X160793327Y-65029904D01*
X160776200Y-64943800D01*
X160776200Y-64443800D01*
X160793327Y-64357696D01*
X160842101Y-64284701D01*
X160915096Y-64235927D01*
X161001200Y-64218800D01*
X161451200Y-64218800D01*
X161537304Y-64235927D01*
G37*
G36*
X163087304Y-64235927D02*
G01*
X163160299Y-64284701D01*
X163209073Y-64357696D01*
X163226200Y-64443800D01*
X163226200Y-64943800D01*
X163209073Y-65029904D01*
X163160299Y-65102899D01*
X163087304Y-65151673D01*
X163001200Y-65168800D01*
X162551200Y-65168800D01*
X162465096Y-65151673D01*
X162392101Y-65102899D01*
X162343327Y-65029904D01*
X162326200Y-64943800D01*
X162326200Y-64443800D01*
X162343327Y-64357696D01*
X162392101Y-64284701D01*
X162465096Y-64235927D01*
X162551200Y-64218800D01*
X163001200Y-64218800D01*
X163087304Y-64235927D01*
G37*
G36*
X166661200Y-63923200D02*
G01*
X164961200Y-63923200D01*
X164961200Y-62223200D01*
X166661200Y-62223200D01*
X166661200Y-63923200D01*
G37*
G36*
X170607737Y-62809424D02*
G01*
X170672621Y-62852779D01*
X170715976Y-62917663D01*
X170731200Y-62994200D01*
X170731200Y-63394200D01*
X170715976Y-63470737D01*
X170672621Y-63535621D01*
X170607737Y-63578976D01*
X170531200Y-63594200D01*
X169981200Y-63594200D01*
X169904663Y-63578976D01*
X169839779Y-63535621D01*
X169796424Y-63470737D01*
X169781200Y-63394200D01*
X169781200Y-62994200D01*
X169796424Y-62917663D01*
X169839779Y-62852779D01*
X169904663Y-62809424D01*
X169981200Y-62794200D01*
X170531200Y-62794200D01*
X170607737Y-62809424D01*
G37*
G36*
X127921970Y-61038321D02*
G01*
X127978744Y-61076256D01*
X128016679Y-61133030D01*
X128030000Y-61200000D01*
X128030000Y-62650000D01*
X128016679Y-62716970D01*
X127978744Y-62773744D01*
X127921970Y-62811679D01*
X127855000Y-62825000D01*
X127505000Y-62825000D01*
X127438030Y-62811679D01*
X127381256Y-62773744D01*
X127343321Y-62716970D01*
X127330000Y-62650000D01*
X127330000Y-61200000D01*
X127343321Y-61133030D01*
X127381256Y-61076256D01*
X127438030Y-61038321D01*
X127505000Y-61025000D01*
X127855000Y-61025000D01*
X127921970Y-61038321D01*
G37*
G36*
X129056537Y-61040224D02*
G01*
X129121421Y-61083579D01*
X129164776Y-61148463D01*
X129180000Y-61225000D01*
X129180000Y-62625000D01*
X129164776Y-62701537D01*
X129121421Y-62766421D01*
X129056537Y-62809776D01*
X128980000Y-62825000D01*
X128580000Y-62825000D01*
X128503463Y-62809776D01*
X128438579Y-62766421D01*
X128395224Y-62701537D01*
X128380000Y-62625000D01*
X128380000Y-61225000D01*
X128395224Y-61148463D01*
X128438579Y-61083579D01*
X128503463Y-61040224D01*
X128580000Y-61025000D01*
X128980000Y-61025000D01*
X129056537Y-61040224D01*
G37*
G36*
X130156537Y-61040224D02*
G01*
X130221421Y-61083579D01*
X130264776Y-61148463D01*
X130280000Y-61225000D01*
X130280000Y-62625000D01*
X130264776Y-62701537D01*
X130221421Y-62766421D01*
X130156537Y-62809776D01*
X130080000Y-62825000D01*
X129680000Y-62825000D01*
X129603463Y-62809776D01*
X129538579Y-62766421D01*
X129495224Y-62701537D01*
X129480000Y-62625000D01*
X129480000Y-61225000D01*
X129495224Y-61148463D01*
X129538579Y-61083579D01*
X129603463Y-61040224D01*
X129680000Y-61025000D01*
X130080000Y-61025000D01*
X130156537Y-61040224D01*
G37*
G36*
X131256537Y-61040224D02*
G01*
X131321421Y-61083579D01*
X131364776Y-61148463D01*
X131380000Y-61225000D01*
X131380000Y-62625000D01*
X131364776Y-62701537D01*
X131321421Y-62766421D01*
X131256537Y-62809776D01*
X131180000Y-62825000D01*
X130780000Y-62825000D01*
X130703463Y-62809776D01*
X130638579Y-62766421D01*
X130595224Y-62701537D01*
X130580000Y-62625000D01*
X130580000Y-61225000D01*
X130595224Y-61148463D01*
X130638579Y-61083579D01*
X130703463Y-61040224D01*
X130780000Y-61025000D01*
X131180000Y-61025000D01*
X131256537Y-61040224D01*
G37*
G36*
X132356537Y-61040224D02*
G01*
X132421421Y-61083579D01*
X132464776Y-61148463D01*
X132480000Y-61225000D01*
X132480000Y-62625000D01*
X132464776Y-62701537D01*
X132421421Y-62766421D01*
X132356537Y-62809776D01*
X132280000Y-62825000D01*
X131880000Y-62825000D01*
X131803463Y-62809776D01*
X131738579Y-62766421D01*
X131695224Y-62701537D01*
X131680000Y-62625000D01*
X131680000Y-61225000D01*
X131695224Y-61148463D01*
X131738579Y-61083579D01*
X131803463Y-61040224D01*
X131880000Y-61025000D01*
X132280000Y-61025000D01*
X132356537Y-61040224D01*
G37*
G36*
X133456537Y-61040224D02*
G01*
X133521421Y-61083579D01*
X133564776Y-61148463D01*
X133580000Y-61225000D01*
X133580000Y-62625000D01*
X133564776Y-62701537D01*
X133521421Y-62766421D01*
X133456537Y-62809776D01*
X133380000Y-62825000D01*
X132980000Y-62825000D01*
X132903463Y-62809776D01*
X132838579Y-62766421D01*
X132795224Y-62701537D01*
X132780000Y-62625000D01*
X132780000Y-61225000D01*
X132795224Y-61148463D01*
X132838579Y-61083579D01*
X132903463Y-61040224D01*
X132980000Y-61025000D01*
X133380000Y-61025000D01*
X133456537Y-61040224D01*
G37*
G36*
X134556537Y-61040224D02*
G01*
X134621421Y-61083579D01*
X134664776Y-61148463D01*
X134680000Y-61225000D01*
X134680000Y-62625000D01*
X134664776Y-62701537D01*
X134621421Y-62766421D01*
X134556537Y-62809776D01*
X134480000Y-62825000D01*
X134080000Y-62825000D01*
X134003463Y-62809776D01*
X133938579Y-62766421D01*
X133895224Y-62701537D01*
X133880000Y-62625000D01*
X133880000Y-61225000D01*
X133895224Y-61148463D01*
X133938579Y-61083579D01*
X134003463Y-61040224D01*
X134080000Y-61025000D01*
X134480000Y-61025000D01*
X134556537Y-61040224D01*
G37*
G36*
X135656537Y-61040224D02*
G01*
X135721421Y-61083579D01*
X135764776Y-61148463D01*
X135780000Y-61225000D01*
X135780000Y-62625000D01*
X135764776Y-62701537D01*
X135721421Y-62766421D01*
X135656537Y-62809776D01*
X135580000Y-62825000D01*
X135180000Y-62825000D01*
X135103463Y-62809776D01*
X135038579Y-62766421D01*
X134995224Y-62701537D01*
X134980000Y-62625000D01*
X134980000Y-61225000D01*
X134995224Y-61148463D01*
X135038579Y-61083579D01*
X135103463Y-61040224D01*
X135180000Y-61025000D01*
X135580000Y-61025000D01*
X135656537Y-61040224D01*
G37*
G36*
X136721970Y-61038321D02*
G01*
X136778744Y-61076256D01*
X136816679Y-61133030D01*
X136830000Y-61200000D01*
X136830000Y-62650000D01*
X136816679Y-62716970D01*
X136778744Y-62773744D01*
X136721970Y-62811679D01*
X136655000Y-62825000D01*
X136305000Y-62825000D01*
X136238030Y-62811679D01*
X136181256Y-62773744D01*
X136143321Y-62716970D01*
X136130000Y-62650000D01*
X136130000Y-61200000D01*
X136143321Y-61133030D01*
X136181256Y-61076256D01*
X136238030Y-61038321D01*
X136305000Y-61025000D01*
X136655000Y-61025000D01*
X136721970Y-61038321D01*
G37*
G36*
X170607737Y-61159424D02*
G01*
X170672621Y-61202779D01*
X170715976Y-61267663D01*
X170731200Y-61344200D01*
X170731200Y-61744200D01*
X170715976Y-61820737D01*
X170672621Y-61885621D01*
X170607737Y-61928976D01*
X170531200Y-61944200D01*
X169981200Y-61944200D01*
X169904663Y-61928976D01*
X169839779Y-61885621D01*
X169796424Y-61820737D01*
X169781200Y-61744200D01*
X169781200Y-61344200D01*
X169796424Y-61267663D01*
X169839779Y-61202779D01*
X169904663Y-61159424D01*
X169981200Y-61144200D01*
X170531200Y-61144200D01*
X170607737Y-61159424D01*
G37*
G36*
X166073864Y-59724802D02*
G01*
X166236200Y-59797078D01*
X166379961Y-59901527D01*
X166498864Y-60033583D01*
X166587714Y-60187474D01*
X166642625Y-60356475D01*
X166661200Y-60533200D01*
X166642625Y-60709925D01*
X166587714Y-60878926D01*
X166498864Y-61032817D01*
X166379961Y-61164873D01*
X166236200Y-61269322D01*
X166073864Y-61341598D01*
X165900049Y-61378544D01*
X165722351Y-61378544D01*
X165548536Y-61341598D01*
X165386200Y-61269322D01*
X165242439Y-61164873D01*
X165123536Y-61032817D01*
X165034686Y-60878926D01*
X164979775Y-60709925D01*
X164961200Y-60533200D01*
X164979775Y-60356475D01*
X165034686Y-60187474D01*
X165123536Y-60033583D01*
X165242439Y-59901527D01*
X165386200Y-59797078D01*
X165548536Y-59724802D01*
X165722351Y-59687856D01*
X165900049Y-59687856D01*
X166073864Y-59724802D01*
G37*
G36*
X129076104Y-59105127D02*
G01*
X129149099Y-59153901D01*
X129197873Y-59226896D01*
X129215000Y-59313000D01*
X129215000Y-59813000D01*
X129197873Y-59899104D01*
X129149099Y-59972099D01*
X129076104Y-60020873D01*
X128990000Y-60038000D01*
X128540000Y-60038000D01*
X128453896Y-60020873D01*
X128380901Y-59972099D01*
X128332127Y-59899104D01*
X128315000Y-59813000D01*
X128315000Y-59313000D01*
X128332127Y-59226896D01*
X128380901Y-59153901D01*
X128453896Y-59105127D01*
X128540000Y-59088000D01*
X128990000Y-59088000D01*
X129076104Y-59105127D01*
G37*
G36*
X130626104Y-59105127D02*
G01*
X130699099Y-59153901D01*
X130747873Y-59226896D01*
X130765000Y-59313000D01*
X130765000Y-59813000D01*
X130747873Y-59899104D01*
X130699099Y-59972099D01*
X130626104Y-60020873D01*
X130540000Y-60038000D01*
X130090000Y-60038000D01*
X130003896Y-60020873D01*
X129930901Y-59972099D01*
X129882127Y-59899104D01*
X129865000Y-59813000D01*
X129865000Y-59313000D01*
X129882127Y-59226896D01*
X129930901Y-59153901D01*
X130003896Y-59105127D01*
X130090000Y-59088000D01*
X130540000Y-59088000D01*
X130626104Y-59105127D01*
G37*
G36*
X170596162Y-58735851D02*
G01*
X170667130Y-58783270D01*
X170714549Y-58854238D01*
X170731200Y-58937950D01*
X170731200Y-59375450D01*
X170714549Y-59459162D01*
X170667130Y-59530130D01*
X170596162Y-59577549D01*
X170512450Y-59594200D01*
X169999950Y-59594200D01*
X169916238Y-59577549D01*
X169845270Y-59530130D01*
X169797851Y-59459162D01*
X169781200Y-59375450D01*
X169781200Y-58937950D01*
X169797851Y-58854238D01*
X169845270Y-58783270D01*
X169916238Y-58735851D01*
X169999950Y-58719200D01*
X170512450Y-58719200D01*
X170596162Y-58735851D01*
G37*
G36*
X170596162Y-57160851D02*
G01*
X170667130Y-57208270D01*
X170714549Y-57279238D01*
X170731200Y-57362950D01*
X170731200Y-57800450D01*
X170714549Y-57884162D01*
X170667130Y-57955130D01*
X170596162Y-58002549D01*
X170512450Y-58019200D01*
X169999950Y-58019200D01*
X169916238Y-58002549D01*
X169845270Y-57955130D01*
X169797851Y-57884162D01*
X169781200Y-57800450D01*
X169781200Y-57362950D01*
X169797851Y-57279238D01*
X169845270Y-57208270D01*
X169916238Y-57160851D01*
X169999950Y-57144200D01*
X170512450Y-57144200D01*
X170596162Y-57160851D01*
G37*
G36*
X129076104Y-57073127D02*
G01*
X129149099Y-57121901D01*
X129197873Y-57194896D01*
X129215000Y-57281000D01*
X129215000Y-57781000D01*
X129197873Y-57867104D01*
X129149099Y-57940099D01*
X129076104Y-57988873D01*
X128990000Y-58006000D01*
X128540000Y-58006000D01*
X128453896Y-57988873D01*
X128380901Y-57940099D01*
X128332127Y-57867104D01*
X128315000Y-57781000D01*
X128315000Y-57281000D01*
X128332127Y-57194896D01*
X128380901Y-57121901D01*
X128453896Y-57073127D01*
X128540000Y-57056000D01*
X128990000Y-57056000D01*
X129076104Y-57073127D01*
G37*
G36*
X130626104Y-57073127D02*
G01*
X130699099Y-57121901D01*
X130747873Y-57194896D01*
X130765000Y-57281000D01*
X130765000Y-57781000D01*
X130747873Y-57867104D01*
X130699099Y-57940099D01*
X130626104Y-57988873D01*
X130540000Y-58006000D01*
X130090000Y-58006000D01*
X130003896Y-57988873D01*
X129930901Y-57940099D01*
X129882127Y-57867104D01*
X129865000Y-57781000D01*
X129865000Y-57281000D01*
X129882127Y-57194896D01*
X129930901Y-57121901D01*
X130003896Y-57073127D01*
X130090000Y-57056000D01*
X130540000Y-57056000D01*
X130626104Y-57073127D01*
G37*
M02*
