%TF.GenerationSoftware,KiCad,Pcbnew,7.0.7*%
%TF.CreationDate,2024-10-25T12:06:38-05:00*%
%TF.ProjectId,TrackingTurrentBoard,54726163-6b69-46e6-9754-757272656e74,rev?*%
%TF.SameCoordinates,Original*%
%TF.FileFunction,Soldermask,Bot*%
%TF.FilePolarity,Negative*%
%FSLAX46Y46*%
G04 Gerber Fmt 4.6, Leading zero omitted, Abs format (unit mm)*
G04 Created by KiCad (PCBNEW 7.0.7) date 2024-10-25 12:06:38*
%MOMM*%
%LPD*%
G01*
G04 APERTURE LIST*
G04 APERTURE END LIST*
G36*
X162324601Y-119451380D02*
G01*
X162341156Y-119450339D01*
X162395647Y-119460734D01*
X162454132Y-119468434D01*
X162469603Y-119474842D01*
X162482931Y-119477385D01*
X162535779Y-119502253D01*
X162593100Y-119525996D01*
X162603983Y-119534347D01*
X162613525Y-119538837D01*
X162660758Y-119577912D01*
X162712435Y-119617565D01*
X162718944Y-119626047D01*
X162724738Y-119630841D01*
X162762431Y-119682722D01*
X162804004Y-119736900D01*
X162806934Y-119743974D01*
X162809572Y-119747605D01*
X162834126Y-119809621D01*
X162861566Y-119875868D01*
X162862169Y-119880451D01*
X162862707Y-119881809D01*
X162871227Y-119949253D01*
X162881200Y-120025000D01*
X162881200Y-121225000D01*
X162881007Y-121226465D01*
X162876657Y-121295603D01*
X162866903Y-121333589D01*
X162861566Y-121374132D01*
X162848223Y-121406344D01*
X162840362Y-121436962D01*
X162820808Y-121472528D01*
X162804004Y-121513100D01*
X162784610Y-121538374D01*
X162770827Y-121563446D01*
X162740999Y-121595208D01*
X162712435Y-121632435D01*
X162689555Y-121649990D01*
X162672027Y-121668657D01*
X162632723Y-121693599D01*
X162593100Y-121724004D01*
X162569242Y-121733885D01*
X162550162Y-121745995D01*
X162503063Y-121761298D01*
X162454132Y-121781566D01*
X162431524Y-121784542D01*
X162412893Y-121790596D01*
X162360506Y-121793892D01*
X162305000Y-121801200D01*
X162285392Y-121798618D01*
X162268843Y-121799660D01*
X162214365Y-121789267D01*
X162155868Y-121781566D01*
X162140392Y-121775155D01*
X162127068Y-121772614D01*
X162074230Y-121747750D01*
X162016900Y-121724004D01*
X162006014Y-121715651D01*
X161996474Y-121711162D01*
X161949244Y-121672089D01*
X161897565Y-121632435D01*
X161891055Y-121623951D01*
X161885261Y-121619158D01*
X161847563Y-121567271D01*
X161805996Y-121513100D01*
X161803065Y-121506026D01*
X161800427Y-121502394D01*
X161775860Y-121440345D01*
X161748434Y-121374132D01*
X161747830Y-121369551D01*
X161747292Y-121368190D01*
X161738765Y-121300690D01*
X161728800Y-121225000D01*
X161728800Y-120025000D01*
X161728992Y-120023536D01*
X161733342Y-119954396D01*
X161743097Y-119916400D01*
X161748434Y-119875868D01*
X161761773Y-119843663D01*
X161769637Y-119813037D01*
X161789195Y-119777459D01*
X161805996Y-119736900D01*
X161825384Y-119711632D01*
X161839172Y-119686553D01*
X161869008Y-119654780D01*
X161897565Y-119617565D01*
X161920437Y-119600014D01*
X161937972Y-119581342D01*
X161977288Y-119556390D01*
X162016900Y-119525996D01*
X162040749Y-119516117D01*
X162059837Y-119504004D01*
X162106951Y-119488695D01*
X162155868Y-119468434D01*
X162178469Y-119465458D01*
X162197106Y-119459403D01*
X162249509Y-119456105D01*
X162305000Y-119448800D01*
X162324601Y-119451380D01*
G37*
G36*
X170964601Y-119451380D02*
G01*
X170981156Y-119450339D01*
X171035647Y-119460734D01*
X171094132Y-119468434D01*
X171109603Y-119474842D01*
X171122931Y-119477385D01*
X171175779Y-119502253D01*
X171233100Y-119525996D01*
X171243983Y-119534347D01*
X171253525Y-119538837D01*
X171300758Y-119577912D01*
X171352435Y-119617565D01*
X171358944Y-119626047D01*
X171364738Y-119630841D01*
X171402431Y-119682722D01*
X171444004Y-119736900D01*
X171446934Y-119743974D01*
X171449572Y-119747605D01*
X171474126Y-119809621D01*
X171501566Y-119875868D01*
X171502169Y-119880451D01*
X171502707Y-119881809D01*
X171511227Y-119949253D01*
X171521200Y-120025000D01*
X171521200Y-121225000D01*
X171521007Y-121226465D01*
X171516657Y-121295603D01*
X171506903Y-121333589D01*
X171501566Y-121374132D01*
X171488223Y-121406344D01*
X171480362Y-121436962D01*
X171460808Y-121472528D01*
X171444004Y-121513100D01*
X171424610Y-121538374D01*
X171410827Y-121563446D01*
X171380999Y-121595208D01*
X171352435Y-121632435D01*
X171329555Y-121649990D01*
X171312027Y-121668657D01*
X171272723Y-121693599D01*
X171233100Y-121724004D01*
X171209242Y-121733885D01*
X171190162Y-121745995D01*
X171143063Y-121761298D01*
X171094132Y-121781566D01*
X171071524Y-121784542D01*
X171052893Y-121790596D01*
X171000506Y-121793892D01*
X170945000Y-121801200D01*
X170925392Y-121798618D01*
X170908843Y-121799660D01*
X170854365Y-121789267D01*
X170795868Y-121781566D01*
X170780392Y-121775155D01*
X170767068Y-121772614D01*
X170714230Y-121747750D01*
X170656900Y-121724004D01*
X170646014Y-121715651D01*
X170636474Y-121711162D01*
X170589244Y-121672089D01*
X170537565Y-121632435D01*
X170531055Y-121623951D01*
X170525261Y-121619158D01*
X170487563Y-121567271D01*
X170445996Y-121513100D01*
X170443065Y-121506026D01*
X170440427Y-121502394D01*
X170415860Y-121440345D01*
X170388434Y-121374132D01*
X170387830Y-121369551D01*
X170387292Y-121368190D01*
X170378765Y-121300690D01*
X170368800Y-121225000D01*
X170368800Y-120025000D01*
X170368992Y-120023536D01*
X170373342Y-119954396D01*
X170383097Y-119916400D01*
X170388434Y-119875868D01*
X170401773Y-119843663D01*
X170409637Y-119813037D01*
X170429195Y-119777459D01*
X170445996Y-119736900D01*
X170465384Y-119711632D01*
X170479172Y-119686553D01*
X170509008Y-119654780D01*
X170537565Y-119617565D01*
X170560437Y-119600014D01*
X170577972Y-119581342D01*
X170617288Y-119556390D01*
X170656900Y-119525996D01*
X170680749Y-119516117D01*
X170699837Y-119504004D01*
X170746951Y-119488695D01*
X170795868Y-119468434D01*
X170818469Y-119465458D01*
X170837106Y-119459403D01*
X170889509Y-119456105D01*
X170945000Y-119448800D01*
X170964601Y-119451380D01*
G37*
G36*
X117302094Y-112860628D02*
G01*
X117703903Y-112938070D01*
X118096532Y-113053356D01*
X118476425Y-113205442D01*
X118840140Y-113392951D01*
X119184385Y-113614183D01*
X119506041Y-113867137D01*
X119802196Y-114149520D01*
X120070168Y-114458776D01*
X120307530Y-114792104D01*
X120512132Y-115146486D01*
X120682122Y-115518711D01*
X120815960Y-115905410D01*
X120912433Y-116303080D01*
X120970669Y-116708119D01*
X120990140Y-117116860D01*
X120970669Y-117525601D01*
X120912433Y-117930640D01*
X120815960Y-118328310D01*
X120682122Y-118715009D01*
X120512132Y-119087234D01*
X120307530Y-119441616D01*
X120070168Y-119774944D01*
X119802196Y-120084200D01*
X119506041Y-120366583D01*
X119184385Y-120619537D01*
X118840140Y-120840769D01*
X118476425Y-121028278D01*
X118096532Y-121180364D01*
X117703903Y-121295650D01*
X117302094Y-121373092D01*
X116894742Y-121411990D01*
X116485538Y-121411990D01*
X116078186Y-121373092D01*
X115676377Y-121295650D01*
X115283748Y-121180364D01*
X114903855Y-121028278D01*
X114540140Y-120840769D01*
X114195895Y-120619537D01*
X113874239Y-120366583D01*
X113578084Y-120084200D01*
X113310112Y-119774944D01*
X113072750Y-119441616D01*
X112868148Y-119087234D01*
X112698158Y-118715009D01*
X112564320Y-118328310D01*
X112467847Y-117930640D01*
X112409611Y-117525601D01*
X112390140Y-117116860D01*
X112409611Y-116708119D01*
X112467847Y-116303080D01*
X112564320Y-115905410D01*
X112698158Y-115518711D01*
X112868148Y-115146486D01*
X113072750Y-114792104D01*
X113310112Y-114458776D01*
X113578084Y-114149520D01*
X113874239Y-113867137D01*
X114195895Y-113614183D01*
X114540140Y-113392951D01*
X114903855Y-113205442D01*
X115283748Y-113053356D01*
X115676377Y-112938070D01*
X116078186Y-112860628D01*
X116485538Y-112821730D01*
X116894742Y-112821730D01*
X117302094Y-112860628D01*
G37*
G36*
X182371814Y-112860628D02*
G01*
X182773623Y-112938070D01*
X183166252Y-113053356D01*
X183546145Y-113205442D01*
X183909860Y-113392951D01*
X184254105Y-113614183D01*
X184575761Y-113867137D01*
X184871916Y-114149520D01*
X185139888Y-114458776D01*
X185377250Y-114792104D01*
X185581852Y-115146486D01*
X185751842Y-115518711D01*
X185885680Y-115905410D01*
X185982153Y-116303080D01*
X186040389Y-116708119D01*
X186059860Y-117116860D01*
X186040389Y-117525601D01*
X185982153Y-117930640D01*
X185885680Y-118328310D01*
X185751842Y-118715009D01*
X185581852Y-119087234D01*
X185377250Y-119441616D01*
X185139888Y-119774944D01*
X184871916Y-120084200D01*
X184575761Y-120366583D01*
X184254105Y-120619537D01*
X183909860Y-120840769D01*
X183546145Y-121028278D01*
X183166252Y-121180364D01*
X182773623Y-121295650D01*
X182371814Y-121373092D01*
X181964462Y-121411990D01*
X181555258Y-121411990D01*
X181147906Y-121373092D01*
X180746097Y-121295650D01*
X180353468Y-121180364D01*
X179973575Y-121028278D01*
X179609860Y-120840769D01*
X179265615Y-120619537D01*
X178943959Y-120366583D01*
X178647804Y-120084200D01*
X178379832Y-119774944D01*
X178142470Y-119441616D01*
X177937868Y-119087234D01*
X177767878Y-118715009D01*
X177634040Y-118328310D01*
X177537567Y-117930640D01*
X177479331Y-117525601D01*
X177459860Y-117116860D01*
X177479331Y-116708119D01*
X177537567Y-116303080D01*
X177634040Y-115905410D01*
X177767878Y-115518711D01*
X177937868Y-115146486D01*
X178142470Y-114792104D01*
X178379832Y-114458776D01*
X178647804Y-114149520D01*
X178943959Y-113867137D01*
X179265615Y-113614183D01*
X179609860Y-113392951D01*
X179973575Y-113205442D01*
X180353468Y-113053356D01*
X180746097Y-112938070D01*
X181147906Y-112860628D01*
X181555258Y-112821730D01*
X181964462Y-112821730D01*
X182371814Y-112860628D01*
G37*
G36*
X134385000Y-119275000D02*
G01*
X132285000Y-119275000D01*
X132285000Y-117175000D01*
X134385000Y-117175000D01*
X134385000Y-119275000D01*
G37*
G36*
X135922680Y-117179696D02*
G01*
X135971862Y-117179696D01*
X136026632Y-117189934D01*
X136079845Y-117195175D01*
X136120268Y-117207437D01*
X136162283Y-117215291D01*
X136220474Y-117237834D01*
X136276818Y-117254926D01*
X136309009Y-117272132D01*
X136342931Y-117285274D01*
X136401876Y-117321771D01*
X136458349Y-117351957D01*
X136482075Y-117371428D01*
X136507634Y-117387254D01*
X136564263Y-117438879D01*
X136617462Y-117482538D01*
X136633228Y-117501748D01*
X136650800Y-117517768D01*
X136701810Y-117585317D01*
X136748043Y-117641651D01*
X136756983Y-117658377D01*
X136767542Y-117672359D01*
X136809541Y-117756706D01*
X136845074Y-117823182D01*
X136848864Y-117835676D01*
X136853891Y-117845772D01*
X136883590Y-117950154D01*
X136904825Y-118020155D01*
X136905522Y-118027236D01*
X136906908Y-118032106D01*
X136921316Y-118187599D01*
X136925000Y-118225000D01*
X136921313Y-118262429D01*
X136906908Y-118417893D01*
X136905522Y-118422762D01*
X136904825Y-118429845D01*
X136883585Y-118499861D01*
X136853891Y-118604227D01*
X136848865Y-118614320D01*
X136845074Y-118626818D01*
X136809534Y-118693307D01*
X136767542Y-118777640D01*
X136756985Y-118791619D01*
X136748043Y-118808349D01*
X136701801Y-118864694D01*
X136650800Y-118932231D01*
X136633231Y-118948247D01*
X136617462Y-118967462D01*
X136564252Y-119011129D01*
X136507634Y-119062745D01*
X136482080Y-119078567D01*
X136458349Y-119098043D01*
X136401865Y-119128234D01*
X136342931Y-119164725D01*
X136309016Y-119177863D01*
X136276818Y-119195074D01*
X136220463Y-119212169D01*
X136162283Y-119234708D01*
X136120275Y-119242560D01*
X136079845Y-119254825D01*
X136026629Y-119260066D01*
X135971862Y-119270304D01*
X135922680Y-119270304D01*
X135875000Y-119275000D01*
X135827320Y-119270304D01*
X135778138Y-119270304D01*
X135723369Y-119260066D01*
X135670155Y-119254825D01*
X135629726Y-119242561D01*
X135587716Y-119234708D01*
X135529532Y-119212167D01*
X135473182Y-119195074D01*
X135440986Y-119177864D01*
X135407068Y-119164725D01*
X135348127Y-119128230D01*
X135291651Y-119098043D01*
X135267922Y-119078569D01*
X135242365Y-119062745D01*
X135185737Y-119011121D01*
X135132538Y-118967462D01*
X135116771Y-118948250D01*
X135099199Y-118932231D01*
X135048186Y-118864679D01*
X135001957Y-118808349D01*
X134993017Y-118791623D01*
X134982457Y-118777640D01*
X134940450Y-118693279D01*
X134904926Y-118626818D01*
X134901136Y-118614325D01*
X134896108Y-118604227D01*
X134866397Y-118499807D01*
X134845175Y-118429845D01*
X134844477Y-118422767D01*
X134843091Y-118417893D01*
X134828669Y-118262257D01*
X134825000Y-118225000D01*
X134828666Y-118187771D01*
X134843091Y-118032106D01*
X134844478Y-118027230D01*
X134845175Y-118020155D01*
X134866393Y-117950207D01*
X134896108Y-117845772D01*
X134901137Y-117835671D01*
X134904926Y-117823182D01*
X134940443Y-117756733D01*
X134982457Y-117672359D01*
X134993019Y-117658372D01*
X135001957Y-117641651D01*
X135048176Y-117585332D01*
X135099199Y-117517768D01*
X135116774Y-117501745D01*
X135132538Y-117482538D01*
X135185726Y-117438887D01*
X135242365Y-117387254D01*
X135267927Y-117371426D01*
X135291651Y-117351957D01*
X135348115Y-117321775D01*
X135407068Y-117285274D01*
X135440993Y-117272131D01*
X135473182Y-117254926D01*
X135529520Y-117237835D01*
X135587716Y-117215291D01*
X135629732Y-117207436D01*
X135670155Y-117195175D01*
X135723366Y-117189934D01*
X135778138Y-117179696D01*
X135827320Y-117179696D01*
X135875000Y-117175000D01*
X135922680Y-117179696D01*
G37*
G36*
X138462680Y-117179696D02*
G01*
X138511862Y-117179696D01*
X138566632Y-117189934D01*
X138619845Y-117195175D01*
X138660268Y-117207437D01*
X138702283Y-117215291D01*
X138760474Y-117237834D01*
X138816818Y-117254926D01*
X138849009Y-117272132D01*
X138882931Y-117285274D01*
X138941876Y-117321771D01*
X138998349Y-117351957D01*
X139022075Y-117371428D01*
X139047634Y-117387254D01*
X139104263Y-117438879D01*
X139157462Y-117482538D01*
X139173228Y-117501748D01*
X139190800Y-117517768D01*
X139241810Y-117585317D01*
X139288043Y-117641651D01*
X139296983Y-117658377D01*
X139307542Y-117672359D01*
X139349541Y-117756706D01*
X139385074Y-117823182D01*
X139388864Y-117835676D01*
X139393891Y-117845772D01*
X139423590Y-117950154D01*
X139444825Y-118020155D01*
X139445522Y-118027236D01*
X139446908Y-118032106D01*
X139461315Y-118187586D01*
X139465000Y-118225000D01*
X139461314Y-118262416D01*
X139446908Y-118417893D01*
X139445522Y-118422762D01*
X139444825Y-118429845D01*
X139423585Y-118499861D01*
X139393891Y-118604227D01*
X139388865Y-118614320D01*
X139385074Y-118626818D01*
X139349534Y-118693307D01*
X139307542Y-118777640D01*
X139296985Y-118791619D01*
X139288043Y-118808349D01*
X139241801Y-118864694D01*
X139190800Y-118932231D01*
X139173231Y-118948247D01*
X139157462Y-118967462D01*
X139104252Y-119011129D01*
X139047634Y-119062745D01*
X139022080Y-119078567D01*
X138998349Y-119098043D01*
X138941865Y-119128234D01*
X138882931Y-119164725D01*
X138849016Y-119177863D01*
X138816818Y-119195074D01*
X138760463Y-119212169D01*
X138702283Y-119234708D01*
X138660275Y-119242560D01*
X138619845Y-119254825D01*
X138566629Y-119260066D01*
X138511862Y-119270304D01*
X138462680Y-119270304D01*
X138415000Y-119275000D01*
X138367320Y-119270304D01*
X138318138Y-119270304D01*
X138263369Y-119260066D01*
X138210155Y-119254825D01*
X138169726Y-119242561D01*
X138127716Y-119234708D01*
X138069532Y-119212167D01*
X138013182Y-119195074D01*
X137980986Y-119177864D01*
X137947068Y-119164725D01*
X137888127Y-119128230D01*
X137831651Y-119098043D01*
X137807922Y-119078569D01*
X137782365Y-119062745D01*
X137725737Y-119011121D01*
X137672538Y-118967462D01*
X137656771Y-118948250D01*
X137639199Y-118932231D01*
X137588186Y-118864679D01*
X137541957Y-118808349D01*
X137533017Y-118791623D01*
X137522457Y-118777640D01*
X137480450Y-118693279D01*
X137444926Y-118626818D01*
X137441136Y-118614325D01*
X137436108Y-118604227D01*
X137406397Y-118499807D01*
X137385175Y-118429845D01*
X137384477Y-118422767D01*
X137383091Y-118417893D01*
X137368669Y-118262257D01*
X137365000Y-118225000D01*
X137368666Y-118187771D01*
X137383091Y-118032106D01*
X137384478Y-118027230D01*
X137385175Y-118020155D01*
X137406393Y-117950207D01*
X137436108Y-117845772D01*
X137441137Y-117835671D01*
X137444926Y-117823182D01*
X137480443Y-117756733D01*
X137522457Y-117672359D01*
X137533019Y-117658372D01*
X137541957Y-117641651D01*
X137588176Y-117585332D01*
X137639199Y-117517768D01*
X137656774Y-117501745D01*
X137672538Y-117482538D01*
X137725726Y-117438887D01*
X137782365Y-117387254D01*
X137807927Y-117371426D01*
X137831651Y-117351957D01*
X137888115Y-117321775D01*
X137947068Y-117285274D01*
X137980993Y-117272131D01*
X138013182Y-117254926D01*
X138069520Y-117237835D01*
X138127716Y-117215291D01*
X138169732Y-117207436D01*
X138210155Y-117195175D01*
X138263366Y-117189934D01*
X138318138Y-117179696D01*
X138367320Y-117179696D01*
X138415000Y-117175000D01*
X138462680Y-117179696D01*
G37*
G36*
X141002680Y-117179696D02*
G01*
X141051862Y-117179696D01*
X141106632Y-117189934D01*
X141159845Y-117195175D01*
X141200268Y-117207437D01*
X141242283Y-117215291D01*
X141300474Y-117237834D01*
X141356818Y-117254926D01*
X141389009Y-117272132D01*
X141422931Y-117285274D01*
X141481876Y-117321771D01*
X141538349Y-117351957D01*
X141562075Y-117371428D01*
X141587634Y-117387254D01*
X141644263Y-117438879D01*
X141697462Y-117482538D01*
X141713228Y-117501748D01*
X141730800Y-117517768D01*
X141781810Y-117585317D01*
X141828043Y-117641651D01*
X141836983Y-117658377D01*
X141847542Y-117672359D01*
X141889541Y-117756706D01*
X141925074Y-117823182D01*
X141928864Y-117835676D01*
X141933891Y-117845772D01*
X141963590Y-117950154D01*
X141984825Y-118020155D01*
X141985522Y-118027236D01*
X141986908Y-118032106D01*
X142001316Y-118187599D01*
X142005000Y-118225000D01*
X142001313Y-118262429D01*
X141986908Y-118417893D01*
X141985522Y-118422762D01*
X141984825Y-118429845D01*
X141963585Y-118499861D01*
X141933891Y-118604227D01*
X141928865Y-118614320D01*
X141925074Y-118626818D01*
X141889534Y-118693307D01*
X141847542Y-118777640D01*
X141836985Y-118791619D01*
X141828043Y-118808349D01*
X141781801Y-118864694D01*
X141730800Y-118932231D01*
X141713231Y-118948247D01*
X141697462Y-118967462D01*
X141644252Y-119011129D01*
X141587634Y-119062745D01*
X141562080Y-119078567D01*
X141538349Y-119098043D01*
X141481865Y-119128234D01*
X141422931Y-119164725D01*
X141389016Y-119177863D01*
X141356818Y-119195074D01*
X141300463Y-119212169D01*
X141242283Y-119234708D01*
X141200275Y-119242560D01*
X141159845Y-119254825D01*
X141106629Y-119260066D01*
X141051862Y-119270304D01*
X141002680Y-119270304D01*
X140955000Y-119275000D01*
X140907320Y-119270304D01*
X140858138Y-119270304D01*
X140803369Y-119260066D01*
X140750155Y-119254825D01*
X140709726Y-119242561D01*
X140667716Y-119234708D01*
X140609532Y-119212167D01*
X140553182Y-119195074D01*
X140520986Y-119177864D01*
X140487068Y-119164725D01*
X140428127Y-119128230D01*
X140371651Y-119098043D01*
X140347922Y-119078569D01*
X140322365Y-119062745D01*
X140265737Y-119011121D01*
X140212538Y-118967462D01*
X140196771Y-118948250D01*
X140179199Y-118932231D01*
X140128186Y-118864679D01*
X140081957Y-118808349D01*
X140073017Y-118791623D01*
X140062457Y-118777640D01*
X140020450Y-118693279D01*
X139984926Y-118626818D01*
X139981136Y-118614325D01*
X139976108Y-118604227D01*
X139946397Y-118499807D01*
X139925175Y-118429845D01*
X139924477Y-118422767D01*
X139923091Y-118417893D01*
X139908668Y-118262244D01*
X139905000Y-118225000D01*
X139908667Y-118187758D01*
X139923091Y-118032106D01*
X139924478Y-118027230D01*
X139925175Y-118020155D01*
X139946393Y-117950207D01*
X139976108Y-117845772D01*
X139981137Y-117835671D01*
X139984926Y-117823182D01*
X140020443Y-117756733D01*
X140062457Y-117672359D01*
X140073019Y-117658372D01*
X140081957Y-117641651D01*
X140128176Y-117585332D01*
X140179199Y-117517768D01*
X140196774Y-117501745D01*
X140212538Y-117482538D01*
X140265726Y-117438887D01*
X140322365Y-117387254D01*
X140347927Y-117371426D01*
X140371651Y-117351957D01*
X140428115Y-117321775D01*
X140487068Y-117285274D01*
X140520993Y-117272131D01*
X140553182Y-117254926D01*
X140609520Y-117237835D01*
X140667716Y-117215291D01*
X140709732Y-117207436D01*
X140750155Y-117195175D01*
X140803366Y-117189934D01*
X140858138Y-117179696D01*
X140907320Y-117179696D01*
X140955000Y-117175000D01*
X141002680Y-117179696D01*
G37*
G36*
X162324601Y-115651380D02*
G01*
X162341156Y-115650339D01*
X162395647Y-115660734D01*
X162454132Y-115668434D01*
X162469603Y-115674842D01*
X162482931Y-115677385D01*
X162535779Y-115702253D01*
X162593100Y-115725996D01*
X162603983Y-115734347D01*
X162613525Y-115738837D01*
X162660758Y-115777912D01*
X162712435Y-115817565D01*
X162718944Y-115826047D01*
X162724738Y-115830841D01*
X162762431Y-115882722D01*
X162804004Y-115936900D01*
X162806934Y-115943974D01*
X162809572Y-115947605D01*
X162834126Y-116009621D01*
X162861566Y-116075868D01*
X162862169Y-116080451D01*
X162862707Y-116081809D01*
X162871227Y-116149253D01*
X162881200Y-116225000D01*
X162881200Y-117025000D01*
X162881007Y-117026465D01*
X162876657Y-117095603D01*
X162866903Y-117133589D01*
X162861566Y-117174132D01*
X162848223Y-117206344D01*
X162840362Y-117236962D01*
X162820808Y-117272528D01*
X162804004Y-117313100D01*
X162784610Y-117338374D01*
X162770827Y-117363446D01*
X162740999Y-117395208D01*
X162712435Y-117432435D01*
X162689555Y-117449990D01*
X162672027Y-117468657D01*
X162632723Y-117493599D01*
X162593100Y-117524004D01*
X162569242Y-117533885D01*
X162550162Y-117545995D01*
X162503063Y-117561298D01*
X162454132Y-117581566D01*
X162431524Y-117584542D01*
X162412893Y-117590596D01*
X162360506Y-117593892D01*
X162305000Y-117601200D01*
X162285392Y-117598618D01*
X162268843Y-117599660D01*
X162214365Y-117589267D01*
X162155868Y-117581566D01*
X162140392Y-117575155D01*
X162127068Y-117572614D01*
X162074230Y-117547750D01*
X162016900Y-117524004D01*
X162006014Y-117515651D01*
X161996474Y-117511162D01*
X161949244Y-117472089D01*
X161897565Y-117432435D01*
X161891055Y-117423951D01*
X161885261Y-117419158D01*
X161847563Y-117367271D01*
X161805996Y-117313100D01*
X161803065Y-117306026D01*
X161800427Y-117302394D01*
X161775860Y-117240345D01*
X161748434Y-117174132D01*
X161747830Y-117169551D01*
X161747292Y-117168190D01*
X161738765Y-117100690D01*
X161728800Y-117025000D01*
X161728800Y-116225000D01*
X161728992Y-116223536D01*
X161733342Y-116154396D01*
X161743097Y-116116400D01*
X161748434Y-116075868D01*
X161761773Y-116043663D01*
X161769637Y-116013037D01*
X161789195Y-115977459D01*
X161805996Y-115936900D01*
X161825384Y-115911632D01*
X161839172Y-115886553D01*
X161869008Y-115854780D01*
X161897565Y-115817565D01*
X161920437Y-115800014D01*
X161937972Y-115781342D01*
X161977288Y-115756390D01*
X162016900Y-115725996D01*
X162040749Y-115716117D01*
X162059837Y-115704004D01*
X162106951Y-115688695D01*
X162155868Y-115668434D01*
X162178469Y-115665458D01*
X162197106Y-115659403D01*
X162249509Y-115656105D01*
X162305000Y-115648800D01*
X162324601Y-115651380D01*
G37*
G36*
X170964601Y-115651380D02*
G01*
X170981156Y-115650339D01*
X171035647Y-115660734D01*
X171094132Y-115668434D01*
X171109603Y-115674842D01*
X171122931Y-115677385D01*
X171175779Y-115702253D01*
X171233100Y-115725996D01*
X171243983Y-115734347D01*
X171253525Y-115738837D01*
X171300758Y-115777912D01*
X171352435Y-115817565D01*
X171358944Y-115826047D01*
X171364738Y-115830841D01*
X171402431Y-115882722D01*
X171444004Y-115936900D01*
X171446934Y-115943974D01*
X171449572Y-115947605D01*
X171474126Y-116009621D01*
X171501566Y-116075868D01*
X171502169Y-116080451D01*
X171502707Y-116081809D01*
X171511227Y-116149253D01*
X171521200Y-116225000D01*
X171521200Y-117025000D01*
X171521007Y-117026465D01*
X171516657Y-117095603D01*
X171506903Y-117133589D01*
X171501566Y-117174132D01*
X171488223Y-117206344D01*
X171480362Y-117236962D01*
X171460808Y-117272528D01*
X171444004Y-117313100D01*
X171424610Y-117338374D01*
X171410827Y-117363446D01*
X171380999Y-117395208D01*
X171352435Y-117432435D01*
X171329555Y-117449990D01*
X171312027Y-117468657D01*
X171272723Y-117493599D01*
X171233100Y-117524004D01*
X171209242Y-117533885D01*
X171190162Y-117545995D01*
X171143063Y-117561298D01*
X171094132Y-117581566D01*
X171071524Y-117584542D01*
X171052893Y-117590596D01*
X171000506Y-117593892D01*
X170945000Y-117601200D01*
X170925392Y-117598618D01*
X170908843Y-117599660D01*
X170854365Y-117589267D01*
X170795868Y-117581566D01*
X170780392Y-117575155D01*
X170767068Y-117572614D01*
X170714230Y-117547750D01*
X170656900Y-117524004D01*
X170646014Y-117515651D01*
X170636474Y-117511162D01*
X170589244Y-117472089D01*
X170537565Y-117432435D01*
X170531055Y-117423951D01*
X170525261Y-117419158D01*
X170487563Y-117367271D01*
X170445996Y-117313100D01*
X170443065Y-117306026D01*
X170440427Y-117302394D01*
X170415860Y-117240345D01*
X170388434Y-117174132D01*
X170387830Y-117169551D01*
X170387292Y-117168190D01*
X170378765Y-117100690D01*
X170368800Y-117025000D01*
X170368800Y-116225000D01*
X170368992Y-116223536D01*
X170373342Y-116154396D01*
X170383097Y-116116400D01*
X170388434Y-116075868D01*
X170401773Y-116043663D01*
X170409637Y-116013037D01*
X170429195Y-115977459D01*
X170445996Y-115936900D01*
X170465384Y-115911632D01*
X170479172Y-115886553D01*
X170509008Y-115854780D01*
X170537565Y-115817565D01*
X170560437Y-115800014D01*
X170577972Y-115781342D01*
X170617288Y-115756390D01*
X170656900Y-115725996D01*
X170680749Y-115716117D01*
X170699837Y-115704004D01*
X170746951Y-115688695D01*
X170795868Y-115668434D01*
X170818469Y-115665458D01*
X170837106Y-115659403D01*
X170889509Y-115656105D01*
X170945000Y-115648800D01*
X170964601Y-115651380D01*
G37*
G36*
X120658664Y-107395602D02*
G01*
X120821000Y-107467878D01*
X120964761Y-107572327D01*
X121083664Y-107704383D01*
X121172514Y-107858274D01*
X121227425Y-108027275D01*
X121246000Y-108204000D01*
X121227425Y-108380725D01*
X121172514Y-108549726D01*
X121083664Y-108703617D01*
X120964761Y-108835673D01*
X120821000Y-108940122D01*
X120658664Y-109012398D01*
X120484849Y-109049344D01*
X120307151Y-109049344D01*
X120133336Y-109012398D01*
X119971000Y-108940122D01*
X119827239Y-108835673D01*
X119708336Y-108703617D01*
X119619486Y-108549726D01*
X119564575Y-108380725D01*
X119546000Y-108204000D01*
X119564575Y-108027275D01*
X119619486Y-107858274D01*
X119708336Y-107704383D01*
X119827239Y-107572327D01*
X119971000Y-107467878D01*
X120133336Y-107395602D01*
X120307151Y-107358656D01*
X120484849Y-107358656D01*
X120658664Y-107395602D01*
G37*
G36*
X120658664Y-104855602D02*
G01*
X120821000Y-104927878D01*
X120964761Y-105032327D01*
X121083664Y-105164383D01*
X121172514Y-105318274D01*
X121227425Y-105487275D01*
X121246000Y-105664000D01*
X121227425Y-105840725D01*
X121172514Y-106009726D01*
X121083664Y-106163617D01*
X120964761Y-106295673D01*
X120821000Y-106400122D01*
X120658664Y-106472398D01*
X120484849Y-106509344D01*
X120307151Y-106509344D01*
X120133336Y-106472398D01*
X119971000Y-106400122D01*
X119827239Y-106295673D01*
X119708336Y-106163617D01*
X119619486Y-106009726D01*
X119564575Y-105840725D01*
X119546000Y-105664000D01*
X119564575Y-105487275D01*
X119619486Y-105318274D01*
X119708336Y-105164383D01*
X119827239Y-105032327D01*
X119971000Y-104927878D01*
X120133336Y-104855602D01*
X120307151Y-104818656D01*
X120484849Y-104818656D01*
X120658664Y-104855602D01*
G37*
G36*
X125900000Y-106475000D02*
G01*
X124200000Y-106475000D01*
X124200000Y-104775000D01*
X125900000Y-104775000D01*
X125900000Y-106475000D01*
G37*
G36*
X127852664Y-104816602D02*
G01*
X128015000Y-104888878D01*
X128158761Y-104993327D01*
X128277664Y-105125383D01*
X128366514Y-105279274D01*
X128421425Y-105448275D01*
X128440000Y-105625000D01*
X128421425Y-105801725D01*
X128366514Y-105970726D01*
X128277664Y-106124617D01*
X128158761Y-106256673D01*
X128015000Y-106361122D01*
X127852664Y-106433398D01*
X127678849Y-106470344D01*
X127501151Y-106470344D01*
X127327336Y-106433398D01*
X127165000Y-106361122D01*
X127021239Y-106256673D01*
X126902336Y-106124617D01*
X126813486Y-105970726D01*
X126758575Y-105801725D01*
X126740000Y-105625000D01*
X126758575Y-105448275D01*
X126813486Y-105279274D01*
X126902336Y-105125383D01*
X127021239Y-104993327D01*
X127165000Y-104888878D01*
X127327336Y-104816602D01*
X127501151Y-104779656D01*
X127678849Y-104779656D01*
X127852664Y-104816602D01*
G37*
G36*
X121246000Y-103974000D02*
G01*
X119546000Y-103974000D01*
X119546000Y-102274000D01*
X121246000Y-102274000D01*
X121246000Y-103974000D01*
G37*
G36*
X162314464Y-98744802D02*
G01*
X162476800Y-98817078D01*
X162620561Y-98921527D01*
X162739464Y-99053583D01*
X162828314Y-99207474D01*
X162883225Y-99376475D01*
X162901800Y-99553200D01*
X162883225Y-99729925D01*
X162828314Y-99898926D01*
X162739464Y-100052817D01*
X162620561Y-100184873D01*
X162476800Y-100289322D01*
X162314464Y-100361598D01*
X162140649Y-100398544D01*
X161962951Y-100398544D01*
X161789136Y-100361598D01*
X161626800Y-100289322D01*
X161483039Y-100184873D01*
X161364136Y-100052817D01*
X161275286Y-99898926D01*
X161220375Y-99729925D01*
X161201800Y-99553200D01*
X161220375Y-99376475D01*
X161275286Y-99207474D01*
X161364136Y-99053583D01*
X161483039Y-98921527D01*
X161626800Y-98817078D01*
X161789136Y-98744802D01*
X161962951Y-98707856D01*
X162140649Y-98707856D01*
X162314464Y-98744802D01*
G37*
G36*
X122690664Y-97235602D02*
G01*
X122853000Y-97307878D01*
X122996761Y-97412327D01*
X123115664Y-97544383D01*
X123204514Y-97698274D01*
X123259425Y-97867275D01*
X123278000Y-98044000D01*
X123259425Y-98220725D01*
X123204514Y-98389726D01*
X123115664Y-98543617D01*
X122996761Y-98675673D01*
X122853000Y-98780122D01*
X122690664Y-98852398D01*
X122516849Y-98889344D01*
X122339151Y-98889344D01*
X122165336Y-98852398D01*
X122003000Y-98780122D01*
X121859239Y-98675673D01*
X121740336Y-98543617D01*
X121651486Y-98389726D01*
X121596575Y-98220725D01*
X121578000Y-98044000D01*
X121596575Y-97867275D01*
X121651486Y-97698274D01*
X121740336Y-97544383D01*
X121859239Y-97412327D01*
X122003000Y-97307878D01*
X122165336Y-97235602D01*
X122339151Y-97198656D01*
X122516849Y-97198656D01*
X122690664Y-97235602D01*
G37*
G36*
X162901800Y-97863200D02*
G01*
X161201800Y-97863200D01*
X161201800Y-96163200D01*
X162901800Y-96163200D01*
X162901800Y-97863200D01*
G37*
G36*
X122690664Y-94695602D02*
G01*
X122853000Y-94767878D01*
X122996761Y-94872327D01*
X123115664Y-95004383D01*
X123204514Y-95158274D01*
X123259425Y-95327275D01*
X123278000Y-95504000D01*
X123259425Y-95680725D01*
X123204514Y-95849726D01*
X123115664Y-96003617D01*
X122996761Y-96135673D01*
X122853000Y-96240122D01*
X122690664Y-96312398D01*
X122516849Y-96349344D01*
X122339151Y-96349344D01*
X122165336Y-96312398D01*
X122003000Y-96240122D01*
X121859239Y-96135673D01*
X121740336Y-96003617D01*
X121651486Y-95849726D01*
X121596575Y-95680725D01*
X121578000Y-95504000D01*
X121596575Y-95327275D01*
X121651486Y-95158274D01*
X121740336Y-95004383D01*
X121859239Y-94872327D01*
X122003000Y-94767878D01*
X122165336Y-94695602D01*
X122339151Y-94658656D01*
X122516849Y-94658656D01*
X122690664Y-94695602D01*
G37*
G36*
X122690664Y-92155602D02*
G01*
X122853000Y-92227878D01*
X122996761Y-92332327D01*
X123115664Y-92464383D01*
X123204514Y-92618274D01*
X123259425Y-92787275D01*
X123278000Y-92964000D01*
X123259425Y-93140725D01*
X123204514Y-93309726D01*
X123115664Y-93463617D01*
X122996761Y-93595673D01*
X122853000Y-93700122D01*
X122690664Y-93772398D01*
X122516849Y-93809344D01*
X122339151Y-93809344D01*
X122165336Y-93772398D01*
X122003000Y-93700122D01*
X121859239Y-93595673D01*
X121740336Y-93463617D01*
X121651486Y-93309726D01*
X121596575Y-93140725D01*
X121578000Y-92964000D01*
X121596575Y-92787275D01*
X121651486Y-92618274D01*
X121740336Y-92464383D01*
X121859239Y-92332327D01*
X122003000Y-92227878D01*
X122165336Y-92155602D01*
X122339151Y-92118656D01*
X122516849Y-92118656D01*
X122690664Y-92155602D01*
G37*
G36*
X122690664Y-89615602D02*
G01*
X122853000Y-89687878D01*
X122996761Y-89792327D01*
X123115664Y-89924383D01*
X123204514Y-90078274D01*
X123259425Y-90247275D01*
X123278000Y-90424000D01*
X123259425Y-90600725D01*
X123204514Y-90769726D01*
X123115664Y-90923617D01*
X122996761Y-91055673D01*
X122853000Y-91160122D01*
X122690664Y-91232398D01*
X122516849Y-91269344D01*
X122339151Y-91269344D01*
X122165336Y-91232398D01*
X122003000Y-91160122D01*
X121859239Y-91055673D01*
X121740336Y-90923617D01*
X121651486Y-90769726D01*
X121596575Y-90600725D01*
X121578000Y-90424000D01*
X121596575Y-90247275D01*
X121651486Y-90078274D01*
X121740336Y-89924383D01*
X121859239Y-89792327D01*
X122003000Y-89687878D01*
X122165336Y-89615602D01*
X122339151Y-89578656D01*
X122516849Y-89578656D01*
X122690664Y-89615602D01*
G37*
G36*
X123278000Y-88734000D02*
G01*
X121578000Y-88734000D01*
X121578000Y-87034000D01*
X123278000Y-87034000D01*
X123278000Y-88734000D01*
G37*
G36*
X163821400Y-81977600D02*
G01*
X162121400Y-81977600D01*
X162121400Y-80277600D01*
X163821400Y-80277600D01*
X163821400Y-81977600D01*
G37*
G36*
X160694064Y-80319202D02*
G01*
X160856400Y-80391478D01*
X161000161Y-80495927D01*
X161119064Y-80627983D01*
X161207914Y-80781874D01*
X161262825Y-80950875D01*
X161281400Y-81127600D01*
X161262825Y-81304325D01*
X161207914Y-81473326D01*
X161119064Y-81627217D01*
X161000161Y-81759273D01*
X160856400Y-81863722D01*
X160694064Y-81935998D01*
X160520249Y-81972944D01*
X160342551Y-81972944D01*
X160168736Y-81935998D01*
X160006400Y-81863722D01*
X159862639Y-81759273D01*
X159743736Y-81627217D01*
X159654886Y-81473326D01*
X159599975Y-81304325D01*
X159581400Y-81127600D01*
X159599975Y-80950875D01*
X159654886Y-80781874D01*
X159743736Y-80627983D01*
X159862639Y-80495927D01*
X160006400Y-80391478D01*
X160168736Y-80319202D01*
X160342551Y-80282256D01*
X160520249Y-80282256D01*
X160694064Y-80319202D01*
G37*
G36*
X184775000Y-78490000D02*
G01*
X182675000Y-78490000D01*
X182675000Y-76390000D01*
X184775000Y-76390000D01*
X184775000Y-78490000D01*
G37*
G36*
X183772680Y-73854696D02*
G01*
X183821862Y-73854696D01*
X183876632Y-73864934D01*
X183929845Y-73870175D01*
X183970268Y-73882437D01*
X184012283Y-73890291D01*
X184070474Y-73912834D01*
X184126818Y-73929926D01*
X184159009Y-73947132D01*
X184192931Y-73960274D01*
X184251876Y-73996771D01*
X184308349Y-74026957D01*
X184332075Y-74046428D01*
X184357634Y-74062254D01*
X184414263Y-74113879D01*
X184467462Y-74157538D01*
X184483228Y-74176748D01*
X184500800Y-74192768D01*
X184551810Y-74260317D01*
X184598043Y-74316651D01*
X184606983Y-74333377D01*
X184617542Y-74347359D01*
X184659541Y-74431706D01*
X184695074Y-74498182D01*
X184698864Y-74510676D01*
X184703891Y-74520772D01*
X184733590Y-74625154D01*
X184754825Y-74695155D01*
X184755522Y-74702236D01*
X184756908Y-74707106D01*
X184771316Y-74862599D01*
X184775000Y-74900000D01*
X184771313Y-74937429D01*
X184756908Y-75092893D01*
X184755522Y-75097762D01*
X184754825Y-75104845D01*
X184733585Y-75174861D01*
X184703891Y-75279227D01*
X184698865Y-75289320D01*
X184695074Y-75301818D01*
X184659534Y-75368307D01*
X184617542Y-75452640D01*
X184606985Y-75466619D01*
X184598043Y-75483349D01*
X184551801Y-75539694D01*
X184500800Y-75607231D01*
X184483231Y-75623247D01*
X184467462Y-75642462D01*
X184414252Y-75686129D01*
X184357634Y-75737745D01*
X184332080Y-75753567D01*
X184308349Y-75773043D01*
X184251865Y-75803234D01*
X184192931Y-75839725D01*
X184159016Y-75852863D01*
X184126818Y-75870074D01*
X184070463Y-75887169D01*
X184012283Y-75909708D01*
X183970275Y-75917560D01*
X183929845Y-75929825D01*
X183876629Y-75935066D01*
X183821862Y-75945304D01*
X183772680Y-75945304D01*
X183725000Y-75950000D01*
X183677320Y-75945304D01*
X183628138Y-75945304D01*
X183573369Y-75935066D01*
X183520155Y-75929825D01*
X183479726Y-75917561D01*
X183437716Y-75909708D01*
X183379532Y-75887167D01*
X183323182Y-75870074D01*
X183290986Y-75852864D01*
X183257068Y-75839725D01*
X183198127Y-75803230D01*
X183141651Y-75773043D01*
X183117922Y-75753569D01*
X183092365Y-75737745D01*
X183035737Y-75686121D01*
X182982538Y-75642462D01*
X182966771Y-75623250D01*
X182949199Y-75607231D01*
X182898186Y-75539679D01*
X182851957Y-75483349D01*
X182843017Y-75466623D01*
X182832457Y-75452640D01*
X182790450Y-75368279D01*
X182754926Y-75301818D01*
X182751136Y-75289325D01*
X182746108Y-75279227D01*
X182716397Y-75174807D01*
X182695175Y-75104845D01*
X182694477Y-75097767D01*
X182693091Y-75092893D01*
X182678668Y-74937244D01*
X182675000Y-74900000D01*
X182678667Y-74862758D01*
X182693091Y-74707106D01*
X182694478Y-74702230D01*
X182695175Y-74695155D01*
X182716393Y-74625207D01*
X182746108Y-74520772D01*
X182751137Y-74510671D01*
X182754926Y-74498182D01*
X182790443Y-74431733D01*
X182832457Y-74347359D01*
X182843019Y-74333372D01*
X182851957Y-74316651D01*
X182898176Y-74260332D01*
X182949199Y-74192768D01*
X182966774Y-74176745D01*
X182982538Y-74157538D01*
X183035726Y-74113887D01*
X183092365Y-74062254D01*
X183117927Y-74046426D01*
X183141651Y-74026957D01*
X183198115Y-73996775D01*
X183257068Y-73960274D01*
X183290993Y-73947131D01*
X183323182Y-73929926D01*
X183379520Y-73912835D01*
X183437716Y-73890291D01*
X183479732Y-73882436D01*
X183520155Y-73870175D01*
X183573366Y-73864934D01*
X183628138Y-73854696D01*
X183677320Y-73854696D01*
X183725000Y-73850000D01*
X183772680Y-73854696D01*
G37*
G36*
X140487664Y-66256602D02*
G01*
X140650000Y-66328878D01*
X140793761Y-66433327D01*
X140912664Y-66565383D01*
X141001514Y-66719274D01*
X141056425Y-66888275D01*
X141075000Y-67065000D01*
X141056425Y-67241725D01*
X141001514Y-67410726D01*
X140912664Y-67564617D01*
X140793761Y-67696673D01*
X140650000Y-67801122D01*
X140487664Y-67873398D01*
X140313849Y-67910344D01*
X140136151Y-67910344D01*
X139962336Y-67873398D01*
X139800000Y-67801122D01*
X139656239Y-67696673D01*
X139537336Y-67564617D01*
X139448486Y-67410726D01*
X139393575Y-67241725D01*
X139375000Y-67065000D01*
X139393575Y-66888275D01*
X139448486Y-66719274D01*
X139537336Y-66565383D01*
X139656239Y-66433327D01*
X139800000Y-66328878D01*
X139962336Y-66256602D01*
X140136151Y-66219656D01*
X140313849Y-66219656D01*
X140487664Y-66256602D01*
G37*
G36*
X117302094Y-56934908D02*
G01*
X117703903Y-57012350D01*
X118096532Y-57127636D01*
X118476425Y-57279722D01*
X118840140Y-57467231D01*
X119184385Y-57688463D01*
X119506041Y-57941417D01*
X119802196Y-58223800D01*
X120070168Y-58533056D01*
X120307530Y-58866384D01*
X120512132Y-59220766D01*
X120682122Y-59592991D01*
X120815960Y-59979690D01*
X120912433Y-60377360D01*
X120970669Y-60782399D01*
X120990140Y-61191140D01*
X120970669Y-61599881D01*
X120912433Y-62004920D01*
X120815960Y-62402590D01*
X120682122Y-62789289D01*
X120512132Y-63161514D01*
X120307530Y-63515896D01*
X120070168Y-63849224D01*
X119802196Y-64158480D01*
X119506041Y-64440863D01*
X119184385Y-64693817D01*
X118840140Y-64915049D01*
X118476425Y-65102558D01*
X118096532Y-65254644D01*
X117703903Y-65369930D01*
X117302094Y-65447372D01*
X116894742Y-65486270D01*
X116485538Y-65486270D01*
X116078186Y-65447372D01*
X115676377Y-65369930D01*
X115283748Y-65254644D01*
X114903855Y-65102558D01*
X114540140Y-64915049D01*
X114195895Y-64693817D01*
X113874239Y-64440863D01*
X113578084Y-64158480D01*
X113310112Y-63849224D01*
X113072750Y-63515896D01*
X112868148Y-63161514D01*
X112698158Y-62789289D01*
X112564320Y-62402590D01*
X112467847Y-62004920D01*
X112409611Y-61599881D01*
X112390140Y-61191140D01*
X112409611Y-60782399D01*
X112467847Y-60377360D01*
X112564320Y-59979690D01*
X112698158Y-59592991D01*
X112868148Y-59220766D01*
X113072750Y-58866384D01*
X113310112Y-58533056D01*
X113578084Y-58223800D01*
X113874239Y-57941417D01*
X114195895Y-57688463D01*
X114540140Y-57467231D01*
X114903855Y-57279722D01*
X115283748Y-57127636D01*
X115676377Y-57012350D01*
X116078186Y-56934908D01*
X116485538Y-56896010D01*
X116894742Y-56896010D01*
X117302094Y-56934908D01*
G37*
G36*
X182371814Y-56934908D02*
G01*
X182773623Y-57012350D01*
X183166252Y-57127636D01*
X183546145Y-57279722D01*
X183909860Y-57467231D01*
X184254105Y-57688463D01*
X184575761Y-57941417D01*
X184871916Y-58223800D01*
X185139888Y-58533056D01*
X185377250Y-58866384D01*
X185581852Y-59220766D01*
X185751842Y-59592991D01*
X185885680Y-59979690D01*
X185982153Y-60377360D01*
X186040389Y-60782399D01*
X186059860Y-61191140D01*
X186040389Y-61599881D01*
X185982153Y-62004920D01*
X185885680Y-62402590D01*
X185751842Y-62789289D01*
X185581852Y-63161514D01*
X185377250Y-63515896D01*
X185139888Y-63849224D01*
X184871916Y-64158480D01*
X184575761Y-64440863D01*
X184254105Y-64693817D01*
X183909860Y-64915049D01*
X183546145Y-65102558D01*
X183166252Y-65254644D01*
X182773623Y-65369930D01*
X182371814Y-65447372D01*
X181964462Y-65486270D01*
X181555258Y-65486270D01*
X181147906Y-65447372D01*
X180746097Y-65369930D01*
X180353468Y-65254644D01*
X179973575Y-65102558D01*
X179609860Y-64915049D01*
X179265615Y-64693817D01*
X178943959Y-64440863D01*
X178647804Y-64158480D01*
X178379832Y-63849224D01*
X178142470Y-63515896D01*
X177937868Y-63161514D01*
X177767878Y-62789289D01*
X177634040Y-62402590D01*
X177537567Y-62004920D01*
X177479331Y-61599881D01*
X177459860Y-61191140D01*
X177479331Y-60782399D01*
X177537567Y-60377360D01*
X177634040Y-59979690D01*
X177767878Y-59592991D01*
X177937868Y-59220766D01*
X178142470Y-58866384D01*
X178379832Y-58533056D01*
X178647804Y-58223800D01*
X178943959Y-57941417D01*
X179265615Y-57688463D01*
X179609860Y-57467231D01*
X179973575Y-57279722D01*
X180353468Y-57127636D01*
X180746097Y-57012350D01*
X181147906Y-56934908D01*
X181555258Y-56896010D01*
X181964462Y-56896010D01*
X182371814Y-56934908D01*
G37*
G36*
X141075000Y-65375000D02*
G01*
X139375000Y-65375000D01*
X139375000Y-63675000D01*
X141075000Y-63675000D01*
X141075000Y-65375000D01*
G37*
G36*
X166661200Y-63923200D02*
G01*
X164961200Y-63923200D01*
X164961200Y-62223200D01*
X166661200Y-62223200D01*
X166661200Y-63923200D01*
G37*
G36*
X166073864Y-59724802D02*
G01*
X166236200Y-59797078D01*
X166379961Y-59901527D01*
X166498864Y-60033583D01*
X166587714Y-60187474D01*
X166642625Y-60356475D01*
X166661200Y-60533200D01*
X166642625Y-60709925D01*
X166587714Y-60878926D01*
X166498864Y-61032817D01*
X166379961Y-61164873D01*
X166236200Y-61269322D01*
X166073864Y-61341598D01*
X165900049Y-61378544D01*
X165722351Y-61378544D01*
X165548536Y-61341598D01*
X165386200Y-61269322D01*
X165242439Y-61164873D01*
X165123536Y-61032817D01*
X165034686Y-60878926D01*
X164979775Y-60709925D01*
X164961200Y-60533200D01*
X164979775Y-60356475D01*
X165034686Y-60187474D01*
X165123536Y-60033583D01*
X165242439Y-59901527D01*
X165386200Y-59797078D01*
X165548536Y-59724802D01*
X165722351Y-59687856D01*
X165900049Y-59687856D01*
X166073864Y-59724802D01*
G37*
M02*
